STARTFONT 2.1
COMMENT
COMMENT Converted from OpenType font "MultiTypeGamerChess-Regular.otf" by "otf2bdf 3.0".
COMMENT
FONT -FreeType-MultiType Gamer Chess-Medium-R-Normal--66-480-100-100-P-396-ISO10646-1
SIZE 48 100 100
FONTBOUNDINGBOX 173 117 -58 -20
STARTPROPERTIES 19
FOUNDRY "FreeType"
FAMILY_NAME "MultiType Gamer Chess"
WEIGHT_NAME "Medium"
SLANT "R"
SETWIDTH_NAME "Normal"
ADD_STYLE_NAME ""
PIXEL_SIZE 66
POINT_SIZE 480
RESOLUTION_X 100
RESOLUTION_Y 100
SPACING "P"
AVERAGE_WIDTH 396
CHARSET_REGISTRY "ISO10646"
CHARSET_ENCODING "1"
FONT_ASCENT 73
FONT_DESCENT 6
COPYRIGHT "-FreeType-MultiType Gamer Chess-Medium-R-Normal--66-480-100-100-P-396-ISO10646-1"
_OTF_FONTFILE "MultiTypeGamerChess-Regular.otf"
_OTF_PSNAME "MultiTypeGamer-Chess"
ENDPROPERTIES
CHARS 758
STARTCHAR 0020
ENCODING 32
SWIDTH 300 0
DWIDTH 20 0
BBX 0 0 0 0
BITMAP
ENDCHAR
STARTCHAR 0021
ENCODING 33
SWIDTH 300 0
DWIDTH 20 0
BBX 10 50 5 0
BITMAP
E1C0
E1C0
E1C0
1E00
1E00
1E00
1E00
E1C0
E1C0
E1C0
1E00
1E00
1E00
E1C0
E1C0
E1C0
E1C0
1E00
1E00
1E00
E1C0
E1C0
E1C0
1E00
1E00
1E00
1E00
E1C0
E1C0
E1C0
1E00
1E00
1E00
0000
0000
0000
0000
0000
0000
0000
E1C0
E1C0
E1C0
1E00
1E00
1E00
1E00
E1C0
E1C0
E1C0
ENDCHAR
STARTCHAR 0022
ENCODING 34
SWIDTH 450 0
DWIDTH 30 0
BBX 26 17 2 40
BITMAP
E3C0F1C0
E3C0F1C0
E3C0F1C0
E3C0F1C0
1C000E00
1C000E00
1C000E00
E3C0F1C0
E3C0F1C0
E3C0F1C0
1C000E00
1C000E00
1C000E00
1C000E00
E3C0F1C0
E3C0F1C0
E3C0F1C0
ENDCHAR
STARTCHAR 0023
ENCODING 35
SWIDTH 900 0
DWIDTH 60 0
BBX 50 64 5 -7
BITMAP
00387003870000
00387003870000
00387003870000
00387003870000
00078000780000
00078000780000
00078000780000
00387003870000
00387003870000
00387003870000
00078000780000
00078000780000
00078000780000
00078000780000
00387003870000
00387003870000
00387003870000
E1C78E1C78E1C0
E1C78E1C78E1C0
E1C78E1C78E1C0
1E3871E3871E00
1E3871E3871E00
1E3871E3871E00
1E3871E3871E00
E1C78E1C78E1C0
E1C78E1C78E1C0
E1C78E1C78E1C0
00387003870000
00387003870000
00387003870000
00078000780000
00078000780000
00078000780000
00078000780000
00387003870000
00387003870000
00387003870000
E1C78E1C78E1C0
E1C78E1C78E1C0
E1C78E1C78E1C0
1E3871E3871E00
1E3871E3871E00
1E3871E3871E00
1E3871E3871E00
E1C78E1C78E1C0
E1C78E1C78E1C0
E1C78E1C78E1C0
00387003870000
00387003870000
00387003870000
00078000780000
00078000780000
00078000780000
00078000780000
00387003870000
00387003870000
00387003870000
00078000780000
00078000780000
00078000780000
00387003870000
00387003870000
00387003870000
00387003870000
ENDCHAR
STARTCHAR 0024
ENCODING 36
SWIDTH 690 0
DWIDTH 46 0
BBX 37 64 5 -7
BITMAP
00078E0000
00078E0000
00078E0000
00078E0000
0000700000
0000700000
0000700000
01C78E1C78
01C78E1C78
01C78E1C78
1E3871E380
1E3871E380
1E3871E380
1E3871E380
E1C78E1C78
E1C78E1C78
E1C78E1C78
1E00000000
1E00000000
1E00000000
E1C0000000
E1C0000000
E1C0000000
E1C0000000
1E00000000
1E00000000
1E00000000
E1C78E1C00
E1C78E1C00
E1C78E1C00
1E3871E380
1E3871E380
1E3871E380
1E3871E380
01C78E1C78
01C78E1C78
01C78E1C78
0000000380
0000000380
0000000380
0000001C78
0000001C78
0000001C78
0000001C78
0000000380
0000000380
0000000380
E1C78E1C78
E1C78E1C78
E1C78E1C78
1E3871E380
1E3871E380
1E3871E380
1E3871E380
E1C78E1C00
E1C78E1C00
E1C78E1C00
0000700000
0000700000
0000700000
00078E0000
00078E0000
00078E0000
00078E0000
ENDCHAR
STARTCHAR 0025
ENCODING 37
SWIDTH 1290 0
DWIDTH 86 0
BBX 77 50 5 0
BITMAP
01C78E0000E1C0000000
01C78E0000E1C0000000
01C78E0000E1C0000000
1E3871E0001E00000000
1E3871E0001E00000000
1E3871E0001E00000000
1E3871E0001E00000000
E1C78E1C00E1C0000000
E1C78E1C00E1C0000000
E1C78E1C00E1C0000000
1E0001E0071E00000000
1E0001E0071E00000000
1E0001E0071E00000000
E1C00E1C00E000000000
E1C00E1C00E000000000
E1C00E1C00E000000000
E1C00E1C00E000000000
1E0001E0071E00000000
1E0001E0071E00000000
1E0001E0071E00000000
E1C78E1C78E0078E1C00
E1C78E1C78E0078E1C00
E1C78E1C78E0078E1C00
1E3871E007003871E380
1E3871E007003871E380
1E3871E007003871E380
1E3871E007003871E380
01C78E0078E1C78E1C78
01C78E0078E1C78E1C78
01C78E0078E1C78E1C78
00000003870038000380
00000003870038000380
00000003870038000380
000000007801C7801C78
000000007801C7801C78
000000007801C7801C78
000000007801C7801C78
00000003870038000380
00000003870038000380
00000003870038000380
0000001C7801C78E1C78
0000001C7801C78E1C78
0000001C7801C78E1C78
0000000380003871E380
0000000380003871E380
0000000380003871E380
0000000380003871E380
0000001C7800078E1C00
0000001C7800078E1C00
0000001C7800078E1C00
ENDCHAR
STARTCHAR 0026
ENCODING 38
SWIDTH 795 0
DWIDTH 53 0
BBX 43 50 5 0
BITMAP
01C78E1C0000
01C78E1C0000
01C78E1C0000
1E3871E00000
1E3871E00000
1E3871E00000
1E3871E00000
E1C78E1C0000
E1C78E1C0000
E1C78E1C0000
1E0000000000
1E0000000000
1E0000000000
E1C0001C7800
E1C0001C7800
E1C0001C7800
E1C0001C7800
1E3800038000
1E3800038000
1E3800038000
01C78E1C78E0
01C78E1C78E0
01C78E1C78E0
003871E38700
003871E38700
003871E38700
003871E38700
01C78E1C78E0
01C78E1C78E0
01C78E1C78E0
1E3800038000
1E3800038000
1E3800038000
E1C0001C7800
E1C0001C7800
E1C0001C7800
E1C0001C7800
1E0000038000
1E0000038000
1E0000038000
E1C78E1C78E0
E1C78E1C78E0
E1C78E1C78E0
1E3871E38700
1E3871E38700
1E3871E38700
1E3871E38700
01C78E1C78E0
01C78E1C78E0
01C78E1C78E0
ENDCHAR
STARTCHAR 0027
ENCODING 39
SWIDTH 195 0
DWIDTH 13 0
BBX 10 17 2 40
BITMAP
E3C0
E3C0
E3C0
E3C0
1C00
1C00
1C00
E3C0
E3C0
E3C0
1C00
1C00
1C00
1C00
E3C0
E3C0
E3C0
ENDCHAR
STARTCHAR 0028
ENCODING 40
SWIDTH 300 0
DWIDTH 20 0
BBX 17 76 5 -13
BITMAP
01C780
01C780
01C780
1E3800
1E3800
1E3800
E1C000
E1C000
E1C000
E1C000
1E0000
1E0000
1E0000
E1C000
E1C000
E1C000
1E0000
1E0000
1E0000
1E0000
E1C000
E1C000
E1C000
1E0000
1E0000
1E0000
E1C000
E1C000
E1C000
E1C000
1E0000
1E0000
1E0000
E1C000
E1C000
E1C000
1E0000
1E0000
1E0000
1E0000
E1C000
E1C000
E1C000
1E0000
1E0000
1E0000
E1C000
E1C000
E1C000
E1C000
1E0000
1E0000
1E0000
E1C000
E1C000
E1C000
1E0000
1E0000
1E0000
1E0000
E1C000
E1C000
E1C000
1E0000
1E0000
1E0000
E1C000
E1C000
E1C000
E1C000
1E3800
1E3800
1E3800
01C780
01C780
01C780
ENDCHAR
STARTCHAR 0029
ENCODING 41
SWIDTH 300 0
DWIDTH 20 0
BBX 17 76 -2 -13
BITMAP
F1C000
F1C000
F1C000
0E3C00
0E3C00
0E3C00
01C380
01C380
01C380
01C380
003C00
003C00
003C00
01C380
01C380
01C380
003C00
003C00
003C00
003C00
01C380
01C380
01C380
003C00
003C00
003C00
01C380
01C380
01C380
01C380
003C00
003C00
003C00
01C380
01C380
01C380
003C00
003C00
003C00
003C00
01C380
01C380
01C380
003C00
003C00
003C00
01C380
01C380
01C380
01C380
003C00
003C00
003C00
01C380
01C380
01C380
003C00
003C00
003C00
003C00
01C380
01C380
01C380
003C00
003C00
003C00
01C380
01C380
01C380
01C380
0E3C00
0E3C00
0E3C00
F1C000
F1C000
F1C000
ENDCHAR
STARTCHAR 002A
ENCODING 42
SWIDTH 900 0
DWIDTH 60 0
BBX 50 44 5 13
BITMAP
E1C00E1C00E1C0
E1C00E1C00E1C0
E1C00E1C00E1C0
E1C00E1C00E1C0
1E0001E0001E00
1E0001E0001E00
1E0001E0001E00
E1C00E1C00E1C0
E1C00E1C00E1C0
E1C00E1C00E1C0
1E3801E0071E00
1E3801E0071E00
1E3801E0071E00
1E3801E0071E00
01C78E1C78E000
01C78E1C78E000
01C78E1C78E000
003871E3870000
003871E3870000
003871E3870000
00078E1C780000
00078E1C780000
00078E1C780000
00078E1C780000
003871E3870000
003871E3870000
003871E3870000
01C78E1C78E000
01C78E1C78E000
01C78E1C78E000
1E3801E0071E00
1E3801E0071E00
1E3801E0071E00
1E3801E0071E00
E1C00E1C00E1C0
E1C00E1C00E1C0
E1C00E1C00E1C0
1E0001E0001E00
1E0001E0001E00
1E0001E0001E00
E1C00E1C00E1C0
E1C00E1C00E1C0
E1C00E1C00E1C0
E1C00E1C00E1C0
ENDCHAR
STARTCHAR 002B
ENCODING 43
SWIDTH 690 0
DWIDTH 46 0
BBX 37 36 5 7
BITMAP
00078E0000
00078E0000
00078E0000
0000700000
0000700000
0000700000
00078E0000
00078E0000
00078E0000
00078E0000
0000700000
0000700000
0000700000
E1C78E1C78
E1C78E1C78
E1C78E1C78
1E3871E380
1E3871E380
1E3871E380
1E3871E380
E1C78E1C78
E1C78E1C78
E1C78E1C78
0000700000
0000700000
0000700000
00078E0000
00078E0000
00078E0000
00078E0000
0000700000
0000700000
0000700000
00078E0000
00078E0000
00078E0000
ENDCHAR
STARTCHAR 002C
ENCODING 44
SWIDTH 195 0
DWIDTH 13 0
BBX 10 17 2 -7
BITMAP
E3C0
E3C0
E3C0
1C00
1C00
1C00
1C00
E3C0
E3C0
E3C0
1C00
1C00
1C00
E000
E000
E000
E000
ENDCHAR
STARTCHAR 002D
ENCODING 45
SWIDTH 495 0
DWIDTH 33 0
BBX 30 10 2 20
BITMAP
E3C70E3C
E3C70E3C
E3C70E3C
1C38F1C0
1C38F1C0
1C38F1C0
1C38F1C0
E3C70E3C
E3C70E3C
E3C70E3C
ENDCHAR
STARTCHAR 002E
ENCODING 46
SWIDTH 195 0
DWIDTH 13 0
BBX 10 10 2 0
BITMAP
E3C0
E3C0
E3C0
1C00
1C00
1C00
1C00
E3C0
E3C0
E3C0
ENDCHAR
STARTCHAR 002F
ENCODING 47
SWIDTH 390 0
DWIDTH 26 0
BBX 23 50 2 0
BITMAP
00070E
00070E
00070E
0000F0
0000F0
0000F0
0000F0
00070E
00070E
00070E
0038F0
0038F0
0038F0
000700
000700
000700
000700
0038F0
0038F0
0038F0
03C700
03C700
03C700
003800
003800
003800
003800
03C700
03C700
03C700
1C3800
1C3800
1C3800
03C000
03C000
03C000
03C000
1C3800
1C3800
1C3800
E3C000
E3C000
E3C000
1C0000
1C0000
1C0000
1C0000
E3C000
E3C000
E3C000
ENDCHAR
STARTCHAR 0030
ENCODING 48
SWIDTH 690 0
DWIDTH 46 0
BBX 37 50 5 0
BITMAP
00078E0000
00078E0000
00078E0000
003871E000
003871E000
003871E000
003871E000
01C78E1C00
01C78E1C00
01C78E1C00
1E3801E380
1E3801E380
1E3801E380
E1C0001C78
E1C0001C78
E1C0001C78
E1C0001C78
1E00000380
1E00000380
1E00000380
E1C0001C78
E1C0001C78
E1C0001C78
1E00000380
1E00000380
1E00000380
1E00000380
E1C0001C78
E1C0001C78
E1C0001C78
1E00000380
1E00000380
1E00000380
E1C0001C78
E1C0001C78
E1C0001C78
E1C0001C78
1E3801E380
1E3801E380
1E3801E380
01C78E1C00
01C78E1C00
01C78E1C00
003871E000
003871E000
003871E000
003871E000
00078E0000
00078E0000
00078E0000
ENDCHAR
STARTCHAR 0031
ENCODING 49
SWIDTH 390 0
DWIDTH 26 0
BBX 17 50 5 0
BITMAP
E1C780
E1C780
E1C780
1E3800
1E3800
1E3800
1E3800
E1C780
E1C780
E1C780
003800
003800
003800
01C780
01C780
01C780
01C780
003800
003800
003800
01C780
01C780
01C780
003800
003800
003800
003800
01C780
01C780
01C780
003800
003800
003800
01C780
01C780
01C780
01C780
003800
003800
003800
01C780
01C780
01C780
003800
003800
003800
003800
01C780
01C780
01C780
ENDCHAR
STARTCHAR 0032
ENCODING 50
SWIDTH 690 0
DWIDTH 46 0
BBX 37 50 5 0
BITMAP
01C78E1C00
01C78E1C00
01C78E1C00
1E3871E380
1E3871E380
1E3871E380
1E3871E380
E1C78E1C78
E1C78E1C78
E1C78E1C78
1E00000380
1E00000380
1E00000380
E1C0001C78
E1C0001C78
E1C0001C78
E1C0001C78
000001E380
000001E380
000001E380
00000E1C00
00000E1C00
00000E1C00
000071E000
000071E000
000071E000
000071E000
00078E0000
00078E0000
00078E0000
0038700000
0038700000
0038700000
01C7800000
01C7800000
01C7800000
01C7800000
1E38000000
1E38000000
1E38000000
E1C78E1C78
E1C78E1C78
E1C78E1C78
1E3871E380
1E3871E380
1E3871E380
1E3871E380
E1C78E1C78
E1C78E1C78
E1C78E1C78
ENDCHAR
STARTCHAR 0033
ENCODING 51
SWIDTH 690 0
DWIDTH 46 0
BBX 37 50 5 0
BITMAP
01C78E1C00
01C78E1C00
01C78E1C00
1E3871E380
1E3871E380
1E3871E380
1E3871E380
E1C78E1C78
E1C78E1C78
E1C78E1C78
1E00000380
1E00000380
1E00000380
E1C0001C78
E1C0001C78
E1C0001C78
E1C0001C78
000001E380
000001E380
000001E380
00078E1C00
00078E1C00
00078E1C00
000071E380
000071E380
000071E380
000071E380
00078E1C78
00078E1C78
00078E1C78
0000000380
0000000380
0000000380
E1C0001C78
E1C0001C78
E1C0001C78
E1C0001C78
1E00000380
1E00000380
1E00000380
E1C78E1C78
E1C78E1C78
E1C78E1C78
1E3871E380
1E3871E380
1E3871E380
1E3871E380
01C78E1C00
01C78E1C00
01C78E1C00
ENDCHAR
STARTCHAR 0034
ENCODING 52
SWIDTH 690 0
DWIDTH 46 0
BBX 37 50 5 0
BITMAP
00000E1C00
00000E1C00
00000E1C00
000071E000
000071E000
000071E000
000071E000
00078E1C00
00078E1C00
00078E1C00
003871E000
003871E000
003871E000
01C78E1C00
01C78E1C00
01C78E1C00
01C78E1C00
1E3801E000
1E3801E000
1E3801E000
E1C00E1C00
E1C00E1C00
E1C00E1C00
1E0001E000
1E0001E000
1E0001E000
1E0001E000
E1C78E1C78
E1C78E1C78
E1C78E1C78
1E3871E380
1E3871E380
1E3871E380
E1C78E1C78
E1C78E1C78
E1C78E1C78
E1C78E1C78
000001E000
000001E000
000001E000
00000E1C00
00000E1C00
00000E1C00
000001E000
000001E000
000001E000
000001E000
00000E1C00
00000E1C00
00000E1C00
ENDCHAR
STARTCHAR 0035
ENCODING 53
SWIDTH 690 0
DWIDTH 46 0
BBX 37 50 5 0
BITMAP
E1C78E1C78
E1C78E1C78
E1C78E1C78
1E3871E380
1E3871E380
1E3871E380
1E3871E380
E1C78E1C78
E1C78E1C78
E1C78E1C78
1E00000000
1E00000000
1E00000000
E1C0000000
E1C0000000
E1C0000000
E1C0000000
1E00000000
1E00000000
1E00000000
E1C78E1C00
E1C78E1C00
E1C78E1C00
1E3871E380
1E3871E380
1E3871E380
1E3871E380
E1C78E1C78
E1C78E1C78
E1C78E1C78
0000000380
0000000380
0000000380
0000001C78
0000001C78
0000001C78
0000001C78
0000000380
0000000380
0000000380
E1C78E1C78
E1C78E1C78
E1C78E1C78
1E3871E380
1E3871E380
1E3871E380
1E3871E380
E1C78E1C00
E1C78E1C00
E1C78E1C00
ENDCHAR
STARTCHAR 0036
ENCODING 54
SWIDTH 690 0
DWIDTH 46 0
BBX 37 50 5 0
BITMAP
00078E1C78
00078E1C78
00078E1C78
003871E380
003871E380
003871E380
003871E380
01C78E1C78
01C78E1C78
01C78E1C78
1E38000000
1E38000000
1E38000000
E1C0000000
E1C0000000
E1C0000000
E1C0000000
1E00000000
1E00000000
1E00000000
E1C78E1C00
E1C78E1C00
E1C78E1C00
1E3871E380
1E3871E380
1E3871E380
1E3871E380
E1C78E1C78
E1C78E1C78
E1C78E1C78
1E00000380
1E00000380
1E00000380
E1C0001C78
E1C0001C78
E1C0001C78
E1C0001C78
1E00000380
1E00000380
1E00000380
E1C78E1C78
E1C78E1C78
E1C78E1C78
1E3871E380
1E3871E380
1E3871E380
1E3871E380
01C78E1C00
01C78E1C00
01C78E1C00
ENDCHAR
STARTCHAR 0037
ENCODING 55
SWIDTH 690 0
DWIDTH 46 0
BBX 37 50 5 0
BITMAP
E1C78E1C78
E1C78E1C78
E1C78E1C78
1E3871E380
1E3871E380
1E3871E380
1E3871E380
E1C78E1C78
E1C78E1C78
E1C78E1C78
0000000380
0000000380
0000000380
0000001C78
0000001C78
0000001C78
0000001C78
000001E380
000001E380
000001E380
00000E1C00
00000E1C00
00000E1C00
000071E000
000071E000
000071E000
000071E000
00078E0000
00078E0000
00078E0000
0038700000
0038700000
0038700000
01C7800000
01C7800000
01C7800000
01C7800000
0038000000
0038000000
0038000000
01C7800000
01C7800000
01C7800000
0038000000
0038000000
0038000000
0038000000
01C7800000
01C7800000
01C7800000
ENDCHAR
STARTCHAR 0038
ENCODING 56
SWIDTH 690 0
DWIDTH 46 0
BBX 37 50 5 0
BITMAP
01C78E1C00
01C78E1C00
01C78E1C00
1E3871E380
1E3871E380
1E3871E380
1E3871E380
E1C78E1C78
E1C78E1C78
E1C78E1C78
1E00000380
1E00000380
1E00000380
E1C0001C78
E1C0001C78
E1C0001C78
E1C0001C78
1E3801E380
1E3801E380
1E3801E380
01C78E1C00
01C78E1C00
01C78E1C00
003871E000
003871E000
003871E000
003871E000
01C78E1C00
01C78E1C00
01C78E1C00
1E3801E380
1E3801E380
1E3801E380
E1C0001C78
E1C0001C78
E1C0001C78
E1C0001C78
1E00000380
1E00000380
1E00000380
E1C78E1C78
E1C78E1C78
E1C78E1C78
1E3871E380
1E3871E380
1E3871E380
1E3871E380
01C78E1C00
01C78E1C00
01C78E1C00
ENDCHAR
STARTCHAR 0039
ENCODING 57
SWIDTH 690 0
DWIDTH 46 0
BBX 37 50 5 0
BITMAP
01C78E1C00
01C78E1C00
01C78E1C00
1E3871E380
1E3871E380
1E3871E380
1E3871E380
E1C78E1C78
E1C78E1C78
E1C78E1C78
1E00000380
1E00000380
1E00000380
E1C0001C78
E1C0001C78
E1C0001C78
E1C0001C78
1E00000380
1E00000380
1E00000380
E1C78E1C78
E1C78E1C78
E1C78E1C78
1E3871E380
1E3871E380
1E3871E380
1E3871E380
01C78E1C78
01C78E1C78
01C78E1C78
0000000380
0000000380
0000000380
0000001C78
0000001C78
0000001C78
0000001C78
000001E380
000001E380
000001E380
E1C78E1C00
E1C78E1C00
E1C78E1C00
1E3871E000
1E3871E000
1E3871E000
1E3871E000
E1C78E0000
E1C78E0000
E1C78E0000
ENDCHAR
STARTCHAR 003A
ENCODING 58
SWIDTH 195 0
DWIDTH 13 0
BBX 10 30 2 10
BITMAP
E3C0
E3C0
E3C0
1C00
1C00
1C00
1C00
E3C0
E3C0
E3C0
0000
0000
0000
0000
0000
0000
0000
0000
0000
0000
E3C0
E3C0
E3C0
1C00
1C00
1C00
1C00
E3C0
E3C0
E3C0
ENDCHAR
STARTCHAR 003B
ENCODING 59
SWIDTH 195 0
DWIDTH 13 0
BBX 10 37 2 -7
BITMAP
E3C0
E3C0
E3C0
1C00
1C00
1C00
1C00
E3C0
E3C0
E3C0
0000
0000
0000
0000
0000
0000
0000
0000
0000
0000
E3C0
E3C0
E3C0
1C00
1C00
1C00
1C00
E3C0
E3C0
E3C0
1C00
1C00
1C00
E000
E000
E000
E000
ENDCHAR
STARTCHAR 003C
ENCODING 60
SWIDTH 645 0
DWIDTH 43 0
BBX 33 50 2 0
BITMAP
000001C380
000001C380
000001C380
00000E3C00
00000E3C00
00000E3C00
00000E3C00
0000F1C000
0000F1C000
0000F1C000
00070E0000
00070E0000
00070E0000
0038F00000
0038F00000
0038F00000
0038F00000
03C7000000
03C7000000
03C7000000
1C38000000
1C38000000
1C38000000
E3C0000000
E3C0000000
E3C0000000
E3C0000000
1C38000000
1C38000000
1C38000000
03C7000000
03C7000000
03C7000000
0038F00000
0038F00000
0038F00000
0038F00000
00070E0000
00070E0000
00070E0000
0000F1C000
0000F1C000
0000F1C000
00000E3C00
00000E3C00
00000E3C00
00000E3C00
000001C380
000001C380
000001C380
ENDCHAR
STARTCHAR 003D
ENCODING 61
SWIDTH 690 0
DWIDTH 46 0
BBX 37 30 5 7
BITMAP
E1C78E1C78
E1C78E1C78
E1C78E1C78
E1C78E1C78
1E3871E380
1E3871E380
1E3871E380
E1C78E1C78
E1C78E1C78
E1C78E1C78
0000000000
0000000000
0000000000
0000000000
0000000000
0000000000
0000000000
0000000000
0000000000
0000000000
E1C78E1C78
E1C78E1C78
E1C78E1C78
E1C78E1C78
1E3871E380
1E3871E380
1E3871E380
E1C78E1C78
E1C78E1C78
E1C78E1C78
ENDCHAR
STARTCHAR 003E
ENCODING 62
SWIDTH 645 0
DWIDTH 43 0
BBX 34 50 8 0
BITMAP
F1C0000000
F1C0000000
F1C0000000
0E3C000000
0E3C000000
0E3C000000
0E3C000000
01C3800000
01C3800000
01C3800000
003C700000
003C700000
003C700000
00038F0000
00038F0000
00038F0000
00038F0000
000070E000
000070E000
000070E000
00000F1C00
00000F1C00
00000F1C00
000000E3C0
000000E3C0
000000E3C0
000000E3C0
00000F1C00
00000F1C00
00000F1C00
000070E000
000070E000
000070E000
00038F0000
00038F0000
00038F0000
00038F0000
003C700000
003C700000
003C700000
01C3800000
01C3800000
01C3800000
0E3C000000
0E3C000000
0E3C000000
0E3C000000
F1C0000000
F1C0000000
F1C0000000
ENDCHAR
STARTCHAR 003F
ENCODING 63
SWIDTH 690 0
DWIDTH 46 0
BBX 37 50 5 0
BITMAP
01C78E1C00
01C78E1C00
01C78E1C00
1E3871E380
1E3871E380
1E3871E380
1E3871E380
E1C78E1C78
E1C78E1C78
E1C78E1C78
1E00000380
1E00000380
1E00000380
E1C0001C78
E1C0001C78
E1C0001C78
E1C0001C78
0000000380
0000000380
0000000380
00000E1C78
00000E1C78
00000E1C78
000071E380
000071E380
000071E380
000071E380
00078E1C00
00078E1C00
00078E1C00
0000700000
0000700000
0000700000
00078E0000
00078E0000
00078E0000
00078E0000
0000000000
0000000000
0000000000
00078E0000
00078E0000
00078E0000
0000700000
0000700000
0000700000
0000700000
00078E0000
00078E0000
00078E0000
ENDCHAR
STARTCHAR 0040
ENCODING 64
SWIDTH 1200 0
DWIDTH 80 0
BBX 70 70 5 -7
BITMAP
00078E1C78E1C78000
00078E1C78E1C78000
00078E1C78E1C78000
003871E3871E387000
003871E3871E387000
003871E3871E387000
01C78E1C78E1C78E00
01C78E1C78E1C78E00
01C78E1C78E1C78E00
01C78E1C78E1C78E00
1E38000000000071E0
1E38000000000071E0
1E38000000000071E0
E1C000000000000E1C
E1C000000000000E1C
E1C000000000000E1C
1E00000000000001E0
1E00000000000001E0
1E00000000000001E0
1E00000000000001E0
E1C0001C78E1C00E1C
E1C0001C78E1C00E1C
E1C0001C78E1C00E1C
1E0001E3871E0001E0
1E0001E3871E0001E0
1E0001E3871E0001E0
E1C00E1C78E1C00E1C
E1C00E1C78E1C00E1C
E1C00E1C78E1C00E1C
E1C00E1C78E1C00E1C
1E0001E0001E0001E0
1E0001E0001E0001E0
1E0001E0001E0001E0
E1C00E1C00E1C00E1C
E1C00E1C00E1C00E1C
E1C00E1C00E1C00E1C
1E0001E0001E0001E0
1E0001E0001E0001E0
1E0001E0001E0001E0
1E0001E0001E0001E0
E1C00E1C78E1C78E1C
E1C00E1C78E1C78E1C
E1C00E1C78E1C78E1C
1E0001E3871E3871E0
1E0001E3871E3871E0
1E0001E3871E3871E0
E1C0001C78E1C78E00
E1C0001C78E1C78E00
E1C0001C78E1C78E00
E1C0001C78E1C78E00
1E0000000000000000
1E0000000000000000
1E0000000000000000
E1C000000000000000
E1C000000000000000
E1C000000000000000
1E3800000000000000
1E3800000000000000
1E3800000000000000
1E3800000000000000
01C78E1C78E1C78E1C
01C78E1C78E1C78E1C
01C78E1C78E1C78E1C
003871E3871E3871E0
003871E3871E3871E0
003871E3871E3871E0
00078E1C78E1C78E1C
00078E1C78E1C78E1C
00078E1C78E1C78E1C
00078E1C78E1C78E1C
ENDCHAR
STARTCHAR 0041
ENCODING 65
SWIDTH 690 0
DWIDTH 46 0
BBX 37 50 5 0
BITMAP
00078E0000
00078E0000
00078E0000
003871E000
003871E000
003871E000
003871E000
01C78E1C00
01C78E1C00
01C78E1C00
1E3801E380
1E3801E380
1E3801E380
E1C0001C78
E1C0001C78
E1C0001C78
E1C0001C78
1E00000380
1E00000380
1E00000380
E1C0001C78
E1C0001C78
E1C0001C78
1E00000380
1E00000380
1E00000380
1E00000380
E1C78E1C78
E1C78E1C78
E1C78E1C78
1E3871E380
1E3871E380
1E3871E380
E1C78E1C78
E1C78E1C78
E1C78E1C78
E1C78E1C78
1E00000380
1E00000380
1E00000380
E1C0001C78
E1C0001C78
E1C0001C78
1E00000380
1E00000380
1E00000380
1E00000380
E1C0001C78
E1C0001C78
E1C0001C78
ENDCHAR
STARTCHAR 0042
ENCODING 66
SWIDTH 690 0
DWIDTH 46 0
BBX 37 50 5 0
BITMAP
E1C78E1C00
E1C78E1C00
E1C78E1C00
1E3871E380
1E3871E380
1E3871E380
1E3871E380
E1C78E1C78
E1C78E1C78
E1C78E1C78
1E00000380
1E00000380
1E00000380
E1C0001C78
E1C0001C78
E1C0001C78
E1C0001C78
1E0001E380
1E0001E380
1E0001E380
E1C78E1C00
E1C78E1C00
E1C78E1C00
1E3871E380
1E3871E380
1E3871E380
1E3871E380
E1C78E1C78
E1C78E1C78
E1C78E1C78
1E00000380
1E00000380
1E00000380
E1C0001C78
E1C0001C78
E1C0001C78
E1C0001C78
1E00000380
1E00000380
1E00000380
E1C78E1C78
E1C78E1C78
E1C78E1C78
1E3871E380
1E3871E380
1E3871E380
1E3871E380
E1C78E1C00
E1C78E1C00
E1C78E1C00
ENDCHAR
STARTCHAR 0043
ENCODING 67
SWIDTH 795 0
DWIDTH 53 0
BBX 43 50 5 0
BITMAP
00078E1C0000
00078E1C0000
00078E1C0000
003871E38000
003871E38000
003871E38000
003871E38000
01C78E1C7800
01C78E1C7800
01C78E1C7800
1E3800038700
1E3800038700
1E3800038700
E1C0000078E0
E1C0000078E0
E1C0000078E0
E1C0000078E0
1E0000000700
1E0000000700
1E0000000700
E1C0000078E0
E1C0000078E0
E1C0000078E0
1E0000000000
1E0000000000
1E0000000000
1E0000000000
E1C000000000
E1C000000000
E1C000000000
1E0000000000
1E0000000000
1E0000000000
E1C0000078E0
E1C0000078E0
E1C0000078E0
E1C0000078E0
1E3800038700
1E3800038700
1E3800038700
01C78E1C7800
01C78E1C7800
01C78E1C7800
003871E38000
003871E38000
003871E38000
003871E38000
00078E1C0000
00078E1C0000
00078E1C0000
ENDCHAR
STARTCHAR 0044
ENCODING 68
SWIDTH 795 0
DWIDTH 53 0
BBX 43 50 5 0
BITMAP
E1C78E1C0000
E1C78E1C0000
E1C78E1C0000
1E3871E38000
1E3871E38000
1E3871E38000
1E3871E38000
E1C78E1C7800
E1C78E1C7800
E1C78E1C7800
1E0000038700
1E0000038700
1E0000038700
E1C0000078E0
E1C0000078E0
E1C0000078E0
E1C0000078E0
1E0000000700
1E0000000700
1E0000000700
E1C0000078E0
E1C0000078E0
E1C0000078E0
1E0000000700
1E0000000700
1E0000000700
1E0000000700
E1C0000078E0
E1C0000078E0
E1C0000078E0
1E0000000700
1E0000000700
1E0000000700
E1C0000078E0
E1C0000078E0
E1C0000078E0
E1C0000078E0
1E0000038700
1E0000038700
1E0000038700
E1C78E1C7800
E1C78E1C7800
E1C78E1C7800
1E3871E38000
1E3871E38000
1E3871E38000
1E3871E38000
E1C78E1C0000
E1C78E1C0000
E1C78E1C0000
ENDCHAR
STARTCHAR 0045
ENCODING 69
SWIDTH 690 0
DWIDTH 46 0
BBX 37 50 5 0
BITMAP
00078E1C78
00078E1C78
00078E1C78
003871E380
003871E380
003871E380
003871E380
01C78E1C78
01C78E1C78
01C78E1C78
1E38000000
1E38000000
1E38000000
E1C0000000
E1C0000000
E1C0000000
E1C0000000
1E00000000
1E00000000
1E00000000
E1C78E1C00
E1C78E1C00
E1C78E1C00
1E3871E000
1E3871E000
1E3871E000
1E3871E000
E1C78E1C00
E1C78E1C00
E1C78E1C00
1E00000000
1E00000000
1E00000000
E1C0000000
E1C0000000
E1C0000000
E1C0000000
1E38000000
1E38000000
1E38000000
01C78E1C78
01C78E1C78
01C78E1C78
003871E380
003871E380
003871E380
003871E380
00078E1C78
00078E1C78
00078E1C78
ENDCHAR
STARTCHAR 0046
ENCODING 70
SWIDTH 690 0
DWIDTH 46 0
BBX 37 50 5 0
BITMAP
00078E1C78
00078E1C78
00078E1C78
003871E380
003871E380
003871E380
003871E380
01C78E1C78
01C78E1C78
01C78E1C78
1E38000000
1E38000000
1E38000000
E1C0000000
E1C0000000
E1C0000000
E1C0000000
1E00000000
1E00000000
1E00000000
E1C78E1C00
E1C78E1C00
E1C78E1C00
1E3871E000
1E3871E000
1E3871E000
1E3871E000
E1C78E1C00
E1C78E1C00
E1C78E1C00
1E00000000
1E00000000
1E00000000
E1C0000000
E1C0000000
E1C0000000
E1C0000000
1E00000000
1E00000000
1E00000000
E1C0000000
E1C0000000
E1C0000000
1E00000000
1E00000000
1E00000000
1E00000000
E1C0000000
E1C0000000
E1C0000000
ENDCHAR
STARTCHAR 0047
ENCODING 71
SWIDTH 795 0
DWIDTH 53 0
BBX 43 50 5 0
BITMAP
00078E1C78E0
00078E1C78E0
00078E1C78E0
003871E38700
003871E38700
003871E38700
003871E38700
01C78E1C78E0
01C78E1C78E0
01C78E1C78E0
1E3800000000
1E3800000000
1E3800000000
E1C000000000
E1C000000000
E1C000000000
E1C000000000
1E0000000000
1E0000000000
1E0000000000
E1C00E1C78E0
E1C00E1C78E0
E1C00E1C78E0
1E0001E38700
1E0001E38700
1E0001E38700
1E0001E38700
E1C00E1C78E0
E1C00E1C78E0
E1C00E1C78E0
1E0000000700
1E0000000700
1E0000000700
E1C0000078E0
E1C0000078E0
E1C0000078E0
E1C0000078E0
1E3800000700
1E3800000700
1E3800000700
01C78E1C78E0
01C78E1C78E0
01C78E1C78E0
003871E38700
003871E38700
003871E38700
003871E38700
00078E1C78E0
00078E1C78E0
00078E1C78E0
ENDCHAR
STARTCHAR 0048
ENCODING 72
SWIDTH 795 0
DWIDTH 53 0
BBX 43 50 5 0
BITMAP
E1C0000078E0
E1C0000078E0
E1C0000078E0
1E0000000700
1E0000000700
1E0000000700
1E0000000700
E1C0000078E0
E1C0000078E0
E1C0000078E0
1E0000000700
1E0000000700
1E0000000700
E1C0000078E0
E1C0000078E0
E1C0000078E0
E1C0000078E0
1E0000000700
1E0000000700
1E0000000700
E1C78E1C78E0
E1C78E1C78E0
E1C78E1C78E0
1E3871E38700
1E3871E38700
1E3871E38700
1E3871E38700
E1C78E1C78E0
E1C78E1C78E0
E1C78E1C78E0
1E0000000700
1E0000000700
1E0000000700
E1C0000078E0
E1C0000078E0
E1C0000078E0
E1C0000078E0
1E0000000700
1E0000000700
1E0000000700
E1C0000078E0
E1C0000078E0
E1C0000078E0
1E0000000700
1E0000000700
1E0000000700
1E0000000700
E1C0000078E0
E1C0000078E0
E1C0000078E0
ENDCHAR
STARTCHAR 0049
ENCODING 73
SWIDTH 495 0
DWIDTH 33 0
BBX 23 50 5 0
BITMAP
E1C78E
E1C78E
E1C78E
1E3870
1E3870
1E3870
1E3870
E1C78E
E1C78E
E1C78E
003800
003800
003800
01C780
01C780
01C780
01C780
003800
003800
003800
01C780
01C780
01C780
003800
003800
003800
003800
01C780
01C780
01C780
003800
003800
003800
01C780
01C780
01C780
01C780
003800
003800
003800
E1C78E
E1C78E
E1C78E
1E3870
1E3870
1E3870
1E3870
E1C78E
E1C78E
E1C78E
ENDCHAR
STARTCHAR 004A
ENCODING 74
SWIDTH 600 0
DWIDTH 40 0
BBX 30 50 5 0
BITMAP
E1C78E1C
E1C78E1C
E1C78E1C
1E3871E0
1E3871E0
1E3871E0
1E3871E0
E1C78E1C
E1C78E1C
E1C78E1C
000001E0
000001E0
000001E0
00000E1C
00000E1C
00000E1C
00000E1C
000001E0
000001E0
000001E0
00000E1C
00000E1C
00000E1C
000001E0
000001E0
000001E0
000001E0
00000E1C
00000E1C
00000E1C
000001E0
000001E0
000001E0
00000E1C
00000E1C
00000E1C
00000E1C
000071E0
000071E0
000071E0
E1C78E00
E1C78E00
E1C78E00
1E387000
1E387000
1E387000
1E387000
E1C78000
E1C78000
E1C78000
ENDCHAR
STARTCHAR 004B
ENCODING 75
SWIDTH 690 0
DWIDTH 46 0
BBX 37 50 5 0
BITMAP
E1C0001C78
E1C0001C78
E1C0001C78
1E00000380
1E00000380
1E00000380
1E00000380
E1C0001C78
E1C0001C78
E1C0001C78
1E0001E380
1E0001E380
1E0001E380
E1C00E1C00
E1C00E1C00
E1C00E1C00
E1C00E1C00
1E0071E000
1E0071E000
1E0071E000
E1C78E0000
E1C78E0000
E1C78E0000
1E38700000
1E38700000
1E38700000
1E38700000
E1C78E0000
E1C78E0000
E1C78E0000
1E0071E000
1E0071E000
1E0071E000
E1C00E1C00
E1C00E1C00
E1C00E1C00
E1C00E1C00
1E0001E380
1E0001E380
1E0001E380
E1C0001C78
E1C0001C78
E1C0001C78
1E00000380
1E00000380
1E00000380
1E00000380
E1C0001C78
E1C0001C78
E1C0001C78
ENDCHAR
STARTCHAR 004C
ENCODING 76
SWIDTH 690 0
DWIDTH 46 0
BBX 37 50 5 0
BITMAP
E1C0000000
E1C0000000
E1C0000000
1E00000000
1E00000000
1E00000000
1E00000000
E1C0000000
E1C0000000
E1C0000000
1E00000000
1E00000000
1E00000000
E1C0000000
E1C0000000
E1C0000000
E1C0000000
1E00000000
1E00000000
1E00000000
E1C0000000
E1C0000000
E1C0000000
1E00000000
1E00000000
1E00000000
1E00000000
E1C0000000
E1C0000000
E1C0000000
1E00000000
1E00000000
1E00000000
E1C0000000
E1C0000000
E1C0000000
E1C0000000
1E00000000
1E00000000
1E00000000
E1C78E1C78
E1C78E1C78
E1C78E1C78
1E3871E380
1E3871E380
1E3871E380
1E3871E380
01C78E1C78
01C78E1C78
01C78E1C78
ENDCHAR
STARTCHAR 004D
ENCODING 77
SWIDTH 990 0
DWIDTH 66 0
BBX 57 50 5 0
BITMAP
E1C000000001C780
E1C000000001C780
E1C000000001C780
1E380000001E3800
1E380000001E3800
1E380000001E3800
1E380000001E3800
E1C7800000E1C780
E1C7800000E1C780
E1C7800000E1C780
1E387000071E3800
1E387000071E3800
1E387000071E3800
E1C78E0078E1C780
E1C78E0078E1C780
E1C78E0078E1C780
E1C78E0078E1C780
1E0071E387003800
1E0071E387003800
1E0071E387003800
E1C00E1C7801C780
E1C00E1C7801C780
E1C00E1C7801C780
1E0001E380003800
1E0001E380003800
1E0001E380003800
1E0001E380003800
E1C0001C0001C780
E1C0001C0001C780
E1C0001C0001C780
1E00000000003800
1E00000000003800
1E00000000003800
E1C000000001C780
E1C000000001C780
E1C000000001C780
E1C000000001C780
1E00000000003800
1E00000000003800
1E00000000003800
E1C000000001C780
E1C000000001C780
E1C000000001C780
1E00000000003800
1E00000000003800
1E00000000003800
1E00000000003800
E1C000000001C780
E1C000000001C780
E1C000000001C780
ENDCHAR
STARTCHAR 004E
ENCODING 78
SWIDTH 795 0
DWIDTH 53 0
BBX 43 50 5 0
BITMAP
E1C0000078E0
E1C0000078E0
E1C0000078E0
1E3800000700
1E3800000700
1E3800000700
1E3800000700
E1C7800078E0
E1C7800078E0
E1C7800078E0
1E3870000700
1E3870000700
1E3870000700
E1C78E0078E0
E1C78E0078E0
E1C78E0078E0
E1C78E0078E0
1E0071E00700
1E0071E00700
1E0071E00700
E1C00E1C78E0
E1C00E1C78E0
E1C00E1C78E0
1E0001E38700
1E0001E38700
1E0001E38700
1E0001E38700
E1C0001C78E0
E1C0001C78E0
E1C0001C78E0
1E0000038700
1E0000038700
1E0000038700
E1C0000078E0
E1C0000078E0
E1C0000078E0
E1C0000078E0
1E0000000700
1E0000000700
1E0000000700
E1C0000078E0
E1C0000078E0
E1C0000078E0
1E0000000700
1E0000000700
1E0000000700
1E0000000700
E1C0000078E0
E1C0000078E0
E1C0000078E0
ENDCHAR
STARTCHAR 004F
ENCODING 79
SWIDTH 795 0
DWIDTH 53 0
BBX 43 50 5 0
BITMAP
00078E1C0000
00078E1C0000
00078E1C0000
003871E38000
003871E38000
003871E38000
003871E38000
01C78E1C7800
01C78E1C7800
01C78E1C7800
1E3800038700
1E3800038700
1E3800038700
E1C0000078E0
E1C0000078E0
E1C0000078E0
E1C0000078E0
1E0000000700
1E0000000700
1E0000000700
E1C0000078E0
E1C0000078E0
E1C0000078E0
1E0000000700
1E0000000700
1E0000000700
1E0000000700
E1C0000078E0
E1C0000078E0
E1C0000078E0
1E0000000700
1E0000000700
1E0000000700
E1C0000078E0
E1C0000078E0
E1C0000078E0
E1C0000078E0
1E3800038700
1E3800038700
1E3800038700
01C78E1C7800
01C78E1C7800
01C78E1C7800
003871E38000
003871E38000
003871E38000
003871E38000
00078E1C0000
00078E1C0000
00078E1C0000
ENDCHAR
STARTCHAR 0050
ENCODING 80
SWIDTH 690 0
DWIDTH 46 0
BBX 37 50 5 0
BITMAP
E1C78E0000
E1C78E0000
E1C78E0000
1E3871E000
1E3871E000
1E3871E000
1E3871E000
E1C78E1C00
E1C78E1C00
E1C78E1C00
1E0001E380
1E0001E380
1E0001E380
E1C0001C78
E1C0001C78
E1C0001C78
E1C0001C78
1E00000380
1E00000380
1E00000380
E1C0001C78
E1C0001C78
E1C0001C78
1E00000380
1E00000380
1E00000380
1E00000380
E1C0001C78
E1C0001C78
E1C0001C78
1E0001E380
1E0001E380
1E0001E380
E1C78E1C00
E1C78E1C00
E1C78E1C00
E1C78E1C00
1E3871E000
1E3871E000
1E3871E000
E1C78E0000
E1C78E0000
E1C78E0000
1E00000000
1E00000000
1E00000000
1E00000000
E1C0000000
E1C0000000
E1C0000000
ENDCHAR
STARTCHAR 0051
ENCODING 81
SWIDTH 795 0
DWIDTH 53 0
BBX 43 57 5 -7
BITMAP
00078E1C0000
00078E1C0000
00078E1C0000
003871E38000
003871E38000
003871E38000
003871E38000
01C78E1C7800
01C78E1C7800
01C78E1C7800
1E3800038700
1E3800038700
1E3800038700
E1C0000078E0
E1C0000078E0
E1C0000078E0
E1C0000078E0
1E0000000700
1E0000000700
1E0000000700
E1C0000078E0
E1C0000078E0
E1C0000078E0
1E0000000700
1E0000000700
1E0000000700
1E0000000700
E1C0000078E0
E1C0000078E0
E1C0000078E0
1E0000000700
1E0000000700
1E0000000700
E1C0000078E0
E1C0000078E0
E1C0000078E0
E1C0000078E0
1E3800038700
1E3800038700
1E3800038700
01C78E1C7800
01C78E1C7800
01C78E1C7800
003871E38000
003871E38000
003871E38000
003871E38000
00078E1C0000
00078E1C0000
00078E1C0000
000001E38000
000001E38000
000001E38000
0000001C7800
0000001C7800
0000001C7800
0000001C7800
ENDCHAR
STARTCHAR 0052
ENCODING 82
SWIDTH 690 0
DWIDTH 46 0
BBX 37 50 5 0
BITMAP
E1C78E0000
E1C78E0000
E1C78E0000
1E3871E000
1E3871E000
1E3871E000
1E3871E000
E1C78E1C00
E1C78E1C00
E1C78E1C00
1E0001E380
1E0001E380
1E0001E380
E1C0001C78
E1C0001C78
E1C0001C78
E1C0001C78
1E00000380
1E00000380
1E00000380
E1C0001C78
E1C0001C78
E1C0001C78
1E00000380
1E00000380
1E00000380
1E00000380
E1C0001C78
E1C0001C78
E1C0001C78
1E0001E380
1E0001E380
1E0001E380
E1C78E1C00
E1C78E1C00
E1C78E1C00
E1C78E1C00
1E3871E000
1E3871E000
1E3871E000
E1C78E1C00
E1C78E1C00
E1C78E1C00
1E0001E380
1E0001E380
1E0001E380
1E0001E380
E1C0001C78
E1C0001C78
E1C0001C78
ENDCHAR
STARTCHAR 0053
ENCODING 83
SWIDTH 690 0
DWIDTH 46 0
BBX 37 50 5 0
BITMAP
01C78E1C00
01C78E1C00
01C78E1C00
1E3871E380
1E3871E380
1E3871E380
1E3871E380
E1C78E1C78
E1C78E1C78
E1C78E1C78
1E00000380
1E00000380
1E00000380
E1C0001C78
E1C0001C78
E1C0001C78
E1C0001C78
1E00000000
1E00000000
1E00000000
E1C78E1C00
E1C78E1C00
E1C78E1C00
1E3871E380
1E3871E380
1E3871E380
1E3871E380
01C78E1C78
01C78E1C78
01C78E1C78
0000000380
0000000380
0000000380
E1C0001C78
E1C0001C78
E1C0001C78
E1C0001C78
1E00000380
1E00000380
1E00000380
E1C78E1C78
E1C78E1C78
E1C78E1C78
1E3871E380
1E3871E380
1E3871E380
1E3871E380
01C78E1C00
01C78E1C00
01C78E1C00
ENDCHAR
STARTCHAR 0054
ENCODING 84
SWIDTH 690 0
DWIDTH 46 0
BBX 37 50 5 0
BITMAP
E1C78E1C78
E1C78E1C78
E1C78E1C78
1E3871E380
1E3871E380
1E3871E380
1E3871E380
E1C78E1C78
E1C78E1C78
E1C78E1C78
0000700000
0000700000
0000700000
00078E0000
00078E0000
00078E0000
00078E0000
0000700000
0000700000
0000700000
00078E0000
00078E0000
00078E0000
0000700000
0000700000
0000700000
0000700000
00078E0000
00078E0000
00078E0000
0000700000
0000700000
0000700000
00078E0000
00078E0000
00078E0000
00078E0000
0000700000
0000700000
0000700000
00078E0000
00078E0000
00078E0000
0000700000
0000700000
0000700000
0000700000
00078E0000
00078E0000
00078E0000
ENDCHAR
STARTCHAR 0055
ENCODING 85
SWIDTH 795 0
DWIDTH 53 0
BBX 43 50 5 0
BITMAP
E1C0000078E0
E1C0000078E0
E1C0000078E0
1E0000000700
1E0000000700
1E0000000700
1E0000000700
E1C0000078E0
E1C0000078E0
E1C0000078E0
1E0000000700
1E0000000700
1E0000000700
E1C0000078E0
E1C0000078E0
E1C0000078E0
E1C0000078E0
1E0000000700
1E0000000700
1E0000000700
E1C0000078E0
E1C0000078E0
E1C0000078E0
1E0000000700
1E0000000700
1E0000000700
1E0000000700
E1C0000078E0
E1C0000078E0
E1C0000078E0
1E0000000700
1E0000000700
1E0000000700
E1C0000078E0
E1C0000078E0
E1C0000078E0
E1C0000078E0
1E3800038700
1E3800038700
1E3800038700
01C78E1C7800
01C78E1C7800
01C78E1C7800
003871E38000
003871E38000
003871E38000
003871E38000
00078E1C0000
00078E1C0000
00078E1C0000
ENDCHAR
STARTCHAR 0056
ENCODING 86
SWIDTH 690 0
DWIDTH 46 0
BBX 37 50 5 0
BITMAP
E1C0001C78
E1C0001C78
E1C0001C78
1E00000380
1E00000380
1E00000380
1E00000380
E1C0001C78
E1C0001C78
E1C0001C78
1E00000380
1E00000380
1E00000380
E1C0001C78
E1C0001C78
E1C0001C78
E1C0001C78
1E00000380
1E00000380
1E00000380
E1C0001C78
E1C0001C78
E1C0001C78
1E00000380
1E00000380
1E00000380
1E00000380
E1C0001C78
E1C0001C78
E1C0001C78
1E00000380
1E00000380
1E00000380
E1C0001C78
E1C0001C78
E1C0001C78
E1C0001C78
1E3801E380
1E3801E380
1E3801E380
01C78E1C00
01C78E1C00
01C78E1C00
003871E000
003871E000
003871E000
003871E000
00078E0000
00078E0000
00078E0000
ENDCHAR
STARTCHAR 0057
ENCODING 87
SWIDTH 1095 0
DWIDTH 73 0
BBX 63 50 5 0
BITMAP
E1C0001C7800078E
E1C0001C7800078E
E1C0001C7800078E
1E00000380000070
1E00000380000070
1E00000380000070
1E00000380000070
E1C0001C7800078E
E1C0001C7800078E
E1C0001C7800078E
1E00000380000070
1E00000380000070
1E00000380000070
E1C0001C7800078E
E1C0001C7800078E
E1C0001C7800078E
E1C0001C7800078E
1E00000380000070
1E00000380000070
1E00000380000070
E1C0001C7800078E
E1C0001C7800078E
E1C0001C7800078E
1E00000380000070
1E00000380000070
1E00000380000070
1E00000380000070
E1C0001C7800078E
E1C0001C7800078E
E1C0001C7800078E
1E00000380000070
1E00000380000070
1E00000380000070
E1C0001C7800078E
E1C0001C7800078E
E1C0001C7800078E
E1C0001C7800078E
1E3801E387003870
1E3801E387003870
1E3801E387003870
01C78E1C78E1C780
01C78E1C78E1C780
01C78E1C78E1C780
003871E0071E3800
003871E0071E3800
003871E0071E3800
003871E0071E3800
00078E0000E1C000
00078E0000E1C000
00078E0000E1C000
ENDCHAR
STARTCHAR 0058
ENCODING 88
SWIDTH 795 0
DWIDTH 53 0
BBX 43 50 5 0
BITMAP
E1C0000078E0
E1C0000078E0
E1C0000078E0
1E0000000700
1E0000000700
1E0000000700
1E0000000700
E1C0000078E0
E1C0000078E0
E1C0000078E0
1E0000000700
1E0000000700
1E0000000700
E1C0000078E0
E1C0000078E0
E1C0000078E0
E1C0000078E0
1E3800038700
1E3800038700
1E3800038700
01C78E1C7800
01C78E1C7800
01C78E1C7800
003871E38000
003871E38000
003871E38000
003871E38000
01C78E1C7800
01C78E1C7800
01C78E1C7800
1E3800038700
1E3800038700
1E3800038700
E1C0000078E0
E1C0000078E0
E1C0000078E0
E1C0000078E0
1E0000000700
1E0000000700
1E0000000700
E1C0000078E0
E1C0000078E0
E1C0000078E0
1E0000000700
1E0000000700
1E0000000700
1E0000000700
E1C0000078E0
E1C0000078E0
E1C0000078E0
ENDCHAR
STARTCHAR 0059
ENCODING 89
SWIDTH 690 0
DWIDTH 46 0
BBX 37 50 5 0
BITMAP
E1C0001C78
E1C0001C78
E1C0001C78
1E00000380
1E00000380
1E00000380
1E00000380
E1C0001C78
E1C0001C78
E1C0001C78
1E00000380
1E00000380
1E00000380
E1C0001C78
E1C0001C78
E1C0001C78
E1C0001C78
1E00000380
1E00000380
1E00000380
E1C0001C78
E1C0001C78
E1C0001C78
1E3801E380
1E3801E380
1E3801E380
1E3801E380
01C78E1C00
01C78E1C00
01C78E1C00
003871E000
003871E000
003871E000
00078E0000
00078E0000
00078E0000
00078E0000
0000700000
0000700000
0000700000
00078E0000
00078E0000
00078E0000
0000700000
0000700000
0000700000
0000700000
00078E0000
00078E0000
00078E0000
ENDCHAR
STARTCHAR 005A
ENCODING 90
SWIDTH 690 0
DWIDTH 46 0
BBX 37 50 5 0
BITMAP
E1C78E1C78
E1C78E1C78
E1C78E1C78
1E3871E380
1E3871E380
1E3871E380
1E3871E380
E1C78E1C78
E1C78E1C78
E1C78E1C78
000001E380
000001E380
000001E380
00000E1C00
00000E1C00
00000E1C00
00000E1C00
000071E000
000071E000
000071E000
00078E0000
00078E0000
00078E0000
0038700000
0038700000
0038700000
0038700000
01C7800000
01C7800000
01C7800000
1E38000000
1E38000000
1E38000000
E1C0000000
E1C0000000
E1C0000000
E1C0000000
1E00000000
1E00000000
1E00000000
E1C78E1C78
E1C78E1C78
E1C78E1C78
1E3871E380
1E3871E380
1E3871E380
1E3871E380
E1C78E1C78
E1C78E1C78
E1C78E1C78
ENDCHAR
STARTCHAR 005B
ENCODING 91
SWIDTH 345 0
DWIDTH 23 0
BBX 17 76 5 -13
BITMAP
E1C780
E1C780
E1C780
1E3800
1E3800
1E3800
E1C780
E1C780
E1C780
E1C780
1E0000
1E0000
1E0000
E1C000
E1C000
E1C000
1E0000
1E0000
1E0000
1E0000
E1C000
E1C000
E1C000
1E0000
1E0000
1E0000
E1C000
E1C000
E1C000
E1C000
1E0000
1E0000
1E0000
E1C000
E1C000
E1C000
1E0000
1E0000
1E0000
1E0000
E1C000
E1C000
E1C000
1E0000
1E0000
1E0000
E1C000
E1C000
E1C000
E1C000
1E0000
1E0000
1E0000
E1C000
E1C000
E1C000
1E0000
1E0000
1E0000
1E0000
E1C000
E1C000
E1C000
1E0000
1E0000
1E0000
E1C780
E1C780
E1C780
E1C780
1E3800
1E3800
1E3800
E1C780
E1C780
E1C780
ENDCHAR
STARTCHAR 005C
ENCODING 92
SWIDTH 390 0
DWIDTH 26 0
BBX 23 50 2 0
BITMAP
E3C000
E3C000
E3C000
1C0000
1C0000
1C0000
1C0000
E3C000
E3C000
E3C000
1C3800
1C3800
1C3800
03C000
03C000
03C000
03C000
1C3800
1C3800
1C3800
03C700
03C700
03C700
003800
003800
003800
003800
03C700
03C700
03C700
0038F0
0038F0
0038F0
000700
000700
000700
000700
0038F0
0038F0
0038F0
00070E
00070E
00070E
0000F0
0000F0
0000F0
0000F0
00070E
00070E
00070E
ENDCHAR
STARTCHAR 005D
ENCODING 93
SWIDTH 345 0
DWIDTH 23 0
BBX 16 76 2 -13
BITMAP
E3C7
E3C7
E3C7
1C38
1C38
1C38
E3C7
E3C7
E3C7
E3C7
0038
0038
0038
03C7
03C7
03C7
0038
0038
0038
0038
03C7
03C7
03C7
0038
0038
0038
03C7
03C7
03C7
03C7
0038
0038
0038
03C7
03C7
03C7
0038
0038
0038
0038
03C7
03C7
03C7
0038
0038
0038
03C7
03C7
03C7
03C7
0038
0038
0038
03C7
03C7
03C7
0038
0038
0038
0038
03C7
03C7
03C7
0038
0038
0038
E3C7
E3C7
E3C7
E3C7
1C38
1C38
1C38
E3C7
E3C7
E3C7
ENDCHAR
STARTCHAR 005F
ENCODING 95
SWIDTH 795 0
DWIDTH 53 0
BBX 50 10 2 -7
BITMAP
E3C70E3C70E3C0
E3C70E3C70E3C0
E3C70E3C70E3C0
1C38F1C38F1C00
1C38F1C38F1C00
1C38F1C38F1C00
E3C70E3C70E3C0
E3C70E3C70E3C0
E3C70E3C70E3C0
E3C70E3C70E3C0
ENDCHAR
STARTCHAR 0060
ENCODING 96
SWIDTH 345 0
DWIDTH 23 0
BBX 23 17 -5 53
BITMAP
E1C000
E1C000
E1C000
1E3800
1E3800
1E3800
1E3800
01C780
01C780
01C780
003870
003870
003870
00078E
00078E
00078E
00078E
ENDCHAR
STARTCHAR 0061
ENCODING 97
SWIDTH 690 0
DWIDTH 46 0
BBX 37 50 5 0
BITMAP
01C78E1C00
01C78E1C00
01C78E1C00
1E3871E380
1E3871E380
1E3871E380
1E3871E380
E1C78E1C78
E1C78E1C78
E1C78E1C78
1E00000380
1E00000380
1E00000380
E1C0001C78
E1C0001C78
E1C0001C78
E1C0001C78
1E00000380
1E00000380
1E00000380
E1C0001C78
E1C0001C78
E1C0001C78
1E00000380
1E00000380
1E00000380
1E00000380
E1C78E1C78
E1C78E1C78
E1C78E1C78
1E3871E380
1E3871E380
1E3871E380
E1C78E1C78
E1C78E1C78
E1C78E1C78
E1C78E1C78
1E00000380
1E00000380
1E00000380
E1C0001C78
E1C0001C78
E1C0001C78
1E00000380
1E00000380
1E00000380
1E00000380
E1C0001C78
E1C0001C78
E1C0001C78
ENDCHAR
STARTCHAR 0062
ENCODING 98
SWIDTH 690 0
DWIDTH 46 0
BBX 37 50 5 0
BITMAP
E1C78E1C00
E1C78E1C00
E1C78E1C00
1E3871E380
1E3871E380
1E3871E380
1E3871E380
E1C78E1C78
E1C78E1C78
E1C78E1C78
1E00000380
1E00000380
1E00000380
E1C0001C78
E1C0001C78
E1C0001C78
E1C0001C78
1E0001E380
1E0001E380
1E0001E380
E1C78E1C00
E1C78E1C00
E1C78E1C00
1E3871E000
1E3871E000
1E3871E000
1E3871E000
E1C78E1C00
E1C78E1C00
E1C78E1C00
1E0001E380
1E0001E380
1E0001E380
E1C0001C78
E1C0001C78
E1C0001C78
E1C0001C78
1E00000380
1E00000380
1E00000380
E1C78E1C78
E1C78E1C78
E1C78E1C78
1E3871E380
1E3871E380
1E3871E380
1E3871E380
E1C78E1C00
E1C78E1C00
E1C78E1C00
ENDCHAR
STARTCHAR 0063
ENCODING 99
SWIDTH 690 0
DWIDTH 46 0
BBX 37 50 5 0
BITMAP
01C78E1C00
01C78E1C00
01C78E1C00
1E3871E380
1E3871E380
1E3871E380
1E3871E380
E1C78E1C78
E1C78E1C78
E1C78E1C78
1E00000380
1E00000380
1E00000380
E1C0001C78
E1C0001C78
E1C0001C78
E1C0001C78
1E00000380
1E00000380
1E00000380
E1C0001C78
E1C0001C78
E1C0001C78
1E00000000
1E00000000
1E00000000
1E00000000
E1C0000000
E1C0000000
E1C0000000
1E00000000
1E00000000
1E00000000
E1C0001C78
E1C0001C78
E1C0001C78
E1C0001C78
1E00000380
1E00000380
1E00000380
E1C78E1C78
E1C78E1C78
E1C78E1C78
1E3871E380
1E3871E380
1E3871E380
1E3871E380
01C78E1C00
01C78E1C00
01C78E1C00
ENDCHAR
STARTCHAR 0064
ENCODING 100
SWIDTH 690 0
DWIDTH 46 0
BBX 37 50 5 0
BITMAP
E1C78E1C00
E1C78E1C00
E1C78E1C00
1E3871E380
1E3871E380
1E3871E380
1E3871E380
E1C78E1C78
E1C78E1C78
E1C78E1C78
1E00000380
1E00000380
1E00000380
E1C0001C78
E1C0001C78
E1C0001C78
E1C0001C78
1E00000380
1E00000380
1E00000380
E1C0001C78
E1C0001C78
E1C0001C78
1E00000380
1E00000380
1E00000380
1E00000380
E1C0001C78
E1C0001C78
E1C0001C78
1E00000380
1E00000380
1E00000380
E1C0001C78
E1C0001C78
E1C0001C78
E1C0001C78
1E00000380
1E00000380
1E00000380
E1C78E1C78
E1C78E1C78
E1C78E1C78
1E3871E380
1E3871E380
1E3871E380
1E3871E380
E1C78E1C00
E1C78E1C00
E1C78E1C00
ENDCHAR
STARTCHAR 0065
ENCODING 101
SWIDTH 690 0
DWIDTH 46 0
BBX 37 50 5 0
BITMAP
01C78E1C78
01C78E1C78
01C78E1C78
1E3871E380
1E3871E380
1E3871E380
1E3871E380
E1C78E1C78
E1C78E1C78
E1C78E1C78
1E00000000
1E00000000
1E00000000
E1C0000000
E1C0000000
E1C0000000
E1C0000000
1E00000000
1E00000000
1E00000000
E1C78E1C00
E1C78E1C00
E1C78E1C00
1E3871E000
1E3871E000
1E3871E000
1E3871E000
E1C78E1C00
E1C78E1C00
E1C78E1C00
1E00000000
1E00000000
1E00000000
E1C0000000
E1C0000000
E1C0000000
E1C0000000
1E00000000
1E00000000
1E00000000
E1C78E1C78
E1C78E1C78
E1C78E1C78
1E3871E380
1E3871E380
1E3871E380
1E3871E380
01C78E1C78
01C78E1C78
01C78E1C78
ENDCHAR
STARTCHAR 0066
ENCODING 102
SWIDTH 690 0
DWIDTH 46 0
BBX 37 50 5 0
BITMAP
01C78E1C78
01C78E1C78
01C78E1C78
1E3871E380
1E3871E380
1E3871E380
1E3871E380
E1C78E1C78
E1C78E1C78
E1C78E1C78
1E00000000
1E00000000
1E00000000
E1C0000000
E1C0000000
E1C0000000
E1C0000000
1E00000000
1E00000000
1E00000000
E1C78E1C00
E1C78E1C00
E1C78E1C00
1E3871E000
1E3871E000
1E3871E000
1E3871E000
E1C78E1C00
E1C78E1C00
E1C78E1C00
1E00000000
1E00000000
1E00000000
E1C0000000
E1C0000000
E1C0000000
E1C0000000
1E00000000
1E00000000
1E00000000
E1C0000000
E1C0000000
E1C0000000
1E00000000
1E00000000
1E00000000
1E00000000
E1C0000000
E1C0000000
E1C0000000
ENDCHAR
STARTCHAR 0067
ENCODING 103
SWIDTH 690 0
DWIDTH 46 0
BBX 37 50 5 0
BITMAP
01C78E1C78
01C78E1C78
01C78E1C78
1E3871E380
1E3871E380
1E3871E380
1E3871E380
E1C78E1C78
E1C78E1C78
E1C78E1C78
1E00000000
1E00000000
1E00000000
E1C0000000
E1C0000000
E1C0000000
E1C0000000
1E00000000
1E00000000
1E00000000
E1C00E1C78
E1C00E1C78
E1C00E1C78
1E0001E380
1E0001E380
1E0001E380
1E0001E380
E1C00E1C78
E1C00E1C78
E1C00E1C78
1E00000380
1E00000380
1E00000380
E1C0001C78
E1C0001C78
E1C0001C78
E1C0001C78
1E00000380
1E00000380
1E00000380
E1C78E1C78
E1C78E1C78
E1C78E1C78
1E3871E380
1E3871E380
1E3871E380
1E3871E380
01C78E1C00
01C78E1C00
01C78E1C00
ENDCHAR
STARTCHAR 0068
ENCODING 104
SWIDTH 690 0
DWIDTH 46 0
BBX 37 50 5 0
BITMAP
E1C0001C78
E1C0001C78
E1C0001C78
1E00000380
1E00000380
1E00000380
1E00000380
E1C0001C78
E1C0001C78
E1C0001C78
1E00000380
1E00000380
1E00000380
E1C0001C78
E1C0001C78
E1C0001C78
E1C0001C78
1E00000380
1E00000380
1E00000380
E1C78E1C78
E1C78E1C78
E1C78E1C78
1E3871E380
1E3871E380
1E3871E380
1E3871E380
E1C78E1C78
E1C78E1C78
E1C78E1C78
1E00000380
1E00000380
1E00000380
E1C0001C78
E1C0001C78
E1C0001C78
E1C0001C78
1E00000380
1E00000380
1E00000380
E1C0001C78
E1C0001C78
E1C0001C78
1E00000380
1E00000380
1E00000380
1E00000380
E1C0001C78
E1C0001C78
E1C0001C78
ENDCHAR
STARTCHAR 0069
ENCODING 105
SWIDTH 300 0
DWIDTH 20 0
BBX 10 50 5 0
BITMAP
E1C0
E1C0
E1C0
1E00
1E00
1E00
1E00
E1C0
E1C0
E1C0
1E00
1E00
1E00
E1C0
E1C0
E1C0
E1C0
1E00
1E00
1E00
E1C0
E1C0
E1C0
1E00
1E00
1E00
1E00
E1C0
E1C0
E1C0
1E00
1E00
1E00
E1C0
E1C0
E1C0
E1C0
1E00
1E00
1E00
E1C0
E1C0
E1C0
1E00
1E00
1E00
1E00
E1C0
E1C0
E1C0
ENDCHAR
STARTCHAR 006A
ENCODING 106
SWIDTH 495 0
DWIDTH 33 0
BBX 23 50 5 0
BITMAP
00078E
00078E
00078E
000070
000070
000070
000070
00078E
00078E
00078E
000070
000070
000070
00078E
00078E
00078E
00078E
000070
000070
000070
00078E
00078E
00078E
000070
000070
000070
000070
00078E
00078E
00078E
000070
000070
000070
00078E
00078E
00078E
00078E
000070
000070
000070
E1C78E
E1C78E
E1C78E
1E3870
1E3870
1E3870
1E3870
E1C780
E1C780
E1C780
ENDCHAR
STARTCHAR 006B
ENCODING 107
SWIDTH 690 0
DWIDTH 46 0
BBX 37 50 5 0
BITMAP
E1C0001C78
E1C0001C78
E1C0001C78
1E00000380
1E00000380
1E00000380
1E00000380
E1C0001C78
E1C0001C78
E1C0001C78
1E00000380
1E00000380
1E00000380
E1C0001C78
E1C0001C78
E1C0001C78
E1C0001C78
1E0001E380
1E0001E380
1E0001E380
E1C78E1C00
E1C78E1C00
E1C78E1C00
1E3871E000
1E3871E000
1E3871E000
1E3871E000
E1C78E1C00
E1C78E1C00
E1C78E1C00
1E0001E380
1E0001E380
1E0001E380
E1C0001C78
E1C0001C78
E1C0001C78
E1C0001C78
1E00000380
1E00000380
1E00000380
E1C0001C78
E1C0001C78
E1C0001C78
1E00000380
1E00000380
1E00000380
1E00000380
E1C0001C78
E1C0001C78
E1C0001C78
ENDCHAR
STARTCHAR 006C
ENCODING 108
SWIDTH 600 0
DWIDTH 40 0
BBX 30 50 5 0
BITMAP
E1C00000
E1C00000
E1C00000
1E000000
1E000000
1E000000
1E000000
E1C00000
E1C00000
E1C00000
1E000000
1E000000
1E000000
E1C00000
E1C00000
E1C00000
E1C00000
1E000000
1E000000
1E000000
E1C00000
E1C00000
E1C00000
1E000000
1E000000
1E000000
1E000000
E1C00000
E1C00000
E1C00000
1E000000
1E000000
1E000000
E1C00000
E1C00000
E1C00000
E1C00000
1E000000
1E000000
1E000000
E1C78E1C
E1C78E1C
E1C78E1C
1E3871E0
1E3871E0
1E3871E0
1E3871E0
01C78E1C
01C78E1C
01C78E1C
ENDCHAR
STARTCHAR 006D
ENCODING 109
SWIDTH 900 0
DWIDTH 60 0
BBX 50 50 5 0
BITMAP
E1C0000000E1C0
E1C0000000E1C0
E1C0000000E1C0
1E380000071E00
1E380000071E00
1E380000071E00
1E380000071E00
E1C7800078E1C0
E1C7800078E1C0
E1C7800078E1C0
1E387003871E00
1E387003871E00
1E387003871E00
E1C78E1C78E1C0
E1C78E1C78E1C0
E1C78E1C78E1C0
E1C78E1C78E1C0
1E0071E3801E00
1E0071E3801E00
1E0071E3801E00
E1C00E1C00E1C0
E1C00E1C00E1C0
E1C00E1C00E1C0
1E0001E0001E00
1E0001E0001E00
1E0001E0001E00
1E0001E0001E00
E1C0000000E1C0
E1C0000000E1C0
E1C0000000E1C0
1E000000001E00
1E000000001E00
1E000000001E00
E1C0000000E1C0
E1C0000000E1C0
E1C0000000E1C0
E1C0000000E1C0
1E000000001E00
1E000000001E00
1E000000001E00
E1C0000000E1C0
E1C0000000E1C0
E1C0000000E1C0
1E000000001E00
1E000000001E00
1E000000001E00
1E000000001E00
E1C0000000E1C0
E1C0000000E1C0
E1C0000000E1C0
ENDCHAR
STARTCHAR 006E
ENCODING 110
SWIDTH 690 0
DWIDTH 46 0
BBX 37 50 5 0
BITMAP
E1C0001C78
E1C0001C78
E1C0001C78
1E38000380
1E38000380
1E38000380
1E38000380
E1C7801C78
E1C7801C78
E1C7801C78
1E38700380
1E38700380
1E38700380
E1C78E1C78
E1C78E1C78
E1C78E1C78
E1C78E1C78
1E0071E380
1E0071E380
1E0071E380
E1C00E1C78
E1C00E1C78
E1C00E1C78
1E0001E380
1E0001E380
1E0001E380
1E0001E380
E1C0001C78
E1C0001C78
E1C0001C78
1E00000380
1E00000380
1E00000380
E1C0001C78
E1C0001C78
E1C0001C78
E1C0001C78
1E00000380
1E00000380
1E00000380
E1C0001C78
E1C0001C78
E1C0001C78
1E00000380
1E00000380
1E00000380
1E00000380
E1C0001C78
E1C0001C78
E1C0001C78
ENDCHAR
STARTCHAR 006F
ENCODING 111
SWIDTH 690 0
DWIDTH 46 0
BBX 37 50 5 0
BITMAP
01C78E1C00
01C78E1C00
01C78E1C00
1E3871E380
1E3871E380
1E3871E380
1E3871E380
E1C78E1C78
E1C78E1C78
E1C78E1C78
1E00000380
1E00000380
1E00000380
E1C0001C78
E1C0001C78
E1C0001C78
E1C0001C78
1E00000380
1E00000380
1E00000380
E1C0001C78
E1C0001C78
E1C0001C78
1E00000380
1E00000380
1E00000380
1E00000380
E1C0001C78
E1C0001C78
E1C0001C78
1E00000380
1E00000380
1E00000380
E1C0001C78
E1C0001C78
E1C0001C78
E1C0001C78
1E00000380
1E00000380
1E00000380
E1C78E1C78
E1C78E1C78
E1C78E1C78
1E3871E380
1E3871E380
1E3871E380
1E3871E380
01C78E1C00
01C78E1C00
01C78E1C00
ENDCHAR
STARTCHAR 0070
ENCODING 112
SWIDTH 690 0
DWIDTH 46 0
BBX 37 50 5 0
BITMAP
E1C78E1C00
E1C78E1C00
E1C78E1C00
1E3871E380
1E3871E380
1E3871E380
1E3871E380
E1C78E1C78
E1C78E1C78
E1C78E1C78
1E00000380
1E00000380
1E00000380
E1C0001C78
E1C0001C78
E1C0001C78
E1C0001C78
1E00000380
1E00000380
1E00000380
E1C0001C78
E1C0001C78
E1C0001C78
1E00000380
1E00000380
1E00000380
1E00000380
E1C78E1C78
E1C78E1C78
E1C78E1C78
1E3871E380
1E3871E380
1E3871E380
E1C78E1C00
E1C78E1C00
E1C78E1C00
E1C78E1C00
1E00000000
1E00000000
1E00000000
E1C0000000
E1C0000000
E1C0000000
1E00000000
1E00000000
1E00000000
1E00000000
E1C0000000
E1C0000000
E1C0000000
ENDCHAR
STARTCHAR 0071
ENCODING 113
SWIDTH 690 0
DWIDTH 46 0
BBX 37 57 5 -7
BITMAP
01C78E1C00
01C78E1C00
01C78E1C00
1E3871E380
1E3871E380
1E3871E380
1E3871E380
E1C78E1C78
E1C78E1C78
E1C78E1C78
1E00000380
1E00000380
1E00000380
E1C0001C78
E1C0001C78
E1C0001C78
E1C0001C78
1E00000380
1E00000380
1E00000380
E1C0001C78
E1C0001C78
E1C0001C78
1E00000380
1E00000380
1E00000380
1E00000380
E1C0001C78
E1C0001C78
E1C0001C78
1E00000380
1E00000380
1E00000380
E1C0001C78
E1C0001C78
E1C0001C78
E1C0001C78
1E00000380
1E00000380
1E00000380
E1C78E1C78
E1C78E1C78
E1C78E1C78
1E3871E380
1E3871E380
1E3871E380
1E3871E380
01C78E1C00
01C78E1C00
01C78E1C00
000001E380
000001E380
000001E380
0000001C78
0000001C78
0000001C78
0000001C78
ENDCHAR
STARTCHAR 0072
ENCODING 114
SWIDTH 690 0
DWIDTH 46 0
BBX 37 50 5 0
BITMAP
E1C78E1C00
E1C78E1C00
E1C78E1C00
1E3871E380
1E3871E380
1E3871E380
1E3871E380
E1C78E1C78
E1C78E1C78
E1C78E1C78
1E00000380
1E00000380
1E00000380
E1C0001C78
E1C0001C78
E1C0001C78
E1C0001C78
1E00000380
1E00000380
1E00000380
E1C0001C78
E1C0001C78
E1C0001C78
1E00000380
1E00000380
1E00000380
1E00000380
E1C78E1C78
E1C78E1C78
E1C78E1C78
1E3871E380
1E3871E380
1E3871E380
E1C78E1C00
E1C78E1C00
E1C78E1C00
E1C78E1C00
1E0001E380
1E0001E380
1E0001E380
E1C0001C78
E1C0001C78
E1C0001C78
1E00000380
1E00000380
1E00000380
1E00000380
E1C0001C78
E1C0001C78
E1C0001C78
ENDCHAR
STARTCHAR 0073
ENCODING 115
SWIDTH 690 0
DWIDTH 46 0
BBX 37 50 5 0
BITMAP
01C78E1C00
01C78E1C00
01C78E1C00
1E3871E380
1E3871E380
1E3871E380
1E3871E380
E1C78E1C78
E1C78E1C78
E1C78E1C78
1E00000380
1E00000380
1E00000380
E1C0001C78
E1C0001C78
E1C0001C78
E1C0001C78
1E00000000
1E00000000
1E00000000
E1C78E1C00
E1C78E1C00
E1C78E1C00
1E3871E380
1E3871E380
1E3871E380
1E3871E380
01C78E1C78
01C78E1C78
01C78E1C78
0000000380
0000000380
0000000380
E1C0001C78
E1C0001C78
E1C0001C78
E1C0001C78
1E00000380
1E00000380
1E00000380
E1C78E1C78
E1C78E1C78
E1C78E1C78
1E3871E380
1E3871E380
1E3871E380
1E3871E380
01C78E1C00
01C78E1C00
01C78E1C00
ENDCHAR
STARTCHAR 0074
ENCODING 116
SWIDTH 690 0
DWIDTH 46 0
BBX 37 50 5 0
BITMAP
E1C78E1C78
E1C78E1C78
E1C78E1C78
1E3871E380
1E3871E380
1E3871E380
1E3871E380
E1C78E1C78
E1C78E1C78
E1C78E1C78
0000700000
0000700000
0000700000
00078E0000
00078E0000
00078E0000
00078E0000
0000700000
0000700000
0000700000
00078E0000
00078E0000
00078E0000
0000700000
0000700000
0000700000
0000700000
00078E0000
00078E0000
00078E0000
0000700000
0000700000
0000700000
00078E0000
00078E0000
00078E0000
00078E0000
0000700000
0000700000
0000700000
00078E0000
00078E0000
00078E0000
0000700000
0000700000
0000700000
0000700000
00078E0000
00078E0000
00078E0000
ENDCHAR
STARTCHAR 0075
ENCODING 117
SWIDTH 690 0
DWIDTH 46 0
BBX 37 50 5 0
BITMAP
E1C0001C78
E1C0001C78
E1C0001C78
1E00000380
1E00000380
1E00000380
1E00000380
E1C0001C78
E1C0001C78
E1C0001C78
1E00000380
1E00000380
1E00000380
E1C0001C78
E1C0001C78
E1C0001C78
E1C0001C78
1E00000380
1E00000380
1E00000380
E1C0001C78
E1C0001C78
E1C0001C78
1E00000380
1E00000380
1E00000380
1E00000380
E1C0001C78
E1C0001C78
E1C0001C78
1E00000380
1E00000380
1E00000380
E1C0001C78
E1C0001C78
E1C0001C78
E1C0001C78
1E00000380
1E00000380
1E00000380
E1C78E1C78
E1C78E1C78
E1C78E1C78
1E3871E380
1E3871E380
1E3871E380
1E3871E380
01C78E1C00
01C78E1C00
01C78E1C00
ENDCHAR
STARTCHAR 0076
ENCODING 118
SWIDTH 690 0
DWIDTH 46 0
BBX 37 50 5 0
BITMAP
E1C0001C78
E1C0001C78
E1C0001C78
1E00000380
1E00000380
1E00000380
1E00000380
E1C0001C78
E1C0001C78
E1C0001C78
1E00000380
1E00000380
1E00000380
E1C0001C78
E1C0001C78
E1C0001C78
E1C0001C78
1E00000380
1E00000380
1E00000380
E1C0001C78
E1C0001C78
E1C0001C78
1E00000380
1E00000380
1E00000380
1E00000380
E1C0001C78
E1C0001C78
E1C0001C78
1E00000380
1E00000380
1E00000380
E1C0001C78
E1C0001C78
E1C0001C78
E1C0001C78
1E3801E380
1E3801E380
1E3801E380
01C78E1C00
01C78E1C00
01C78E1C00
003871E000
003871E000
003871E000
003871E000
00078E0000
00078E0000
00078E0000
ENDCHAR
STARTCHAR 0077
ENCODING 119
SWIDTH 1095 0
DWIDTH 73 0
BBX 63 50 5 0
BITMAP
E1C0001C7800078E
E1C0001C7800078E
E1C0001C7800078E
1E00000380000070
1E00000380000070
1E00000380000070
1E00000380000070
E1C0001C7800078E
E1C0001C7800078E
E1C0001C7800078E
1E00000380000070
1E00000380000070
1E00000380000070
E1C0001C7800078E
E1C0001C7800078E
E1C0001C7800078E
E1C0001C7800078E
1E00000380000070
1E00000380000070
1E00000380000070
E1C0001C7800078E
E1C0001C7800078E
E1C0001C7800078E
1E00000380000070
1E00000380000070
1E00000380000070
1E00000380000070
E1C0001C7800078E
E1C0001C7800078E
E1C0001C7800078E
1E00000380000070
1E00000380000070
1E00000380000070
E1C0001C7800078E
E1C0001C7800078E
E1C0001C7800078E
E1C0001C7800078E
1E0001E387000070
1E0001E387000070
1E0001E387000070
E1C78E1C78E1C78E
E1C78E1C78E1C78E
E1C78E1C78E1C78E
1E3871E0071E3870
1E3871E0071E3870
1E3871E0071E3870
1E3871E0071E3870
01C78E0000E1C780
01C78E0000E1C780
01C78E0000E1C780
ENDCHAR
STARTCHAR 0078
ENCODING 120
SWIDTH 690 0
DWIDTH 46 0
BBX 37 50 5 0
BITMAP
E1C0001C78
E1C0001C78
E1C0001C78
1E00000380
1E00000380
1E00000380
1E00000380
E1C0001C78
E1C0001C78
E1C0001C78
1E00000380
1E00000380
1E00000380
E1C0001C78
E1C0001C78
E1C0001C78
E1C0001C78
1E3801E380
1E3801E380
1E3801E380
01C78E1C00
01C78E1C00
01C78E1C00
003871E000
003871E000
003871E000
003871E000
01C78E1C00
01C78E1C00
01C78E1C00
1E3801E380
1E3801E380
1E3801E380
E1C0001C78
E1C0001C78
E1C0001C78
E1C0001C78
1E00000380
1E00000380
1E00000380
E1C0001C78
E1C0001C78
E1C0001C78
1E00000380
1E00000380
1E00000380
1E00000380
E1C0001C78
E1C0001C78
E1C0001C78
ENDCHAR
STARTCHAR 0079
ENCODING 121
SWIDTH 690 0
DWIDTH 46 0
BBX 37 50 5 0
BITMAP
E1C0001C78
E1C0001C78
E1C0001C78
1E00000380
1E00000380
1E00000380
1E00000380
E1C0001C78
E1C0001C78
E1C0001C78
1E00000380
1E00000380
1E00000380
E1C0001C78
E1C0001C78
E1C0001C78
E1C0001C78
1E00000380
1E00000380
1E00000380
E1C0001C78
E1C0001C78
E1C0001C78
1E00000380
1E00000380
1E00000380
1E00000380
E1C78E1C78
E1C78E1C78
E1C78E1C78
1E3871E380
1E3871E380
1E3871E380
01C78E1C00
01C78E1C00
01C78E1C00
01C78E1C00
0000700000
0000700000
0000700000
00078E0000
00078E0000
00078E0000
0000700000
0000700000
0000700000
0000700000
00078E0000
00078E0000
00078E0000
ENDCHAR
STARTCHAR 007A
ENCODING 122
SWIDTH 690 0
DWIDTH 46 0
BBX 37 50 5 0
BITMAP
E1C78E1C78
E1C78E1C78
E1C78E1C78
1E3871E380
1E3871E380
1E3871E380
1E3871E380
E1C78E1C78
E1C78E1C78
E1C78E1C78
0000000380
0000000380
0000000380
0000001C78
0000001C78
0000001C78
0000001C78
0000000380
0000000380
0000000380
01C78E1C78
01C78E1C78
01C78E1C78
1E3871E380
1E3871E380
1E3871E380
1E3871E380
E1C78E1C00
E1C78E1C00
E1C78E1C00
1E00000000
1E00000000
1E00000000
E1C0000000
E1C0000000
E1C0000000
E1C0000000
1E00000000
1E00000000
1E00000000
E1C78E1C78
E1C78E1C78
E1C78E1C78
1E3871E380
1E3871E380
1E3871E380
1E3871E380
E1C78E1C78
E1C78E1C78
E1C78E1C78
ENDCHAR
STARTCHAR 007B
ENCODING 123
SWIDTH 390 0
DWIDTH 26 0
BBX 26 76 2 -13
BITMAP
0000F1C0
0000F1C0
0000F1C0
00070E00
00070E00
00070E00
0038F000
0038F000
0038F000
0038F000
00070000
00070000
00070000
0038F000
0038F000
0038F000
00070000
00070000
00070000
00070000
0038F000
0038F000
0038F000
00070000
00070000
00070000
0038F000
0038F000
0038F000
0038F000
03C70000
03C70000
03C70000
1C380000
1C380000
1C380000
E3C00000
E3C00000
E3C00000
E3C00000
1C380000
1C380000
1C380000
03C70000
03C70000
03C70000
0038F000
0038F000
0038F000
0038F000
00070000
00070000
00070000
0038F000
0038F000
0038F000
00070000
00070000
00070000
00070000
0038F000
0038F000
0038F000
00070000
00070000
00070000
0038F000
0038F000
0038F000
0038F000
00070E00
00070E00
00070E00
0000F1C0
0000F1C0
0000F1C0
ENDCHAR
STARTCHAR 007C
ENCODING 124
SWIDTH 300 0
DWIDTH 20 0
BBX 10 64 5 -7
BITMAP
E1C0
E1C0
E1C0
E1C0
1E00
1E00
1E00
E1C0
E1C0
E1C0
1E00
1E00
1E00
1E00
E1C0
E1C0
E1C0
1E00
1E00
1E00
E1C0
E1C0
E1C0
E1C0
1E00
1E00
1E00
E1C0
E1C0
E1C0
1E00
1E00
1E00
1E00
E1C0
E1C0
E1C0
1E00
1E00
1E00
E1C0
E1C0
E1C0
E1C0
1E00
1E00
1E00
E1C0
E1C0
E1C0
1E00
1E00
1E00
1E00
E1C0
E1C0
E1C0
1E00
1E00
1E00
E1C0
E1C0
E1C0
E1C0
ENDCHAR
STARTCHAR 007D
ENCODING 125
SWIDTH 390 0
DWIDTH 26 0
BBX 27 76 -2 -13
BITMAP
F1C00000
F1C00000
F1C00000
0E3C0000
0E3C0000
0E3C0000
01C38000
01C38000
01C38000
01C38000
003C0000
003C0000
003C0000
01C38000
01C38000
01C38000
003C0000
003C0000
003C0000
003C0000
01C38000
01C38000
01C38000
003C0000
003C0000
003C0000
01C38000
01C38000
01C38000
01C38000
003C7000
003C7000
003C7000
00038F00
00038F00
00038F00
000070E0
000070E0
000070E0
000070E0
00038F00
00038F00
00038F00
003C7000
003C7000
003C7000
01C38000
01C38000
01C38000
01C38000
003C0000
003C0000
003C0000
01C38000
01C38000
01C38000
003C0000
003C0000
003C0000
003C0000
01C38000
01C38000
01C38000
003C0000
003C0000
003C0000
01C38000
01C38000
01C38000
01C38000
0E3C0000
0E3C0000
0E3C0000
F1C00000
F1C00000
F1C00000
ENDCHAR
STARTCHAR 00A1
ENCODING 161
SWIDTH 300 0
DWIDTH 20 0
BBX 10 50 5 0
BITMAP
E1C0
E1C0
E1C0
1E00
1E00
1E00
1E00
E1C0
E1C0
E1C0
0000
0000
0000
0000
0000
0000
0000
1E00
1E00
1E00
E1C0
E1C0
E1C0
1E00
1E00
1E00
1E00
E1C0
E1C0
E1C0
1E00
1E00
1E00
E1C0
E1C0
E1C0
E1C0
1E00
1E00
1E00
E1C0
E1C0
E1C0
1E00
1E00
1E00
1E00
E1C0
E1C0
E1C0
ENDCHAR
STARTCHAR 00A2
ENCODING 162
SWIDTH 690 0
DWIDTH 46 0
BBX 37 64 5 -7
BITMAP
00078E0000
00078E0000
00078E0000
00078E0000
0000700000
0000700000
0000700000
01C78E1C00
01C78E1C00
01C78E1C00
1E3871E380
1E3871E380
1E3871E380
1E3871E380
E1C78E1C78
E1C78E1C78
E1C78E1C78
1E00000380
1E00000380
1E00000380
E1C0001C78
E1C0001C78
E1C0001C78
E1C0001C78
1E00000380
1E00000380
1E00000380
E1C0001C78
E1C0001C78
E1C0001C78
1E00000000
1E00000000
1E00000000
1E00000000
E1C0000000
E1C0000000
E1C0000000
1E00000000
1E00000000
1E00000000
E1C0001C78
E1C0001C78
E1C0001C78
E1C0001C78
1E00000380
1E00000380
1E00000380
E1C78E1C78
E1C78E1C78
E1C78E1C78
1E3871E380
1E3871E380
1E3871E380
1E3871E380
01C78E1C00
01C78E1C00
01C78E1C00
0000700000
0000700000
0000700000
00078E0000
00078E0000
00078E0000
00078E0000
ENDCHAR
STARTCHAR 00A3
ENCODING 163
SWIDTH 690 0
DWIDTH 46 0
BBX 37 57 5 0
BITMAP
00078E1C00
00078E1C00
00078E1C00
00078E1C00
003871E380
003871E380
003871E380
01C78E1C78
01C78E1C78
01C78E1C78
0038000380
0038000380
0038000380
0038000380
01C7801C78
01C7801C78
01C7801C78
0038000000
0038000000
0038000000
01C7800000
01C7800000
01C7800000
01C7800000
0038000000
0038000000
0038000000
E1C78E1C00
E1C78E1C00
E1C78E1C00
1E3871E000
1E3871E000
1E3871E000
1E3871E000
E1C78E1C00
E1C78E1C00
E1C78E1C00
0038000000
0038000000
0038000000
01C7800000
01C7800000
01C7800000
01C7800000
0038000000
0038000000
0038000000
E1C78E1C78
E1C78E1C78
E1C78E1C78
1E3871E380
1E3871E380
1E3871E380
1E3871E380
E1C78E1C78
E1C78E1C78
E1C78E1C78
ENDCHAR
STARTCHAR 00A4
ENCODING 164
SWIDTH 795 0
DWIDTH 53 0
BBX 43 44 5 13
BITMAP
01C780000000
01C780000000
01C780000000
01C780000000
003800000000
003800000000
003800000000
01C78E1C78E0
01C78E1C78E0
01C78E1C78E0
003871E38700
003871E38700
003871E38700
003871E38700
01C78E1C78E0
01C78E1C78E0
01C78E1C78E0
003800038000
003800038000
003800038000
01C7801C7800
01C7801C7800
01C7801C7800
01C7801C7800
003800038000
003800038000
003800038000
E1C78E1C7800
E1C78E1C7800
E1C78E1C7800
1E3871E38000
1E3871E38000
1E3871E38000
1E3871E38000
E1C78E1C7800
E1C78E1C7800
E1C78E1C7800
000000038000
000000038000
000000038000
0000001C7800
0000001C7800
0000001C7800
0000001C7800
ENDCHAR
STARTCHAR 00A5
ENCODING 165
SWIDTH 690 0
DWIDTH 46 0
BBX 37 70 5 -7
BITMAP
E1C0001C78
E1C0001C78
E1C0001C78
1E00000380
1E00000380
1E00000380
E1C0001C78
E1C0001C78
E1C0001C78
E1C0001C78
1E00000380
1E00000380
1E00000380
E1C0001C78
E1C0001C78
E1C0001C78
1E3801E380
1E3801E380
1E3801E380
1E3801E380
01C78E1C00
01C78E1C00
01C78E1C00
003871E000
003871E000
003871E000
00078E0000
00078E0000
00078E0000
00078E0000
0000700000
0000700000
0000700000
E1C78E1C78
E1C78E1C78
E1C78E1C78
1E3871E380
1E3871E380
1E3871E380
1E3871E380
E1C78E1C78
E1C78E1C78
E1C78E1C78
0000700000
0000700000
0000700000
00078E0000
00078E0000
00078E0000
00078E0000
0000700000
0000700000
0000700000
E1C78E1C78
E1C78E1C78
E1C78E1C78
1E3871E380
1E3871E380
1E3871E380
1E3871E380
E1C78E1C78
E1C78E1C78
E1C78E1C78
0000700000
0000700000
0000700000
00078E0000
00078E0000
00078E0000
00078E0000
ENDCHAR
STARTCHAR 00A6
ENCODING 166
SWIDTH 300 0
DWIDTH 20 0
BBX 10 64 5 -7
BITMAP
E1C0
E1C0
E1C0
E1C0
1E00
1E00
1E00
E1C0
E1C0
E1C0
1E00
1E00
1E00
1E00
E1C0
E1C0
E1C0
1E00
1E00
1E00
E1C0
E1C0
E1C0
E1C0
0000
0000
0000
0000
0000
0000
0000
0000
0000
0000
0000
0000
0000
0000
0000
0000
E1C0
E1C0
E1C0
E1C0
1E00
1E00
1E00
E1C0
E1C0
E1C0
1E00
1E00
1E00
1E00
E1C0
E1C0
E1C0
1E00
1E00
1E00
E1C0
E1C0
E1C0
E1C0
ENDCHAR
STARTCHAR 00A7
ENCODING 167
SWIDTH 690 0
DWIDTH 46 0
BBX 37 76 5 -13
BITMAP
00078E1C78
00078E1C78
00078E1C78
003871E380
003871E380
003871E380
01C78E1C78
01C78E1C78
01C78E1C78
01C78E1C78
1E38000000
1E38000000
1E38000000
E1C0000000
E1C0000000
E1C0000000
1E00000000
1E00000000
1E00000000
1E00000000
E1C78E0000
E1C78E0000
E1C78E0000
1E3871E000
1E3871E000
1E3871E000
E1C78E1C00
E1C78E1C00
E1C78E1C00
E1C78E1C00
1E0001E380
1E0001E380
1E0001E380
E1C0001C78
E1C0001C78
E1C0001C78
1E00000380
1E00000380
1E00000380
1E00000380
E1C0001C78
E1C0001C78
E1C0001C78
1E38000380
1E38000380
1E38000380
01C78E1C78
01C78E1C78
01C78E1C78
01C78E1C78
003871E380
003871E380
003871E380
00078E1C78
00078E1C78
00078E1C78
0000000380
0000000380
0000000380
0000000380
0000001C78
0000001C78
0000001C78
000001E380
000001E380
000001E380
E1C78E1C00
E1C78E1C00
E1C78E1C00
E1C78E1C00
1E3871E000
1E3871E000
1E3871E000
E1C78E0000
E1C78E0000
E1C78E0000
ENDCHAR
STARTCHAR 00A8
ENCODING 168
SWIDTH 390 0
DWIDTH 26 0
BBX 23 10 2 53
BITMAP
E3C70E
E3C70E
E3C70E
1C00F0
1C00F0
1C00F0
E3C70E
E3C70E
E3C70E
E3C70E
ENDCHAR
STARTCHAR 00AB
ENCODING 171
SWIDTH 840 0
DWIDTH 56 0
BBX 46 36 2 7
BITMAP
0000F1C00F1C
0000F1C00F1C
0000F1C00F1C
00070E0070E0
00070E0070E0
00070E0070E0
0038F0038F00
0038F0038F00
0038F0038F00
0038F0038F00
03C7003C7000
03C7003C7000
03C7003C7000
1C3801C38000
1C3801C38000
1C3801C38000
E3C00E3C0000
E3C00E3C0000
E3C00E3C0000
E3C00E3C0000
1C3801C38000
1C3801C38000
1C3801C38000
03C7003C7000
03C7003C7000
03C7003C7000
0038F0038F00
0038F0038F00
0038F0038F00
0038F0038F00
00070E0070E0
00070E0070E0
00070E0070E0
0000F1C00F1C
0000F1C00F1C
0000F1C00F1C
ENDCHAR
STARTCHAR 00AD
ENCODING 173
SWIDTH 495 0
DWIDTH 33 0
BBX 30 10 2 20
BITMAP
E3C70E3C
E3C70E3C
E3C70E3C
1C38F1C0
1C38F1C0
1C38F1C0
1C38F1C0
E3C70E3C
E3C70E3C
E3C70E3C
ENDCHAR
STARTCHAR 00AF
ENCODING 175
SWIDTH 390 0
DWIDTH 26 0
BBX 23 10 2 53
BITMAP
E3C70E
E3C70E
E3C70E
1C38F0
1C38F0
1C38F0
E3C70E
E3C70E
E3C70E
E3C70E
ENDCHAR
STARTCHAR 00B0
ENCODING 176
SWIDTH 495 0
DWIDTH 33 0
BBX 30 30 2 27
BITMAP
03C70E00
03C70E00
03C70E00
03C70E00
1C38F1C0
1C38F1C0
1C38F1C0
E3C70E3C
E3C70E3C
E3C70E3C
1C0001C0
1C0001C0
1C0001C0
1C0001C0
E3C00E3C
E3C00E3C
E3C00E3C
1C0001C0
1C0001C0
1C0001C0
E3C70E3C
E3C70E3C
E3C70E3C
E3C70E3C
1C38F1C0
1C38F1C0
1C38F1C0
03C70E00
03C70E00
03C70E00
ENDCHAR
STARTCHAR 00B4
ENCODING 180
SWIDTH 345 0
DWIDTH 23 0
BBX 23 17 2 53
BITMAP
00070E
00070E
00070E
0038F0
0038F0
0038F0
0038F0
03C700
03C700
03C700
1C3800
1C3800
1C3800
E3C000
E3C000
E3C000
E3C000
ENDCHAR
STARTCHAR 00B6
ENCODING 182
SWIDTH 690 0
DWIDTH 46 0
BBX 37 50 5 0
BITMAP
01C78E1C78
01C78E1C78
01C78E1C78
1E38700380
1E38700380
1E38700380
1E38700380
E1C78E1C78
E1C78E1C78
E1C78E1C78
1E38700380
1E38700380
1E38700380
E1C78E1C78
E1C78E1C78
E1C78E1C78
E1C78E1C78
1E38700380
1E38700380
1E38700380
E1C78E1C78
E1C78E1C78
E1C78E1C78
1E38700380
1E38700380
1E38700380
1E38700380
01C78E1C78
01C78E1C78
01C78E1C78
0000700380
0000700380
0000700380
00078E1C78
00078E1C78
00078E1C78
00078E1C78
0000700380
0000700380
0000700380
00078E1C78
00078E1C78
00078E1C78
0000700380
0000700380
0000700380
0000700380
00078E1C78
00078E1C78
00078E1C78
ENDCHAR
STARTCHAR 00B7
ENCODING 183
SWIDTH 195 0
DWIDTH 13 0
BBX 10 10 2 20
BITMAP
E3C0
E3C0
E3C0
1C00
1C00
1C00
1C00
E3C0
E3C0
E3C0
ENDCHAR
STARTCHAR 00B8
ENCODING 184
SWIDTH 240 0
DWIDTH 16 0
BBX 17 13 -2 -13
BITMAP
003C00
003C00
003C00
F1C380
F1C380
F1C380
F1C380
0E3C00
0E3C00
0E3C00
F1C000
F1C000
F1C000
ENDCHAR
STARTCHAR 00BB
ENCODING 187
SWIDTH 840 0
DWIDTH 56 0
BBX 47 36 8 7
BITMAP
F1C00F1C0000
F1C00F1C0000
F1C00F1C0000
0E3C00E3C000
0E3C00E3C000
0E3C00E3C000
01C3801C3800
01C3801C3800
01C3801C3800
01C3801C3800
003C7003C700
003C7003C700
003C7003C700
00038F0038F0
00038F0038F0
00038F0038F0
000070E0070E
000070E0070E
000070E0070E
000070E0070E
00038F0038F0
00038F0038F0
00038F0038F0
003C7003C700
003C7003C700
003C7003C700
01C3801C3800
01C3801C3800
01C3801C3800
01C3801C3800
0E3C00E3C000
0E3C00E3C000
0E3C00E3C000
F1C00F1C0000
F1C00F1C0000
F1C00F1C0000
ENDCHAR
STARTCHAR 00BF
ENCODING 191
SWIDTH 690 0
DWIDTH 46 0
BBX 37 50 5 0
BITMAP
00078E0000
00078E0000
00078E0000
0000700000
0000700000
0000700000
0000700000
00078E0000
00078E0000
00078E0000
0000000000
0000000000
0000000000
00078E0000
00078E0000
00078E0000
00078E0000
0000700000
0000700000
0000700000
01C78E0000
01C78E0000
01C78E0000
1E38700000
1E38700000
1E38700000
1E38700000
E1C7800000
E1C7800000
E1C7800000
1E00000000
1E00000000
1E00000000
E1C0001C78
E1C0001C78
E1C0001C78
E1C0001C78
1E00000380
1E00000380
1E00000380
E1C78E1C78
E1C78E1C78
E1C78E1C78
1E3871E380
1E3871E380
1E3871E380
1E3871E380
01C78E1C00
01C78E1C00
01C78E1C00
ENDCHAR
STARTCHAR 00C0
ENCODING 192
SWIDTH 690 0
DWIDTH 46 0
BBX 37 70 5 0
BITMAP
E1C0000000
E1C0000000
E1C0000000
1E38000000
1E38000000
1E38000000
1E38000000
01C7800000
01C7800000
01C7800000
0038700000
0038700000
0038700000
00078E0000
00078E0000
00078E0000
00078E0000
0000000000
0000000000
0000000000
00078E0000
00078E0000
00078E0000
003871E000
003871E000
003871E000
003871E000
01C78E1C00
01C78E1C00
01C78E1C00
1E3801E380
1E3801E380
1E3801E380
E1C0001C78
E1C0001C78
E1C0001C78
E1C0001C78
1E00000380
1E00000380
1E00000380
E1C0001C78
E1C0001C78
E1C0001C78
1E00000380
1E00000380
1E00000380
1E00000380
E1C78E1C78
E1C78E1C78
E1C78E1C78
1E3871E380
1E3871E380
1E3871E380
E1C78E1C78
E1C78E1C78
E1C78E1C78
E1C78E1C78
1E00000380
1E00000380
1E00000380
E1C0001C78
E1C0001C78
E1C0001C78
1E00000380
1E00000380
1E00000380
1E00000380
E1C0001C78
E1C0001C78
E1C0001C78
ENDCHAR
STARTCHAR 00C1
ENCODING 193
SWIDTH 690 0
DWIDTH 46 0
BBX 37 70 5 0
BITMAP
000001E380
000001E380
000001E380
00000E1C00
00000E1C00
00000E1C00
00000E1C00
000071E000
000071E000
000071E000
00078E0000
00078E0000
00078E0000
0038700000
0038700000
0038700000
0038700000
0000000000
0000000000
0000000000
00078E0000
00078E0000
00078E0000
003871E000
003871E000
003871E000
003871E000
01C78E1C00
01C78E1C00
01C78E1C00
1E3801E380
1E3801E380
1E3801E380
E1C0001C78
E1C0001C78
E1C0001C78
E1C0001C78
1E00000380
1E00000380
1E00000380
E1C0001C78
E1C0001C78
E1C0001C78
1E00000380
1E00000380
1E00000380
1E00000380
E1C78E1C78
E1C78E1C78
E1C78E1C78
1E3871E380
1E3871E380
1E3871E380
E1C78E1C78
E1C78E1C78
E1C78E1C78
E1C78E1C78
1E00000380
1E00000380
1E00000380
E1C0001C78
E1C0001C78
E1C0001C78
1E00000380
1E00000380
1E00000380
1E00000380
E1C0001C78
E1C0001C78
E1C0001C78
ENDCHAR
STARTCHAR 00C2
ENCODING 194
SWIDTH 690 0
DWIDTH 46 0
BBX 37 70 5 0
BITMAP
00078E0000
00078E0000
00078E0000
003871E000
003871E000
003871E000
003871E000
01C78E1C00
01C78E1C00
01C78E1C00
003801E000
003801E000
003801E000
01C78E1C00
01C78E1C00
01C78E1C00
01C78E1C00
0000000000
0000000000
0000000000
00078E0000
00078E0000
00078E0000
003871E000
003871E000
003871E000
003871E000
01C78E1C00
01C78E1C00
01C78E1C00
1E3801E380
1E3801E380
1E3801E380
E1C0001C78
E1C0001C78
E1C0001C78
E1C0001C78
1E00000380
1E00000380
1E00000380
E1C0001C78
E1C0001C78
E1C0001C78
1E00000380
1E00000380
1E00000380
1E00000380
E1C78E1C78
E1C78E1C78
E1C78E1C78
1E3871E380
1E3871E380
1E3871E380
E1C78E1C78
E1C78E1C78
E1C78E1C78
E1C78E1C78
1E00000380
1E00000380
1E00000380
E1C0001C78
E1C0001C78
E1C0001C78
1E00000380
1E00000380
1E00000380
1E00000380
E1C0001C78
E1C0001C78
E1C0001C78
ENDCHAR
STARTCHAR 00C3
ENCODING 195
SWIDTH 690 0
DWIDTH 46 0
BBX 37 70 5 0
BITMAP
01C7801C78
01C7801C78
01C7801C78
1E38700380
1E38700380
1E38700380
1E38700380
E1C78E1C78
E1C78E1C78
E1C78E1C78
1E0071E380
1E0071E380
1E0071E380
E1C00E1C00
E1C00E1C00
E1C00E1C00
E1C00E1C00
0000000000
0000000000
0000000000
00078E0000
00078E0000
00078E0000
003871E000
003871E000
003871E000
003871E000
01C78E1C00
01C78E1C00
01C78E1C00
1E3801E380
1E3801E380
1E3801E380
E1C0001C78
E1C0001C78
E1C0001C78
E1C0001C78
1E00000380
1E00000380
1E00000380
E1C0001C78
E1C0001C78
E1C0001C78
1E00000380
1E00000380
1E00000380
1E00000380
E1C78E1C78
E1C78E1C78
E1C78E1C78
1E3871E380
1E3871E380
1E3871E380
E1C78E1C78
E1C78E1C78
E1C78E1C78
E1C78E1C78
1E00000380
1E00000380
1E00000380
E1C0001C78
E1C0001C78
E1C0001C78
1E00000380
1E00000380
1E00000380
1E00000380
E1C0001C78
E1C0001C78
E1C0001C78
ENDCHAR
STARTCHAR 00C4
ENCODING 196
SWIDTH 690 0
DWIDTH 46 0
BBX 37 63 5 0
BITMAP
01C78E1C00
01C78E1C00
01C78E1C00
003801E000
003801E000
003801E000
01C78E1C00
01C78E1C00
01C78E1C00
01C78E1C00
0000000000
0000000000
0000000000
00078E0000
00078E0000
00078E0000
003871E000
003871E000
003871E000
003871E000
01C78E1C00
01C78E1C00
01C78E1C00
1E3801E380
1E3801E380
1E3801E380
E1C0001C78
E1C0001C78
E1C0001C78
E1C0001C78
1E00000380
1E00000380
1E00000380
E1C0001C78
E1C0001C78
E1C0001C78
1E00000380
1E00000380
1E00000380
1E00000380
E1C78E1C78
E1C78E1C78
E1C78E1C78
1E3871E380
1E3871E380
1E3871E380
E1C78E1C78
E1C78E1C78
E1C78E1C78
E1C78E1C78
1E00000380
1E00000380
1E00000380
E1C0001C78
E1C0001C78
E1C0001C78
1E00000380
1E00000380
1E00000380
1E00000380
E1C0001C78
E1C0001C78
E1C0001C78
ENDCHAR
STARTCHAR 00C5
ENCODING 197
SWIDTH 690 0
DWIDTH 46 0
BBX 37 83 5 0
BITMAP
003871E000
003871E000
003871E000
01C78E1C00
01C78E1C00
01C78E1C00
1E3871E380
1E3871E380
1E3871E380
1E3871E380
01C0001C00
01C0001C00
01C0001C00
1E3801E380
1E3801E380
1E3801E380
01C0001C00
01C0001C00
01C0001C00
01C0001C00
1E3871E380
1E3871E380
1E3871E380
01C78E1C00
01C78E1C00
01C78E1C00
003871E000
003871E000
003871E000
003871E000
0000000000
0000000000
0000000000
00078E0000
00078E0000
00078E0000
003871E000
003871E000
003871E000
003871E000
01C78E1C00
01C78E1C00
01C78E1C00
1E3801E380
1E3801E380
1E3801E380
E1C0001C78
E1C0001C78
E1C0001C78
E1C0001C78
1E00000380
1E00000380
1E00000380
E1C0001C78
E1C0001C78
E1C0001C78
1E00000380
1E00000380
1E00000380
1E00000380
E1C78E1C78
E1C78E1C78
E1C78E1C78
1E3871E380
1E3871E380
1E3871E380
E1C78E1C78
E1C78E1C78
E1C78E1C78
E1C78E1C78
1E00000380
1E00000380
1E00000380
E1C0001C78
E1C0001C78
E1C0001C78
1E00000380
1E00000380
1E00000380
1E00000380
E1C0001C78
E1C0001C78
E1C0001C78
ENDCHAR
STARTCHAR 00C6
ENCODING 198
SWIDTH 1095 0
DWIDTH 73 0
BBX 63 50 5 0
BITMAP
00078E1C78E1C78E
00078E1C78E1C78E
00078E1C78E1C78E
003871E3871E3870
003871E3871E3870
003871E3871E3870
003871E3871E3870
01C78E1C78E1C78E
01C78E1C78E1C78E
01C78E1C78E1C78E
1E38000380000000
1E38000380000000
1E38000380000000
E1C0001C78000000
E1C0001C78000000
E1C0001C78000000
E1C0001C78000000
1E00000380000000
1E00000380000000
1E00000380000000
E1C0001C78E1C780
E1C0001C78E1C780
E1C0001C78E1C780
1E000003871E3800
1E000003871E3800
1E000003871E3800
1E000003871E3800
E1C78E1C78E1C780
E1C78E1C78E1C780
E1C78E1C78E1C780
1E3871E380000000
1E3871E380000000
1E3871E380000000
E1C78E1C78000000
E1C78E1C78000000
E1C78E1C78000000
E1C78E1C78000000
1E00000380000000
1E00000380000000
1E00000380000000
E1C0001C78E1C78E
E1C0001C78E1C78E
E1C0001C78E1C78E
1E000003871E3870
1E000003871E3870
1E000003871E3870
1E000003871E3870
E1C0000078E1C78E
E1C0000078E1C78E
E1C0000078E1C78E
ENDCHAR
STARTCHAR 00C7
ENCODING 199
SWIDTH 795 0
DWIDTH 53 0
BBX 43 63 5 -13
BITMAP
00078E1C0000
00078E1C0000
00078E1C0000
003871E38000
003871E38000
003871E38000
003871E38000
01C78E1C7800
01C78E1C7800
01C78E1C7800
1E3800038700
1E3800038700
1E3800038700
E1C0000078E0
E1C0000078E0
E1C0000078E0
E1C0000078E0
1E0000000700
1E0000000700
1E0000000700
E1C0000078E0
E1C0000078E0
E1C0000078E0
1E0000000000
1E0000000000
1E0000000000
1E0000000000
E1C000000000
E1C000000000
E1C000000000
1E0000000000
1E0000000000
1E0000000000
E1C0000078E0
E1C0000078E0
E1C0000078E0
E1C0000078E0
1E3800038700
1E3800038700
1E3800038700
01C78E1C7800
01C78E1C7800
01C78E1C7800
003871E38000
003871E38000
003871E38000
003871E38000
00078E1C0000
00078E1C0000
00078E1C0000
000001E00000
000001E00000
000001E00000
00078E1C0000
00078E1C0000
00078E1C0000
00078E1C0000
000071E00000
000071E00000
000071E00000
00078E000000
00078E000000
00078E000000
ENDCHAR
STARTCHAR 00C8
ENCODING 200
SWIDTH 690 0
DWIDTH 46 0
BBX 37 70 5 0
BITMAP
E1C0000000
E1C0000000
E1C0000000
1E38000000
1E38000000
1E38000000
1E38000000
01C7800000
01C7800000
01C7800000
0038700000
0038700000
0038700000
00078E0000
00078E0000
00078E0000
00078E0000
0000000000
0000000000
0000000000
00078E1C78
00078E1C78
00078E1C78
003871E380
003871E380
003871E380
003871E380
01C78E1C78
01C78E1C78
01C78E1C78
1E38000000
1E38000000
1E38000000
E1C0000000
E1C0000000
E1C0000000
E1C0000000
1E00000000
1E00000000
1E00000000
E1C78E1C00
E1C78E1C00
E1C78E1C00
1E3871E000
1E3871E000
1E3871E000
1E3871E000
E1C78E1C00
E1C78E1C00
E1C78E1C00
1E00000000
1E00000000
1E00000000
E1C0000000
E1C0000000
E1C0000000
E1C0000000
1E38000000
1E38000000
1E38000000
01C78E1C78
01C78E1C78
01C78E1C78
003871E380
003871E380
003871E380
003871E380
00078E1C78
00078E1C78
00078E1C78
ENDCHAR
STARTCHAR 00C9
ENCODING 201
SWIDTH 690 0
DWIDTH 46 0
BBX 37 70 5 0
BITMAP
000001E380
000001E380
000001E380
00000E1C00
00000E1C00
00000E1C00
00000E1C00
000071E000
000071E000
000071E000
00078E0000
00078E0000
00078E0000
0038700000
0038700000
0038700000
0038700000
0000000000
0000000000
0000000000
00078E1C78
00078E1C78
00078E1C78
003871E380
003871E380
003871E380
003871E380
01C78E1C78
01C78E1C78
01C78E1C78
1E38000000
1E38000000
1E38000000
E1C0000000
E1C0000000
E1C0000000
E1C0000000
1E00000000
1E00000000
1E00000000
E1C78E1C00
E1C78E1C00
E1C78E1C00
1E3871E000
1E3871E000
1E3871E000
1E3871E000
E1C78E1C00
E1C78E1C00
E1C78E1C00
1E00000000
1E00000000
1E00000000
E1C0000000
E1C0000000
E1C0000000
E1C0000000
1E38000000
1E38000000
1E38000000
01C78E1C78
01C78E1C78
01C78E1C78
003871E380
003871E380
003871E380
003871E380
00078E1C78
00078E1C78
00078E1C78
ENDCHAR
STARTCHAR 00CA
ENCODING 202
SWIDTH 690 0
DWIDTH 46 0
BBX 37 70 5 0
BITMAP
00078E0000
00078E0000
00078E0000
003871E000
003871E000
003871E000
003871E000
01C78E1C00
01C78E1C00
01C78E1C00
003801E000
003801E000
003801E000
01C78E1C00
01C78E1C00
01C78E1C00
01C78E1C00
0000000000
0000000000
0000000000
00078E1C78
00078E1C78
00078E1C78
003871E380
003871E380
003871E380
003871E380
01C78E1C78
01C78E1C78
01C78E1C78
1E38000000
1E38000000
1E38000000
E1C0000000
E1C0000000
E1C0000000
E1C0000000
1E00000000
1E00000000
1E00000000
E1C78E1C00
E1C78E1C00
E1C78E1C00
1E3871E000
1E3871E000
1E3871E000
1E3871E000
E1C78E1C00
E1C78E1C00
E1C78E1C00
1E00000000
1E00000000
1E00000000
E1C0000000
E1C0000000
E1C0000000
E1C0000000
1E38000000
1E38000000
1E38000000
01C78E1C78
01C78E1C78
01C78E1C78
003871E380
003871E380
003871E380
003871E380
00078E1C78
00078E1C78
00078E1C78
ENDCHAR
STARTCHAR 00CB
ENCODING 203
SWIDTH 690 0
DWIDTH 46 0
BBX 37 63 5 0
BITMAP
01C78E1C00
01C78E1C00
01C78E1C00
003801E000
003801E000
003801E000
01C78E1C00
01C78E1C00
01C78E1C00
01C78E1C00
0000000000
0000000000
0000000000
00078E1C78
00078E1C78
00078E1C78
003871E380
003871E380
003871E380
003871E380
01C78E1C78
01C78E1C78
01C78E1C78
1E38000000
1E38000000
1E38000000
E1C0000000
E1C0000000
E1C0000000
E1C0000000
1E00000000
1E00000000
1E00000000
E1C78E1C00
E1C78E1C00
E1C78E1C00
1E3871E000
1E3871E000
1E3871E000
1E3871E000
E1C78E1C00
E1C78E1C00
E1C78E1C00
1E00000000
1E00000000
1E00000000
E1C0000000
E1C0000000
E1C0000000
E1C0000000
1E38000000
1E38000000
1E38000000
01C78E1C78
01C78E1C78
01C78E1C78
003871E380
003871E380
003871E380
003871E380
00078E1C78
00078E1C78
00078E1C78
ENDCHAR
STARTCHAR 00CC
ENCODING 204
SWIDTH 495 0
DWIDTH 33 0
BBX 30 70 -2 0
BITMAP
F1C00000
F1C00000
F1C00000
0E3C0000
0E3C0000
0E3C0000
0E3C0000
01C38000
01C38000
01C38000
003C7000
003C7000
003C7000
00038F00
00038F00
00038F00
00038F00
00000000
00000000
00000000
01C38F1C
01C38F1C
01C38F1C
003C70E0
003C70E0
003C70E0
003C70E0
01C38F1C
01C38F1C
01C38F1C
00007000
00007000
00007000
00038F00
00038F00
00038F00
00038F00
00007000
00007000
00007000
00038F00
00038F00
00038F00
00007000
00007000
00007000
00007000
00038F00
00038F00
00038F00
00007000
00007000
00007000
00038F00
00038F00
00038F00
00038F00
00007000
00007000
00007000
01C38F1C
01C38F1C
01C38F1C
003C70E0
003C70E0
003C70E0
003C70E0
01C38F1C
01C38F1C
01C38F1C
ENDCHAR
STARTCHAR 00CD
ENCODING 205
SWIDTH 495 0
DWIDTH 33 0
BBX 27 70 5 0
BITMAP
000071E0
000071E0
000071E0
00078E00
00078E00
00078E00
00078E00
00387000
00387000
00387000
01C78000
01C78000
01C78000
1E380000
1E380000
1E380000
1E380000
00000000
00000000
00000000
E1C78E00
E1C78E00
E1C78E00
1E387000
1E387000
1E387000
1E387000
E1C78E00
E1C78E00
E1C78E00
00380000
00380000
00380000
01C78000
01C78000
01C78000
01C78000
00380000
00380000
00380000
01C78000
01C78000
01C78000
00380000
00380000
00380000
00380000
01C78000
01C78000
01C78000
00380000
00380000
00380000
01C78000
01C78000
01C78000
01C78000
00380000
00380000
00380000
E1C78E00
E1C78E00
E1C78E00
1E387000
1E387000
1E387000
1E387000
E1C78E00
E1C78E00
E1C78E00
ENDCHAR
STARTCHAR 00CE
ENCODING 206
SWIDTH 495 0
DWIDTH 33 0
BBX 23 70 5 0
BITMAP
01C780
01C780
01C780
1E3870
1E3870
1E3870
1E3870
E1C78E
E1C78E
E1C78E
1E0070
1E0070
1E0070
E1C78E
E1C78E
E1C78E
E1C78E
000000
000000
000000
E1C78E
E1C78E
E1C78E
1E3870
1E3870
1E3870
1E3870
E1C78E
E1C78E
E1C78E
003800
003800
003800
01C780
01C780
01C780
01C780
003800
003800
003800
01C780
01C780
01C780
003800
003800
003800
003800
01C780
01C780
01C780
003800
003800
003800
01C780
01C780
01C780
01C780
003800
003800
003800
E1C78E
E1C78E
E1C78E
1E3870
1E3870
1E3870
1E3870
E1C78E
E1C78E
E1C78E
ENDCHAR
STARTCHAR 00CF
ENCODING 207
SWIDTH 495 0
DWIDTH 33 0
BBX 23 63 5 0
BITMAP
E1C78E
E1C78E
E1C78E
1E0070
1E0070
1E0070
E1C78E
E1C78E
E1C78E
E1C78E
000000
000000
000000
E1C78E
E1C78E
E1C78E
1E3870
1E3870
1E3870
1E3870
E1C78E
E1C78E
E1C78E
003800
003800
003800
01C780
01C780
01C780
01C780
003800
003800
003800
01C780
01C780
01C780
003800
003800
003800
003800
01C780
01C780
01C780
003800
003800
003800
01C780
01C780
01C780
01C780
003800
003800
003800
E1C78E
E1C78E
E1C78E
1E3870
1E3870
1E3870
1E3870
E1C78E
E1C78E
E1C78E
ENDCHAR
STARTCHAR 00D0
ENCODING 208
SWIDTH 840 0
DWIDTH 56 0
BBX 50 50 2 0
BITMAP
03C70E3C700000
03C70E3C700000
03C70E3C700000
0038F1C38F0000
0038F1C38F0000
0038F1C38F0000
0038F1C38F0000
03C70E3C70E000
03C70E3C70E000
03C70E3C70E000
003800000F1C00
003800000F1C00
003800000F1C00
03C7000000E3C0
03C7000000E3C0
03C7000000E3C0
03C7000000E3C0
00380000001C00
00380000001C00
00380000001C00
E3C70E0000E3C0
E3C70E0000E3C0
E3C70E0000E3C0
1C38F000001C00
1C38F000001C00
1C38F000001C00
1C38F000001C00
E3C70E0000E3C0
E3C70E0000E3C0
E3C70E0000E3C0
00380000001C00
00380000001C00
00380000001C00
03C7000000E3C0
03C7000000E3C0
03C7000000E3C0
03C7000000E3C0
003800000F1C00
003800000F1C00
003800000F1C00
03C70E3C70E000
03C70E3C70E000
03C70E3C70E000
0038F1C38F0000
0038F1C38F0000
0038F1C38F0000
0038F1C38F0000
03C70E3C700000
03C70E3C700000
03C70E3C700000
ENDCHAR
STARTCHAR 00D1
ENCODING 209
SWIDTH 795 0
DWIDTH 53 0
BBX 43 70 5 0
BITMAP
003870038700
003870038700
003870038700
01C78E007800
01C78E007800
01C78E007800
01C78E007800
1E3871E38700
1E3871E38700
1E3871E38700
01C00E1C7800
01C00E1C7800
01C00E1C7800
1E3801E38000
1E3801E38000
1E3801E38000
1E3801E38000
000000000000
000000000000
000000000000
E1C0000078E0
E1C0000078E0
E1C0000078E0
1E3800000700
1E3800000700
1E3800000700
1E3800000700
E1C7800078E0
E1C7800078E0
E1C7800078E0
1E3870000700
1E3870000700
1E3870000700
E1C78E0078E0
E1C78E0078E0
E1C78E0078E0
E1C78E0078E0
1E0071E00700
1E0071E00700
1E0071E00700
E1C00E1C78E0
E1C00E1C78E0
E1C00E1C78E0
1E0001E38700
1E0001E38700
1E0001E38700
1E0001E38700
E1C0001C78E0
E1C0001C78E0
E1C0001C78E0
1E0000038700
1E0000038700
1E0000038700
E1C0000078E0
E1C0000078E0
E1C0000078E0
E1C0000078E0
1E0000000700
1E0000000700
1E0000000700
E1C0000078E0
E1C0000078E0
E1C0000078E0
1E0000000700
1E0000000700
1E0000000700
1E0000000700
E1C0000078E0
E1C0000078E0
E1C0000078E0
ENDCHAR
STARTCHAR 00D2
ENCODING 210
SWIDTH 795 0
DWIDTH 53 0
BBX 43 70 5 0
BITMAP
1E3800000000
1E3800000000
1E3800000000
01C780000000
01C780000000
01C780000000
01C780000000
003870000000
003870000000
003870000000
00078E000000
00078E000000
00078E000000
000071E00000
000071E00000
000071E00000
000071E00000
000000000000
000000000000
000000000000
00078E1C0000
00078E1C0000
00078E1C0000
003871E38000
003871E38000
003871E38000
003871E38000
01C78E1C7800
01C78E1C7800
01C78E1C7800
1E3800038700
1E3800038700
1E3800038700
E1C0000078E0
E1C0000078E0
E1C0000078E0
E1C0000078E0
1E0000000700
1E0000000700
1E0000000700
E1C0000078E0
E1C0000078E0
E1C0000078E0
1E0000000700
1E0000000700
1E0000000700
1E0000000700
E1C0000078E0
E1C0000078E0
E1C0000078E0
1E0000000700
1E0000000700
1E0000000700
E1C0000078E0
E1C0000078E0
E1C0000078E0
E1C0000078E0
1E3800038700
1E3800038700
1E3800038700
01C78E1C7800
01C78E1C7800
01C78E1C7800
003871E38000
003871E38000
003871E38000
003871E38000
00078E1C0000
00078E1C0000
00078E1C0000
ENDCHAR
STARTCHAR 00D3
ENCODING 211
SWIDTH 795 0
DWIDTH 53 0
BBX 43 70 5 0
BITMAP
0000001C7800
0000001C7800
0000001C7800
000001E38000
000001E38000
000001E38000
000001E38000
00000E1C0000
00000E1C0000
00000E1C0000
000071E00000
000071E00000
000071E00000
00078E000000
00078E000000
00078E000000
00078E000000
000000000000
000000000000
000000000000
00078E1C0000
00078E1C0000
00078E1C0000
003871E38000
003871E38000
003871E38000
003871E38000
01C78E1C7800
01C78E1C7800
01C78E1C7800
1E3800038700
1E3800038700
1E3800038700
E1C0000078E0
E1C0000078E0
E1C0000078E0
E1C0000078E0
1E0000000700
1E0000000700
1E0000000700
E1C0000078E0
E1C0000078E0
E1C0000078E0
1E0000000700
1E0000000700
1E0000000700
1E0000000700
E1C0000078E0
E1C0000078E0
E1C0000078E0
1E0000000700
1E0000000700
1E0000000700
E1C0000078E0
E1C0000078E0
E1C0000078E0
E1C0000078E0
1E3800038700
1E3800038700
1E3800038700
01C78E1C7800
01C78E1C7800
01C78E1C7800
003871E38000
003871E38000
003871E38000
003871E38000
00078E1C0000
00078E1C0000
00078E1C0000
ENDCHAR
STARTCHAR 00D4
ENCODING 212
SWIDTH 795 0
DWIDTH 53 0
BBX 43 70 5 0
BITMAP
000071E00000
000071E00000
000071E00000
00078E1C0000
00078E1C0000
00078E1C0000
00078E1C0000
003871E38000
003871E38000
003871E38000
0007801C0000
0007801C0000
0007801C0000
003871E38000
003871E38000
003871E38000
003871E38000
000000000000
000000000000
000000000000
00078E1C0000
00078E1C0000
00078E1C0000
003871E38000
003871E38000
003871E38000
003871E38000
01C78E1C7800
01C78E1C7800
01C78E1C7800
1E3800038700
1E3800038700
1E3800038700
E1C0000078E0
E1C0000078E0
E1C0000078E0
E1C0000078E0
1E0000000700
1E0000000700
1E0000000700
E1C0000078E0
E1C0000078E0
E1C0000078E0
1E0000000700
1E0000000700
1E0000000700
1E0000000700
E1C0000078E0
E1C0000078E0
E1C0000078E0
1E0000000700
1E0000000700
1E0000000700
E1C0000078E0
E1C0000078E0
E1C0000078E0
E1C0000078E0
1E3800038700
1E3800038700
1E3800038700
01C78E1C7800
01C78E1C7800
01C78E1C7800
003871E38000
003871E38000
003871E38000
003871E38000
00078E1C0000
00078E1C0000
00078E1C0000
ENDCHAR
STARTCHAR 00D5
ENCODING 213
SWIDTH 795 0
DWIDTH 53 0
BBX 43 70 5 0
BITMAP
003870038700
003870038700
003870038700
01C78E007800
01C78E007800
01C78E007800
01C78E007800
1E3871E38700
1E3871E38700
1E3871E38700
01C00E1C7800
01C00E1C7800
01C00E1C7800
1E3801E38000
1E3801E38000
1E3801E38000
1E3801E38000
000000000000
000000000000
000000000000
00078E1C0000
00078E1C0000
00078E1C0000
003871E38000
003871E38000
003871E38000
003871E38000
01C78E1C7800
01C78E1C7800
01C78E1C7800
1E3800038700
1E3800038700
1E3800038700
E1C0000078E0
E1C0000078E0
E1C0000078E0
E1C0000078E0
1E0000000700
1E0000000700
1E0000000700
E1C0000078E0
E1C0000078E0
E1C0000078E0
1E0000000700
1E0000000700
1E0000000700
1E0000000700
E1C0000078E0
E1C0000078E0
E1C0000078E0
1E0000000700
1E0000000700
1E0000000700
E1C0000078E0
E1C0000078E0
E1C0000078E0
E1C0000078E0
1E3800038700
1E3800038700
1E3800038700
01C78E1C7800
01C78E1C7800
01C78E1C7800
003871E38000
003871E38000
003871E38000
003871E38000
00078E1C0000
00078E1C0000
00078E1C0000
ENDCHAR
STARTCHAR 00D6
ENCODING 214
SWIDTH 795 0
DWIDTH 53 0
BBX 43 63 5 0
BITMAP
003871E38000
003871E38000
003871E38000
0007801C0000
0007801C0000
0007801C0000
003871E38000
003871E38000
003871E38000
003871E38000
000000000000
000000000000
000000000000
00078E1C0000
00078E1C0000
00078E1C0000
003871E38000
003871E38000
003871E38000
003871E38000
01C78E1C7800
01C78E1C7800
01C78E1C7800
1E3800038700
1E3800038700
1E3800038700
E1C0000078E0
E1C0000078E0
E1C0000078E0
E1C0000078E0
1E0000000700
1E0000000700
1E0000000700
E1C0000078E0
E1C0000078E0
E1C0000078E0
1E0000000700
1E0000000700
1E0000000700
1E0000000700
E1C0000078E0
E1C0000078E0
E1C0000078E0
1E0000000700
1E0000000700
1E0000000700
E1C0000078E0
E1C0000078E0
E1C0000078E0
E1C0000078E0
1E3800038700
1E3800038700
1E3800038700
01C78E1C7800
01C78E1C7800
01C78E1C7800
003871E38000
003871E38000
003871E38000
003871E38000
00078E1C0000
00078E1C0000
00078E1C0000
ENDCHAR
STARTCHAR 00D7
ENCODING 215
SWIDTH 690 0
DWIDTH 46 0
BBX 37 40 5 7
BITMAP
1E00000380
1E00000380
1E00000380
1E00000380
E1C0001C78
E1C0001C78
E1C0001C78
1E3801E380
1E3801E380
1E3801E380
01C78E1C00
01C78E1C00
01C78E1C00
01C78E1C00
003871E000
003871E000
003871E000
00078E0000
00078E0000
00078E0000
003871E000
003871E000
003871E000
003871E000
01C78E1C00
01C78E1C00
01C78E1C00
1E3801E380
1E3801E380
1E3801E380
E1C0001C78
E1C0001C78
E1C0001C78
E1C0001C78
1E00000380
1E00000380
1E00000380
E1C0001C78
E1C0001C78
E1C0001C78
ENDCHAR
STARTCHAR 00D8
ENCODING 216
SWIDTH 900 0
DWIDTH 60 0
BBX 56 50 2 0
BITMAP
00000E3C700000
00000E3C700000
00000E3C700000
0000F1C38F0000
0000F1C38F0000
0000F1C38F0000
0000F1C38F0000
00070E3C70E000
00070E3C70E000
00070E3C70E000
0038F0000F1C00
0038F0000F1C00
0038F0000F1C00
03C7000000E3C0
03C7000000E3C0
03C7000000E3C0
03C7000000E3C0
00380000001C00
00380000001C00
00380000001C00
E3C70E3C70E3C7
E3C70E3C70E3C7
E3C70E3C70E3C7
1C38F1C38F1C38
1C38F1C38F1C38
1C38F1C38F1C38
1C38F1C38F1C38
E3C70E3C70E3C7
E3C70E3C70E3C7
E3C70E3C70E3C7
00380000001C00
00380000001C00
00380000001C00
03C7000000E3C0
03C7000000E3C0
03C7000000E3C0
03C7000000E3C0
0038F0000F1C00
0038F0000F1C00
0038F0000F1C00
00070E3C70E000
00070E3C70E000
00070E3C70E000
0000F1C38F0000
0000F1C38F0000
0000F1C38F0000
0000F1C38F0000
00000E3C700000
00000E3C700000
00000E3C700000
ENDCHAR
STARTCHAR 00D9
ENCODING 217
SWIDTH 795 0
DWIDTH 53 0
BBX 43 70 5 0
BITMAP
1E3800000000
1E3800000000
1E3800000000
01C780000000
01C780000000
01C780000000
01C780000000
003870000000
003870000000
003870000000
00078E000000
00078E000000
00078E000000
000071E00000
000071E00000
000071E00000
000071E00000
000000000000
000000000000
000000000000
E1C0000078E0
E1C0000078E0
E1C0000078E0
1E0000000700
1E0000000700
1E0000000700
1E0000000700
E1C0000078E0
E1C0000078E0
E1C0000078E0
1E0000000700
1E0000000700
1E0000000700
E1C0000078E0
E1C0000078E0
E1C0000078E0
E1C0000078E0
1E0000000700
1E0000000700
1E0000000700
E1C0000078E0
E1C0000078E0
E1C0000078E0
1E0000000700
1E0000000700
1E0000000700
1E0000000700
E1C0000078E0
E1C0000078E0
E1C0000078E0
1E0000000700
1E0000000700
1E0000000700
E1C0000078E0
E1C0000078E0
E1C0000078E0
E1C0000078E0
1E3800038700
1E3800038700
1E3800038700
01C78E1C7800
01C78E1C7800
01C78E1C7800
003871E38000
003871E38000
003871E38000
003871E38000
00078E1C0000
00078E1C0000
00078E1C0000
ENDCHAR
STARTCHAR 00DA
ENCODING 218
SWIDTH 795 0
DWIDTH 53 0
BBX 43 70 5 0
BITMAP
0000001C7800
0000001C7800
0000001C7800
000001E38000
000001E38000
000001E38000
000001E38000
00000E1C0000
00000E1C0000
00000E1C0000
000071E00000
000071E00000
000071E00000
00078E000000
00078E000000
00078E000000
00078E000000
000000000000
000000000000
000000000000
E1C0000078E0
E1C0000078E0
E1C0000078E0
1E0000000700
1E0000000700
1E0000000700
1E0000000700
E1C0000078E0
E1C0000078E0
E1C0000078E0
1E0000000700
1E0000000700
1E0000000700
E1C0000078E0
E1C0000078E0
E1C0000078E0
E1C0000078E0
1E0000000700
1E0000000700
1E0000000700
E1C0000078E0
E1C0000078E0
E1C0000078E0
1E0000000700
1E0000000700
1E0000000700
1E0000000700
E1C0000078E0
E1C0000078E0
E1C0000078E0
1E0000000700
1E0000000700
1E0000000700
E1C0000078E0
E1C0000078E0
E1C0000078E0
E1C0000078E0
1E3800038700
1E3800038700
1E3800038700
01C78E1C7800
01C78E1C7800
01C78E1C7800
003871E38000
003871E38000
003871E38000
003871E38000
00078E1C0000
00078E1C0000
00078E1C0000
ENDCHAR
STARTCHAR 00DB
ENCODING 219
SWIDTH 795 0
DWIDTH 53 0
BBX 43 70 5 0
BITMAP
000071E00000
000071E00000
000071E00000
00078E1C0000
00078E1C0000
00078E1C0000
00078E1C0000
003871E38000
003871E38000
003871E38000
0007801C0000
0007801C0000
0007801C0000
003871E38000
003871E38000
003871E38000
003871E38000
000000000000
000000000000
000000000000
E1C0000078E0
E1C0000078E0
E1C0000078E0
1E0000000700
1E0000000700
1E0000000700
1E0000000700
E1C0000078E0
E1C0000078E0
E1C0000078E0
1E0000000700
1E0000000700
1E0000000700
E1C0000078E0
E1C0000078E0
E1C0000078E0
E1C0000078E0
1E0000000700
1E0000000700
1E0000000700
E1C0000078E0
E1C0000078E0
E1C0000078E0
1E0000000700
1E0000000700
1E0000000700
1E0000000700
E1C0000078E0
E1C0000078E0
E1C0000078E0
1E0000000700
1E0000000700
1E0000000700
E1C0000078E0
E1C0000078E0
E1C0000078E0
E1C0000078E0
1E3800038700
1E3800038700
1E3800038700
01C78E1C7800
01C78E1C7800
01C78E1C7800
003871E38000
003871E38000
003871E38000
003871E38000
00078E1C0000
00078E1C0000
00078E1C0000
ENDCHAR
STARTCHAR 00DC
ENCODING 220
SWIDTH 795 0
DWIDTH 53 0
BBX 43 63 5 0
BITMAP
003871E38000
003871E38000
003871E38000
0007801C0000
0007801C0000
0007801C0000
003871E38000
003871E38000
003871E38000
003871E38000
000000000000
000000000000
000000000000
E1C0000078E0
E1C0000078E0
E1C0000078E0
1E0000000700
1E0000000700
1E0000000700
1E0000000700
E1C0000078E0
E1C0000078E0
E1C0000078E0
1E0000000700
1E0000000700
1E0000000700
E1C0000078E0
E1C0000078E0
E1C0000078E0
E1C0000078E0
1E0000000700
1E0000000700
1E0000000700
E1C0000078E0
E1C0000078E0
E1C0000078E0
1E0000000700
1E0000000700
1E0000000700
1E0000000700
E1C0000078E0
E1C0000078E0
E1C0000078E0
1E0000000700
1E0000000700
1E0000000700
E1C0000078E0
E1C0000078E0
E1C0000078E0
E1C0000078E0
1E3800038700
1E3800038700
1E3800038700
01C78E1C7800
01C78E1C7800
01C78E1C7800
003871E38000
003871E38000
003871E38000
003871E38000
00078E1C0000
00078E1C0000
00078E1C0000
ENDCHAR
STARTCHAR 00DD
ENCODING 221
SWIDTH 690 0
DWIDTH 46 0
BBX 37 70 5 0
BITMAP
000001E380
000001E380
000001E380
00000E1C00
00000E1C00
00000E1C00
00000E1C00
000071E000
000071E000
000071E000
00078E0000
00078E0000
00078E0000
0038700000
0038700000
0038700000
0038700000
0000000000
0000000000
0000000000
E1C0001C78
E1C0001C78
E1C0001C78
1E00000380
1E00000380
1E00000380
1E00000380
E1C0001C78
E1C0001C78
E1C0001C78
1E00000380
1E00000380
1E00000380
E1C0001C78
E1C0001C78
E1C0001C78
E1C0001C78
1E00000380
1E00000380
1E00000380
E1C0001C78
E1C0001C78
E1C0001C78
1E3801E380
1E3801E380
1E3801E380
1E3801E380
01C78E1C00
01C78E1C00
01C78E1C00
003871E000
003871E000
003871E000
00078E0000
00078E0000
00078E0000
00078E0000
0000700000
0000700000
0000700000
00078E0000
00078E0000
00078E0000
0000700000
0000700000
0000700000
0000700000
00078E0000
00078E0000
00078E0000
ENDCHAR
STARTCHAR 00DE
ENCODING 222
SWIDTH 690 0
DWIDTH 46 0
BBX 37 50 5 0
BITMAP
E1C0000000
E1C0000000
E1C0000000
1E00000000
1E00000000
1E00000000
1E00000000
E1C78E1C00
E1C78E1C00
E1C78E1C00
1E3871E380
1E3871E380
1E3871E380
E1C78E1C78
E1C78E1C78
E1C78E1C78
E1C78E1C78
1E00000380
1E00000380
1E00000380
E1C0001C78
E1C0001C78
E1C0001C78
1E00000380
1E00000380
1E00000380
1E00000380
E1C0001C78
E1C0001C78
E1C0001C78
1E00000380
1E00000380
1E00000380
E1C78E1C78
E1C78E1C78
E1C78E1C78
E1C78E1C78
1E3871E380
1E3871E380
1E3871E380
E1C78E1C00
E1C78E1C00
E1C78E1C00
1E00000000
1E00000000
1E00000000
1E00000000
E1C0000000
E1C0000000
E1C0000000
ENDCHAR
STARTCHAR 00DF
ENCODING 223
SWIDTH 690 0
DWIDTH 46 0
BBX 37 50 5 0
BITMAP
01C78E1C00
01C78E1C00
01C78E1C00
1E3871E380
1E3871E380
1E3871E380
1E3871E380
E1C78E1C78
E1C78E1C78
E1C78E1C78
1E00000380
1E00000380
1E00000380
E1C0001C78
E1C0001C78
E1C0001C78
E1C0001C78
1E0001E380
1E0001E380
1E0001E380
E1C78E1C00
E1C78E1C00
E1C78E1C00
1E0071E380
1E0071E380
1E0071E380
1E0071E380
E1C78E1C78
E1C78E1C78
E1C78E1C78
1E00000380
1E00000380
1E00000380
E1C0001C78
E1C0001C78
E1C0001C78
E1C0001C78
1E00000380
1E00000380
1E00000380
E1C78E1C78
E1C78E1C78
E1C78E1C78
1E0071E380
1E0071E380
1E0071E380
1E0071E380
E1C78E1C00
E1C78E1C00
E1C78E1C00
ENDCHAR
STARTCHAR 00E0
ENCODING 224
SWIDTH 690 0
DWIDTH 46 0
BBX 37 70 5 0
BITMAP
E1C0000000
E1C0000000
E1C0000000
1E38000000
1E38000000
1E38000000
1E38000000
01C7800000
01C7800000
01C7800000
0038700000
0038700000
0038700000
00078E0000
00078E0000
00078E0000
00078E0000
0000000000
0000000000
0000000000
01C78E1C00
01C78E1C00
01C78E1C00
1E3871E380
1E3871E380
1E3871E380
1E3871E380
E1C78E1C78
E1C78E1C78
E1C78E1C78
1E00000380
1E00000380
1E00000380
E1C0001C78
E1C0001C78
E1C0001C78
E1C0001C78
1E00000380
1E00000380
1E00000380
E1C0001C78
E1C0001C78
E1C0001C78
1E00000380
1E00000380
1E00000380
1E00000380
E1C78E1C78
E1C78E1C78
E1C78E1C78
1E3871E380
1E3871E380
1E3871E380
E1C78E1C78
E1C78E1C78
E1C78E1C78
E1C78E1C78
1E00000380
1E00000380
1E00000380
E1C0001C78
E1C0001C78
E1C0001C78
1E00000380
1E00000380
1E00000380
1E00000380
E1C0001C78
E1C0001C78
E1C0001C78
ENDCHAR
STARTCHAR 00E1
ENCODING 225
SWIDTH 690 0
DWIDTH 46 0
BBX 37 70 5 0
BITMAP
000001E380
000001E380
000001E380
00000E1C00
00000E1C00
00000E1C00
00000E1C00
000071E000
000071E000
000071E000
00078E0000
00078E0000
00078E0000
0038700000
0038700000
0038700000
0038700000
0000000000
0000000000
0000000000
01C78E1C00
01C78E1C00
01C78E1C00
1E3871E380
1E3871E380
1E3871E380
1E3871E380
E1C78E1C78
E1C78E1C78
E1C78E1C78
1E00000380
1E00000380
1E00000380
E1C0001C78
E1C0001C78
E1C0001C78
E1C0001C78
1E00000380
1E00000380
1E00000380
E1C0001C78
E1C0001C78
E1C0001C78
1E00000380
1E00000380
1E00000380
1E00000380
E1C78E1C78
E1C78E1C78
E1C78E1C78
1E3871E380
1E3871E380
1E3871E380
E1C78E1C78
E1C78E1C78
E1C78E1C78
E1C78E1C78
1E00000380
1E00000380
1E00000380
E1C0001C78
E1C0001C78
E1C0001C78
1E00000380
1E00000380
1E00000380
1E00000380
E1C0001C78
E1C0001C78
E1C0001C78
ENDCHAR
STARTCHAR 00E2
ENCODING 226
SWIDTH 690 0
DWIDTH 46 0
BBX 37 70 5 0
BITMAP
00078E0000
00078E0000
00078E0000
003871E000
003871E000
003871E000
003871E000
01C78E1C00
01C78E1C00
01C78E1C00
003801E000
003801E000
003801E000
01C78E1C00
01C78E1C00
01C78E1C00
01C78E1C00
0000000000
0000000000
0000000000
01C78E1C00
01C78E1C00
01C78E1C00
1E3871E380
1E3871E380
1E3871E380
1E3871E380
E1C78E1C78
E1C78E1C78
E1C78E1C78
1E00000380
1E00000380
1E00000380
E1C0001C78
E1C0001C78
E1C0001C78
E1C0001C78
1E00000380
1E00000380
1E00000380
E1C0001C78
E1C0001C78
E1C0001C78
1E00000380
1E00000380
1E00000380
1E00000380
E1C78E1C78
E1C78E1C78
E1C78E1C78
1E3871E380
1E3871E380
1E3871E380
E1C78E1C78
E1C78E1C78
E1C78E1C78
E1C78E1C78
1E00000380
1E00000380
1E00000380
E1C0001C78
E1C0001C78
E1C0001C78
1E00000380
1E00000380
1E00000380
1E00000380
E1C0001C78
E1C0001C78
E1C0001C78
ENDCHAR
STARTCHAR 00E3
ENCODING 227
SWIDTH 690 0
DWIDTH 46 0
BBX 37 70 5 0
BITMAP
01C7801C78
01C7801C78
01C7801C78
1E38700380
1E38700380
1E38700380
1E38700380
E1C78E1C78
E1C78E1C78
E1C78E1C78
1E0071E380
1E0071E380
1E0071E380
E1C00E1C00
E1C00E1C00
E1C00E1C00
E1C00E1C00
0000000000
0000000000
0000000000
01C78E1C00
01C78E1C00
01C78E1C00
1E3871E380
1E3871E380
1E3871E380
1E3871E380
E1C78E1C78
E1C78E1C78
E1C78E1C78
1E00000380
1E00000380
1E00000380
E1C0001C78
E1C0001C78
E1C0001C78
E1C0001C78
1E00000380
1E00000380
1E00000380
E1C0001C78
E1C0001C78
E1C0001C78
1E00000380
1E00000380
1E00000380
1E00000380
E1C78E1C78
E1C78E1C78
E1C78E1C78
1E3871E380
1E3871E380
1E3871E380
E1C78E1C78
E1C78E1C78
E1C78E1C78
E1C78E1C78
1E00000380
1E00000380
1E00000380
E1C0001C78
E1C0001C78
E1C0001C78
1E00000380
1E00000380
1E00000380
1E00000380
E1C0001C78
E1C0001C78
E1C0001C78
ENDCHAR
STARTCHAR 00E4
ENCODING 228
SWIDTH 690 0
DWIDTH 46 0
BBX 37 63 5 0
BITMAP
01C78E1C00
01C78E1C00
01C78E1C00
003801E000
003801E000
003801E000
01C78E1C00
01C78E1C00
01C78E1C00
01C78E1C00
0000000000
0000000000
0000000000
01C78E1C00
01C78E1C00
01C78E1C00
1E3871E380
1E3871E380
1E3871E380
1E3871E380
E1C78E1C78
E1C78E1C78
E1C78E1C78
1E00000380
1E00000380
1E00000380
E1C0001C78
E1C0001C78
E1C0001C78
E1C0001C78
1E00000380
1E00000380
1E00000380
E1C0001C78
E1C0001C78
E1C0001C78
1E00000380
1E00000380
1E00000380
1E00000380
E1C78E1C78
E1C78E1C78
E1C78E1C78
1E3871E380
1E3871E380
1E3871E380
E1C78E1C78
E1C78E1C78
E1C78E1C78
E1C78E1C78
1E00000380
1E00000380
1E00000380
E1C0001C78
E1C0001C78
E1C0001C78
1E00000380
1E00000380
1E00000380
1E00000380
E1C0001C78
E1C0001C78
E1C0001C78
ENDCHAR
STARTCHAR 00E5
ENCODING 229
SWIDTH 690 0
DWIDTH 46 0
BBX 37 83 5 0
BITMAP
003871E000
003871E000
003871E000
01C78E1C00
01C78E1C00
01C78E1C00
1E3871E380
1E3871E380
1E3871E380
1E3871E380
01C0001C00
01C0001C00
01C0001C00
1E3801E380
1E3801E380
1E3801E380
01C0001C00
01C0001C00
01C0001C00
01C0001C00
1E3871E380
1E3871E380
1E3871E380
01C78E1C00
01C78E1C00
01C78E1C00
003871E000
003871E000
003871E000
003871E000
0000000000
0000000000
0000000000
01C78E1C00
01C78E1C00
01C78E1C00
1E3871E380
1E3871E380
1E3871E380
1E3871E380
E1C78E1C78
E1C78E1C78
E1C78E1C78
1E00000380
1E00000380
1E00000380
E1C0001C78
E1C0001C78
E1C0001C78
E1C0001C78
1E00000380
1E00000380
1E00000380
E1C0001C78
E1C0001C78
E1C0001C78
1E00000380
1E00000380
1E00000380
1E00000380
E1C78E1C78
E1C78E1C78
E1C78E1C78
1E3871E380
1E3871E380
1E3871E380
E1C78E1C78
E1C78E1C78
E1C78E1C78
E1C78E1C78
1E00000380
1E00000380
1E00000380
E1C0001C78
E1C0001C78
E1C0001C78
1E00000380
1E00000380
1E00000380
1E00000380
E1C0001C78
E1C0001C78
E1C0001C78
ENDCHAR
STARTCHAR 00E6
ENCODING 230
SWIDTH 1095 0
DWIDTH 73 0
BBX 63 50 5 0
BITMAP
01C78E1C78E1C78E
01C78E1C78E1C78E
01C78E1C78E1C78E
1E3871E3871E3870
1E3871E3871E3870
1E3871E3871E3870
1E3871E3871E3870
E1C78E1C78E1C78E
E1C78E1C78E1C78E
E1C78E1C78E1C78E
1E00000380000000
1E00000380000000
1E00000380000000
E1C0001C78000000
E1C0001C78000000
E1C0001C78000000
E1C0001C78000000
1E00000380000000
1E00000380000000
1E00000380000000
E1C0001C78E1C780
E1C0001C78E1C780
E1C0001C78E1C780
1E000003871E3800
1E000003871E3800
1E000003871E3800
1E000003871E3800
E1C78E1C78E1C780
E1C78E1C78E1C780
E1C78E1C78E1C780
1E3871E380000000
1E3871E380000000
1E3871E380000000
E1C78E1C78000000
E1C78E1C78000000
E1C78E1C78000000
E1C78E1C78000000
1E00000380000000
1E00000380000000
1E00000380000000
E1C0001C78E1C78E
E1C0001C78E1C78E
E1C0001C78E1C78E
1E000003871E3870
1E000003871E3870
1E000003871E3870
1E000003871E3870
E1C0000078E1C78E
E1C0000078E1C78E
E1C0000078E1C78E
ENDCHAR
STARTCHAR 00E7
ENCODING 231
SWIDTH 690 0
DWIDTH 46 0
BBX 37 63 5 -13
BITMAP
01C78E1C00
01C78E1C00
01C78E1C00
1E3871E380
1E3871E380
1E3871E380
1E3871E380
E1C78E1C78
E1C78E1C78
E1C78E1C78
1E00000380
1E00000380
1E00000380
E1C0001C78
E1C0001C78
E1C0001C78
E1C0001C78
1E00000380
1E00000380
1E00000380
E1C0001C78
E1C0001C78
E1C0001C78
1E00000000
1E00000000
1E00000000
1E00000000
E1C0000000
E1C0000000
E1C0000000
1E00000000
1E00000000
1E00000000
E1C0001C78
E1C0001C78
E1C0001C78
E1C0001C78
1E00000380
1E00000380
1E00000380
E1C78E1C78
E1C78E1C78
E1C78E1C78
1E3871E380
1E3871E380
1E3871E380
1E3871E380
01C78E1C00
01C78E1C00
01C78E1C00
0000700000
0000700000
0000700000
01C78E0000
01C78E0000
01C78E0000
01C78E0000
0038700000
0038700000
0038700000
01C7800000
01C7800000
01C7800000
ENDCHAR
STARTCHAR 00E8
ENCODING 232
SWIDTH 690 0
DWIDTH 46 0
BBX 37 70 5 0
BITMAP
E1C0000000
E1C0000000
E1C0000000
1E38000000
1E38000000
1E38000000
1E38000000
01C7800000
01C7800000
01C7800000
0038700000
0038700000
0038700000
00078E0000
00078E0000
00078E0000
00078E0000
0000000000
0000000000
0000000000
01C78E1C78
01C78E1C78
01C78E1C78
1E3871E380
1E3871E380
1E3871E380
1E3871E380
E1C78E1C78
E1C78E1C78
E1C78E1C78
1E00000000
1E00000000
1E00000000
E1C0000000
E1C0000000
E1C0000000
E1C0000000
1E00000000
1E00000000
1E00000000
E1C78E1C00
E1C78E1C00
E1C78E1C00
1E3871E000
1E3871E000
1E3871E000
1E3871E000
E1C78E1C00
E1C78E1C00
E1C78E1C00
1E00000000
1E00000000
1E00000000
E1C0000000
E1C0000000
E1C0000000
E1C0000000
1E00000000
1E00000000
1E00000000
E1C78E1C78
E1C78E1C78
E1C78E1C78
1E3871E380
1E3871E380
1E3871E380
1E3871E380
01C78E1C78
01C78E1C78
01C78E1C78
ENDCHAR
STARTCHAR 00E9
ENCODING 233
SWIDTH 690 0
DWIDTH 46 0
BBX 37 70 5 0
BITMAP
000001E380
000001E380
000001E380
00000E1C00
00000E1C00
00000E1C00
00000E1C00
000071E000
000071E000
000071E000
00078E0000
00078E0000
00078E0000
0038700000
0038700000
0038700000
0038700000
0000000000
0000000000
0000000000
01C78E1C78
01C78E1C78
01C78E1C78
1E3871E380
1E3871E380
1E3871E380
1E3871E380
E1C78E1C78
E1C78E1C78
E1C78E1C78
1E00000000
1E00000000
1E00000000
E1C0000000
E1C0000000
E1C0000000
E1C0000000
1E00000000
1E00000000
1E00000000
E1C78E1C00
E1C78E1C00
E1C78E1C00
1E3871E000
1E3871E000
1E3871E000
1E3871E000
E1C78E1C00
E1C78E1C00
E1C78E1C00
1E00000000
1E00000000
1E00000000
E1C0000000
E1C0000000
E1C0000000
E1C0000000
1E00000000
1E00000000
1E00000000
E1C78E1C78
E1C78E1C78
E1C78E1C78
1E3871E380
1E3871E380
1E3871E380
1E3871E380
01C78E1C78
01C78E1C78
01C78E1C78
ENDCHAR
STARTCHAR 00EA
ENCODING 234
SWIDTH 690 0
DWIDTH 46 0
BBX 37 70 5 0
BITMAP
00078E0000
00078E0000
00078E0000
003871E000
003871E000
003871E000
003871E000
01C78E1C00
01C78E1C00
01C78E1C00
003801E000
003801E000
003801E000
01C78E1C00
01C78E1C00
01C78E1C00
01C78E1C00
0000000000
0000000000
0000000000
01C78E1C78
01C78E1C78
01C78E1C78
1E3871E380
1E3871E380
1E3871E380
1E3871E380
E1C78E1C78
E1C78E1C78
E1C78E1C78
1E00000000
1E00000000
1E00000000
E1C0000000
E1C0000000
E1C0000000
E1C0000000
1E00000000
1E00000000
1E00000000
E1C78E1C00
E1C78E1C00
E1C78E1C00
1E3871E000
1E3871E000
1E3871E000
1E3871E000
E1C78E1C00
E1C78E1C00
E1C78E1C00
1E00000000
1E00000000
1E00000000
E1C0000000
E1C0000000
E1C0000000
E1C0000000
1E00000000
1E00000000
1E00000000
E1C78E1C78
E1C78E1C78
E1C78E1C78
1E3871E380
1E3871E380
1E3871E380
1E3871E380
01C78E1C78
01C78E1C78
01C78E1C78
ENDCHAR
STARTCHAR 00EB
ENCODING 235
SWIDTH 690 0
DWIDTH 46 0
BBX 37 63 5 0
BITMAP
01C78E1C00
01C78E1C00
01C78E1C00
003801E000
003801E000
003801E000
01C78E1C00
01C78E1C00
01C78E1C00
01C78E1C00
0000000000
0000000000
0000000000
01C78E1C78
01C78E1C78
01C78E1C78
1E3871E380
1E3871E380
1E3871E380
1E3871E380
E1C78E1C78
E1C78E1C78
E1C78E1C78
1E00000000
1E00000000
1E00000000
E1C0000000
E1C0000000
E1C0000000
E1C0000000
1E00000000
1E00000000
1E00000000
E1C78E1C00
E1C78E1C00
E1C78E1C00
1E3871E000
1E3871E000
1E3871E000
1E3871E000
E1C78E1C00
E1C78E1C00
E1C78E1C00
1E00000000
1E00000000
1E00000000
E1C0000000
E1C0000000
E1C0000000
E1C0000000
1E00000000
1E00000000
1E00000000
E1C78E1C78
E1C78E1C78
E1C78E1C78
1E3871E380
1E3871E380
1E3871E380
1E3871E380
01C78E1C78
01C78E1C78
01C78E1C78
ENDCHAR
STARTCHAR 00EC
ENCODING 236
SWIDTH 300 0
DWIDTH 20 0
BBX 23 70 -8 0
BITMAP
E3C000
E3C000
E3C000
1C3800
1C3800
1C3800
1C3800
03C700
03C700
03C700
0038F0
0038F0
0038F0
00070E
00070E
00070E
00070E
000000
000000
000000
00070E
00070E
00070E
0000F0
0000F0
0000F0
0000F0
00070E
00070E
00070E
0000F0
0000F0
0000F0
00070E
00070E
00070E
00070E
0000F0
0000F0
0000F0
00070E
00070E
00070E
0000F0
0000F0
0000F0
0000F0
00070E
00070E
00070E
0000F0
0000F0
0000F0
00070E
00070E
00070E
00070E
0000F0
0000F0
0000F0
00070E
00070E
00070E
0000F0
0000F0
0000F0
0000F0
00070E
00070E
00070E
ENDCHAR
STARTCHAR 00ED
ENCODING 237
SWIDTH 300 0
DWIDTH 20 0
BBX 23 70 2 0
BITMAP
00070E
00070E
00070E
0038F0
0038F0
0038F0
0038F0
03C700
03C700
03C700
1C3800
1C3800
1C3800
E3C000
E3C000
E3C000
E3C000
000000
000000
000000
1C3800
1C3800
1C3800
03C000
03C000
03C000
03C000
1C3800
1C3800
1C3800
03C000
03C000
03C000
1C3800
1C3800
1C3800
1C3800
03C000
03C000
03C000
1C3800
1C3800
1C3800
03C000
03C000
03C000
03C000
1C3800
1C3800
1C3800
03C000
03C000
03C000
1C3800
1C3800
1C3800
1C3800
03C000
03C000
03C000
1C3800
1C3800
1C3800
03C000
03C000
03C000
03C000
1C3800
1C3800
1C3800
ENDCHAR
STARTCHAR 00EE
ENCODING 238
SWIDTH 300 0
DWIDTH 20 0
BBX 24 70 -2 0
BITMAP
01C380
01C380
01C380
0E3C70
0E3C70
0E3C70
0E3C70
F1C38F
F1C38F
F1C38F
0E0070
0E0070
0E0070
F1C38F
F1C38F
F1C38F
F1C38F
000000
000000
000000
01C380
01C380
01C380
003C00
003C00
003C00
003C00
01C380
01C380
01C380
003C00
003C00
003C00
01C380
01C380
01C380
01C380
003C00
003C00
003C00
01C380
01C380
01C380
003C00
003C00
003C00
003C00
01C380
01C380
01C380
003C00
003C00
003C00
01C380
01C380
01C380
01C380
003C00
003C00
003C00
01C380
01C380
01C380
003C00
003C00
003C00
003C00
01C380
01C380
01C380
ENDCHAR
STARTCHAR 00EF
ENCODING 239
SWIDTH 300 0
DWIDTH 20 0
BBX 24 63 -2 0
BITMAP
F1C38F
F1C38F
F1C38F
0E0070
0E0070
0E0070
F1C38F
F1C38F
F1C38F
F1C38F
000000
000000
000000
01C380
01C380
01C380
003C00
003C00
003C00
003C00
01C380
01C380
01C380
003C00
003C00
003C00
01C380
01C380
01C380
01C380
003C00
003C00
003C00
01C380
01C380
01C380
003C00
003C00
003C00
003C00
01C380
01C380
01C380
003C00
003C00
003C00
01C380
01C380
01C380
01C380
003C00
003C00
003C00
01C380
01C380
01C380
003C00
003C00
003C00
003C00
01C380
01C380
01C380
ENDCHAR
STARTCHAR 00F0
ENCODING 240
SWIDTH 750 0
DWIDTH 50 0
BBX 43 50 2 0
BITMAP
03C70E3C7000
03C70E3C7000
03C70E3C7000
0038F1C38F00
0038F1C38F00
0038F1C38F00
0038F1C38F00
03C70E3C70E0
03C70E3C70E0
03C70E3C70E0
003800000F00
003800000F00
003800000F00
03C7000070E0
03C7000070E0
03C7000070E0
03C7000070E0
003800000F00
003800000F00
003800000F00
E3C70E0070E0
E3C70E0070E0
E3C70E0070E0
1C38F0000F00
1C38F0000F00
1C38F0000F00
1C38F0000F00
E3C70E0070E0
E3C70E0070E0
E3C70E0070E0
003800000F00
003800000F00
003800000F00
03C7000070E0
03C7000070E0
03C7000070E0
03C7000070E0
003800000F00
003800000F00
003800000F00
03C70E3C70E0
03C70E3C70E0
03C70E3C70E0
0038F1C38F00
0038F1C38F00
0038F1C38F00
0038F1C38F00
03C70E3C7000
03C70E3C7000
03C70E3C7000
ENDCHAR
STARTCHAR 00F1
ENCODING 241
SWIDTH 690 0
DWIDTH 46 0
BBX 37 70 5 0
BITMAP
01C7801C78
01C7801C78
01C7801C78
1E38700380
1E38700380
1E38700380
1E38700380
E1C78E1C78
E1C78E1C78
E1C78E1C78
1E0071E380
1E0071E380
1E0071E380
E1C00E1C00
E1C00E1C00
E1C00E1C00
E1C00E1C00
0000000000
0000000000
0000000000
E1C0001C78
E1C0001C78
E1C0001C78
1E38000380
1E38000380
1E38000380
1E38000380
E1C7801C78
E1C7801C78
E1C7801C78
1E38700380
1E38700380
1E38700380
E1C78E1C78
E1C78E1C78
E1C78E1C78
E1C78E1C78
1E0071E380
1E0071E380
1E0071E380
E1C00E1C78
E1C00E1C78
E1C00E1C78
1E0001E380
1E0001E380
1E0001E380
1E0001E380
E1C0001C78
E1C0001C78
E1C0001C78
1E00000380
1E00000380
1E00000380
E1C0001C78
E1C0001C78
E1C0001C78
E1C0001C78
1E00000380
1E00000380
1E00000380
E1C0001C78
E1C0001C78
E1C0001C78
1E00000380
1E00000380
1E00000380
1E00000380
E1C0001C78
E1C0001C78
E1C0001C78
ENDCHAR
STARTCHAR 00F2
ENCODING 242
SWIDTH 690 0
DWIDTH 46 0
BBX 37 70 5 0
BITMAP
E1C0000000
E1C0000000
E1C0000000
1E38000000
1E38000000
1E38000000
1E38000000
01C7800000
01C7800000
01C7800000
0038700000
0038700000
0038700000
00078E0000
00078E0000
00078E0000
00078E0000
0000000000
0000000000
0000000000
01C78E1C00
01C78E1C00
01C78E1C00
1E3871E380
1E3871E380
1E3871E380
1E3871E380
E1C78E1C78
E1C78E1C78
E1C78E1C78
1E00000380
1E00000380
1E00000380
E1C0001C78
E1C0001C78
E1C0001C78
E1C0001C78
1E00000380
1E00000380
1E00000380
E1C0001C78
E1C0001C78
E1C0001C78
1E00000380
1E00000380
1E00000380
1E00000380
E1C0001C78
E1C0001C78
E1C0001C78
1E00000380
1E00000380
1E00000380
E1C0001C78
E1C0001C78
E1C0001C78
E1C0001C78
1E00000380
1E00000380
1E00000380
E1C78E1C78
E1C78E1C78
E1C78E1C78
1E3871E380
1E3871E380
1E3871E380
1E3871E380
01C78E1C00
01C78E1C00
01C78E1C00
ENDCHAR
STARTCHAR 00F3
ENCODING 243
SWIDTH 690 0
DWIDTH 46 0
BBX 37 70 5 0
BITMAP
000001E380
000001E380
000001E380
00000E1C00
00000E1C00
00000E1C00
00000E1C00
000071E000
000071E000
000071E000
00078E0000
00078E0000
00078E0000
0038700000
0038700000
0038700000
0038700000
0000000000
0000000000
0000000000
01C78E1C00
01C78E1C00
01C78E1C00
1E3871E380
1E3871E380
1E3871E380
1E3871E380
E1C78E1C78
E1C78E1C78
E1C78E1C78
1E00000380
1E00000380
1E00000380
E1C0001C78
E1C0001C78
E1C0001C78
E1C0001C78
1E00000380
1E00000380
1E00000380
E1C0001C78
E1C0001C78
E1C0001C78
1E00000380
1E00000380
1E00000380
1E00000380
E1C0001C78
E1C0001C78
E1C0001C78
1E00000380
1E00000380
1E00000380
E1C0001C78
E1C0001C78
E1C0001C78
E1C0001C78
1E00000380
1E00000380
1E00000380
E1C78E1C78
E1C78E1C78
E1C78E1C78
1E3871E380
1E3871E380
1E3871E380
1E3871E380
01C78E1C00
01C78E1C00
01C78E1C00
ENDCHAR
STARTCHAR 00F4
ENCODING 244
SWIDTH 690 0
DWIDTH 46 0
BBX 37 70 5 0
BITMAP
00078E0000
00078E0000
00078E0000
003871E000
003871E000
003871E000
003871E000
01C78E1C00
01C78E1C00
01C78E1C00
003801E000
003801E000
003801E000
01C78E1C00
01C78E1C00
01C78E1C00
01C78E1C00
0000000000
0000000000
0000000000
01C78E1C00
01C78E1C00
01C78E1C00
1E3871E380
1E3871E380
1E3871E380
1E3871E380
E1C78E1C78
E1C78E1C78
E1C78E1C78
1E00000380
1E00000380
1E00000380
E1C0001C78
E1C0001C78
E1C0001C78
E1C0001C78
1E00000380
1E00000380
1E00000380
E1C0001C78
E1C0001C78
E1C0001C78
1E00000380
1E00000380
1E00000380
1E00000380
E1C0001C78
E1C0001C78
E1C0001C78
1E00000380
1E00000380
1E00000380
E1C0001C78
E1C0001C78
E1C0001C78
E1C0001C78
1E00000380
1E00000380
1E00000380
E1C78E1C78
E1C78E1C78
E1C78E1C78
1E3871E380
1E3871E380
1E3871E380
1E3871E380
01C78E1C00
01C78E1C00
01C78E1C00
ENDCHAR
STARTCHAR 00F5
ENCODING 245
SWIDTH 690 0
DWIDTH 46 0
BBX 37 70 5 0
BITMAP
01C7801C78
01C7801C78
01C7801C78
1E38700380
1E38700380
1E38700380
1E38700380
E1C78E1C78
E1C78E1C78
E1C78E1C78
1E0071E380
1E0071E380
1E0071E380
E1C00E1C00
E1C00E1C00
E1C00E1C00
E1C00E1C00
0000000000
0000000000
0000000000
01C78E1C00
01C78E1C00
01C78E1C00
1E3871E380
1E3871E380
1E3871E380
1E3871E380
E1C78E1C78
E1C78E1C78
E1C78E1C78
1E00000380
1E00000380
1E00000380
E1C0001C78
E1C0001C78
E1C0001C78
E1C0001C78
1E00000380
1E00000380
1E00000380
E1C0001C78
E1C0001C78
E1C0001C78
1E00000380
1E00000380
1E00000380
1E00000380
E1C0001C78
E1C0001C78
E1C0001C78
1E00000380
1E00000380
1E00000380
E1C0001C78
E1C0001C78
E1C0001C78
E1C0001C78
1E00000380
1E00000380
1E00000380
E1C78E1C78
E1C78E1C78
E1C78E1C78
1E3871E380
1E3871E380
1E3871E380
1E3871E380
01C78E1C00
01C78E1C00
01C78E1C00
ENDCHAR
STARTCHAR 00F6
ENCODING 246
SWIDTH 690 0
DWIDTH 46 0
BBX 37 63 5 0
BITMAP
01C78E1C00
01C78E1C00
01C78E1C00
003801E000
003801E000
003801E000
01C78E1C00
01C78E1C00
01C78E1C00
01C78E1C00
0000000000
0000000000
0000000000
01C78E1C00
01C78E1C00
01C78E1C00
1E3871E380
1E3871E380
1E3871E380
1E3871E380
E1C78E1C78
E1C78E1C78
E1C78E1C78
1E00000380
1E00000380
1E00000380
E1C0001C78
E1C0001C78
E1C0001C78
E1C0001C78
1E00000380
1E00000380
1E00000380
E1C0001C78
E1C0001C78
E1C0001C78
1E00000380
1E00000380
1E00000380
1E00000380
E1C0001C78
E1C0001C78
E1C0001C78
1E00000380
1E00000380
1E00000380
E1C0001C78
E1C0001C78
E1C0001C78
E1C0001C78
1E00000380
1E00000380
1E00000380
E1C78E1C78
E1C78E1C78
E1C78E1C78
1E3871E380
1E3871E380
1E3871E380
1E3871E380
01C78E1C00
01C78E1C00
01C78E1C00
ENDCHAR
STARTCHAR 00F7
ENCODING 247
SWIDTH 690 0
DWIDTH 46 0
BBX 37 36 5 7
BITMAP
00078E0000
00078E0000
00078E0000
0000700000
0000700000
0000700000
00078E0000
00078E0000
00078E0000
00078E0000
0000000000
0000000000
0000000000
E1C78E1C78
E1C78E1C78
E1C78E1C78
1E3871E380
1E3871E380
1E3871E380
1E3871E380
E1C78E1C78
E1C78E1C78
E1C78E1C78
0000000000
0000000000
0000000000
00078E0000
00078E0000
00078E0000
00078E0000
0000700000
0000700000
0000700000
00078E0000
00078E0000
00078E0000
ENDCHAR
STARTCHAR 00F8
ENCODING 248
SWIDTH 795 0
DWIDTH 53 0
BBX 50 50 2 0
BITMAP
00070E3C700000
00070E3C700000
00070E3C700000
0038F1C38F0000
0038F1C38F0000
0038F1C38F0000
0038F1C38F0000
03C70E3C70E000
03C70E3C70E000
03C70E3C70E000
003800000F0000
003800000F0000
003800000F0000
03C7000070E000
03C7000070E000
03C7000070E000
03C7000070E000
003800000F0000
003800000F0000
003800000F0000
E3C70E3C70E3C0
E3C70E3C70E3C0
E3C70E3C70E3C0
1C38F1C38F1C00
1C38F1C38F1C00
1C38F1C38F1C00
1C38F1C38F1C00
E3C70E3C70E3C0
E3C70E3C70E3C0
E3C70E3C70E3C0
003800000F0000
003800000F0000
003800000F0000
03C7000070E000
03C7000070E000
03C7000070E000
03C7000070E000
003800000F0000
003800000F0000
003800000F0000
03C70E3C70E000
03C70E3C70E000
03C70E3C70E000
0038F1C38F0000
0038F1C38F0000
0038F1C38F0000
0038F1C38F0000
00070E3C700000
00070E3C700000
00070E3C700000
ENDCHAR
STARTCHAR 00F9
ENCODING 249
SWIDTH 690 0
DWIDTH 46 0
BBX 37 70 5 0
BITMAP
E1C0000000
E1C0000000
E1C0000000
1E38000000
1E38000000
1E38000000
1E38000000
01C7800000
01C7800000
01C7800000
0038700000
0038700000
0038700000
00078E0000
00078E0000
00078E0000
00078E0000
0000000000
0000000000
0000000000
E1C0001C78
E1C0001C78
E1C0001C78
1E00000380
1E00000380
1E00000380
1E00000380
E1C0001C78
E1C0001C78
E1C0001C78
1E00000380
1E00000380
1E00000380
E1C0001C78
E1C0001C78
E1C0001C78
E1C0001C78
1E00000380
1E00000380
1E00000380
E1C0001C78
E1C0001C78
E1C0001C78
1E00000380
1E00000380
1E00000380
1E00000380
E1C0001C78
E1C0001C78
E1C0001C78
1E00000380
1E00000380
1E00000380
E1C0001C78
E1C0001C78
E1C0001C78
E1C0001C78
1E00000380
1E00000380
1E00000380
E1C78E1C78
E1C78E1C78
E1C78E1C78
1E3871E380
1E3871E380
1E3871E380
1E3871E380
01C78E1C00
01C78E1C00
01C78E1C00
ENDCHAR
STARTCHAR 00FA
ENCODING 250
SWIDTH 690 0
DWIDTH 46 0
BBX 37 70 5 0
BITMAP
000001E380
000001E380
000001E380
00000E1C00
00000E1C00
00000E1C00
00000E1C00
000071E000
000071E000
000071E000
00078E0000
00078E0000
00078E0000
0038700000
0038700000
0038700000
0038700000
0000000000
0000000000
0000000000
E1C0001C78
E1C0001C78
E1C0001C78
1E00000380
1E00000380
1E00000380
1E00000380
E1C0001C78
E1C0001C78
E1C0001C78
1E00000380
1E00000380
1E00000380
E1C0001C78
E1C0001C78
E1C0001C78
E1C0001C78
1E00000380
1E00000380
1E00000380
E1C0001C78
E1C0001C78
E1C0001C78
1E00000380
1E00000380
1E00000380
1E00000380
E1C0001C78
E1C0001C78
E1C0001C78
1E00000380
1E00000380
1E00000380
E1C0001C78
E1C0001C78
E1C0001C78
E1C0001C78
1E00000380
1E00000380
1E00000380
E1C78E1C78
E1C78E1C78
E1C78E1C78
1E3871E380
1E3871E380
1E3871E380
1E3871E380
01C78E1C00
01C78E1C00
01C78E1C00
ENDCHAR
STARTCHAR 00FB
ENCODING 251
SWIDTH 690 0
DWIDTH 46 0
BBX 37 70 5 0
BITMAP
00078E0000
00078E0000
00078E0000
003871E000
003871E000
003871E000
003871E000
01C78E1C00
01C78E1C00
01C78E1C00
003801E000
003801E000
003801E000
01C78E1C00
01C78E1C00
01C78E1C00
01C78E1C00
0000000000
0000000000
0000000000
E1C0001C78
E1C0001C78
E1C0001C78
1E00000380
1E00000380
1E00000380
1E00000380
E1C0001C78
E1C0001C78
E1C0001C78
1E00000380
1E00000380
1E00000380
E1C0001C78
E1C0001C78
E1C0001C78
E1C0001C78
1E00000380
1E00000380
1E00000380
E1C0001C78
E1C0001C78
E1C0001C78
1E00000380
1E00000380
1E00000380
1E00000380
E1C0001C78
E1C0001C78
E1C0001C78
1E00000380
1E00000380
1E00000380
E1C0001C78
E1C0001C78
E1C0001C78
E1C0001C78
1E00000380
1E00000380
1E00000380
E1C78E1C78
E1C78E1C78
E1C78E1C78
1E3871E380
1E3871E380
1E3871E380
1E3871E380
01C78E1C00
01C78E1C00
01C78E1C00
ENDCHAR
STARTCHAR 00FC
ENCODING 252
SWIDTH 690 0
DWIDTH 46 0
BBX 37 63 5 0
BITMAP
01C78E1C00
01C78E1C00
01C78E1C00
003801E000
003801E000
003801E000
01C78E1C00
01C78E1C00
01C78E1C00
01C78E1C00
0000000000
0000000000
0000000000
E1C0001C78
E1C0001C78
E1C0001C78
1E00000380
1E00000380
1E00000380
1E00000380
E1C0001C78
E1C0001C78
E1C0001C78
1E00000380
1E00000380
1E00000380
E1C0001C78
E1C0001C78
E1C0001C78
E1C0001C78
1E00000380
1E00000380
1E00000380
E1C0001C78
E1C0001C78
E1C0001C78
1E00000380
1E00000380
1E00000380
1E00000380
E1C0001C78
E1C0001C78
E1C0001C78
1E00000380
1E00000380
1E00000380
E1C0001C78
E1C0001C78
E1C0001C78
E1C0001C78
1E00000380
1E00000380
1E00000380
E1C78E1C78
E1C78E1C78
E1C78E1C78
1E3871E380
1E3871E380
1E3871E380
1E3871E380
01C78E1C00
01C78E1C00
01C78E1C00
ENDCHAR
STARTCHAR 00FD
ENCODING 253
SWIDTH 690 0
DWIDTH 46 0
BBX 37 70 5 0
BITMAP
000001E380
000001E380
000001E380
00000E1C00
00000E1C00
00000E1C00
00000E1C00
000071E000
000071E000
000071E000
00078E0000
00078E0000
00078E0000
0038700000
0038700000
0038700000
0038700000
0000000000
0000000000
0000000000
E1C0001C78
E1C0001C78
E1C0001C78
1E00000380
1E00000380
1E00000380
1E00000380
E1C0001C78
E1C0001C78
E1C0001C78
1E00000380
1E00000380
1E00000380
E1C0001C78
E1C0001C78
E1C0001C78
E1C0001C78
1E00000380
1E00000380
1E00000380
E1C0001C78
E1C0001C78
E1C0001C78
1E00000380
1E00000380
1E00000380
1E00000380
E1C78E1C78
E1C78E1C78
E1C78E1C78
1E3871E380
1E3871E380
1E3871E380
01C78E1C00
01C78E1C00
01C78E1C00
01C78E1C00
0000700000
0000700000
0000700000
00078E0000
00078E0000
00078E0000
0000700000
0000700000
0000700000
0000700000
00078E0000
00078E0000
00078E0000
ENDCHAR
STARTCHAR 00FE
ENCODING 254
SWIDTH 690 0
DWIDTH 46 0
BBX 37 50 5 0
BITMAP
E1C0000000
E1C0000000
E1C0000000
1E00000000
1E00000000
1E00000000
1E00000000
E1C78E1C00
E1C78E1C00
E1C78E1C00
1E3871E380
1E3871E380
1E3871E380
E1C78E1C78
E1C78E1C78
E1C78E1C78
E1C78E1C78
1E00000380
1E00000380
1E00000380
E1C0001C78
E1C0001C78
E1C0001C78
1E00000380
1E00000380
1E00000380
1E00000380
E1C0001C78
E1C0001C78
E1C0001C78
1E00000380
1E00000380
1E00000380
E1C78E1C78
E1C78E1C78
E1C78E1C78
E1C78E1C78
1E3871E380
1E3871E380
1E3871E380
E1C78E1C00
E1C78E1C00
E1C78E1C00
1E00000000
1E00000000
1E00000000
1E00000000
E1C0000000
E1C0000000
E1C0000000
ENDCHAR
STARTCHAR 00FF
ENCODING 255
SWIDTH 690 0
DWIDTH 46 0
BBX 37 63 5 0
BITMAP
01C78E1C00
01C78E1C00
01C78E1C00
003801E000
003801E000
003801E000
01C78E1C00
01C78E1C00
01C78E1C00
01C78E1C00
0000000000
0000000000
0000000000
E1C0001C78
E1C0001C78
E1C0001C78
1E00000380
1E00000380
1E00000380
1E00000380
E1C0001C78
E1C0001C78
E1C0001C78
1E00000380
1E00000380
1E00000380
E1C0001C78
E1C0001C78
E1C0001C78
E1C0001C78
1E00000380
1E00000380
1E00000380
E1C0001C78
E1C0001C78
E1C0001C78
1E00000380
1E00000380
1E00000380
1E00000380
E1C78E1C78
E1C78E1C78
E1C78E1C78
1E3871E380
1E3871E380
1E3871E380
01C78E1C00
01C78E1C00
01C78E1C00
01C78E1C00
0000700000
0000700000
0000700000
00078E0000
00078E0000
00078E0000
0000700000
0000700000
0000700000
0000700000
00078E0000
00078E0000
00078E0000
ENDCHAR
STARTCHAR 0100
ENCODING 256
SWIDTH 690 0
DWIDTH 46 0
BBX 37 63 5 0
BITMAP
01C78E1C00
01C78E1C00
01C78E1C00
003871E000
003871E000
003871E000
01C78E1C00
01C78E1C00
01C78E1C00
01C78E1C00
0000000000
0000000000
0000000000
00078E0000
00078E0000
00078E0000
003871E000
003871E000
003871E000
003871E000
01C78E1C00
01C78E1C00
01C78E1C00
1E3801E380
1E3801E380
1E3801E380
E1C0001C78
E1C0001C78
E1C0001C78
E1C0001C78
1E00000380
1E00000380
1E00000380
E1C0001C78
E1C0001C78
E1C0001C78
1E00000380
1E00000380
1E00000380
1E00000380
E1C78E1C78
E1C78E1C78
E1C78E1C78
1E3871E380
1E3871E380
1E3871E380
E1C78E1C78
E1C78E1C78
E1C78E1C78
E1C78E1C78
1E00000380
1E00000380
1E00000380
E1C0001C78
E1C0001C78
E1C0001C78
1E00000380
1E00000380
1E00000380
1E00000380
E1C0001C78
E1C0001C78
E1C0001C78
ENDCHAR
STARTCHAR 0101
ENCODING 257
SWIDTH 690 0
DWIDTH 46 0
BBX 37 63 5 0
BITMAP
01C78E1C00
01C78E1C00
01C78E1C00
003871E000
003871E000
003871E000
01C78E1C00
01C78E1C00
01C78E1C00
01C78E1C00
0000000000
0000000000
0000000000
01C78E1C00
01C78E1C00
01C78E1C00
1E3871E380
1E3871E380
1E3871E380
1E3871E380
E1C78E1C78
E1C78E1C78
E1C78E1C78
1E00000380
1E00000380
1E00000380
E1C0001C78
E1C0001C78
E1C0001C78
E1C0001C78
1E00000380
1E00000380
1E00000380
E1C0001C78
E1C0001C78
E1C0001C78
1E00000380
1E00000380
1E00000380
1E00000380
E1C78E1C78
E1C78E1C78
E1C78E1C78
1E3871E380
1E3871E380
1E3871E380
E1C78E1C78
E1C78E1C78
E1C78E1C78
E1C78E1C78
1E00000380
1E00000380
1E00000380
E1C0001C78
E1C0001C78
E1C0001C78
1E00000380
1E00000380
1E00000380
1E00000380
E1C0001C78
E1C0001C78
E1C0001C78
ENDCHAR
STARTCHAR 0102
ENCODING 258
SWIDTH 690 0
DWIDTH 46 0
BBX 37 70 5 0
BITMAP
1E3801E380
1E3801E380
1E3801E380
01C0001C00
01C0001C00
01C0001C00
01C0001C00
1E3871E380
1E3871E380
1E3871E380
01C78E1C00
01C78E1C00
01C78E1C00
003871E000
003871E000
003871E000
003871E000
0000000000
0000000000
0000000000
00078E0000
00078E0000
00078E0000
003871E000
003871E000
003871E000
003871E000
01C78E1C00
01C78E1C00
01C78E1C00
1E3801E380
1E3801E380
1E3801E380
E1C0001C78
E1C0001C78
E1C0001C78
E1C0001C78
1E00000380
1E00000380
1E00000380
E1C0001C78
E1C0001C78
E1C0001C78
1E00000380
1E00000380
1E00000380
1E00000380
E1C78E1C78
E1C78E1C78
E1C78E1C78
1E3871E380
1E3871E380
1E3871E380
E1C78E1C78
E1C78E1C78
E1C78E1C78
E1C78E1C78
1E00000380
1E00000380
1E00000380
E1C0001C78
E1C0001C78
E1C0001C78
1E00000380
1E00000380
1E00000380
1E00000380
E1C0001C78
E1C0001C78
E1C0001C78
ENDCHAR
STARTCHAR 0103
ENCODING 259
SWIDTH 690 0
DWIDTH 46 0
BBX 37 70 5 0
BITMAP
1E3801E380
1E3801E380
1E3801E380
01C0001C00
01C0001C00
01C0001C00
01C0001C00
1E3871E380
1E3871E380
1E3871E380
01C78E1C00
01C78E1C00
01C78E1C00
003871E000
003871E000
003871E000
003871E000
0000000000
0000000000
0000000000
01C78E1C00
01C78E1C00
01C78E1C00
1E3871E380
1E3871E380
1E3871E380
1E3871E380
E1C78E1C78
E1C78E1C78
E1C78E1C78
1E00000380
1E00000380
1E00000380
E1C0001C78
E1C0001C78
E1C0001C78
E1C0001C78
1E00000380
1E00000380
1E00000380
E1C0001C78
E1C0001C78
E1C0001C78
1E00000380
1E00000380
1E00000380
1E00000380
E1C78E1C78
E1C78E1C78
E1C78E1C78
1E3871E380
1E3871E380
1E3871E380
E1C78E1C78
E1C78E1C78
E1C78E1C78
E1C78E1C78
1E00000380
1E00000380
1E00000380
E1C0001C78
E1C0001C78
E1C0001C78
1E00000380
1E00000380
1E00000380
1E00000380
E1C0001C78
E1C0001C78
E1C0001C78
ENDCHAR
STARTCHAR 0104
ENCODING 260
SWIDTH 690 0
DWIDTH 46 0
BBX 43 63 5 -13
BITMAP
00078E000000
00078E000000
00078E000000
003871E00000
003871E00000
003871E00000
003871E00000
01C78E1C0000
01C78E1C0000
01C78E1C0000
1E3801E38000
1E3801E38000
1E3801E38000
E1C0001C7800
E1C0001C7800
E1C0001C7800
E1C0001C7800
1E0000038000
1E0000038000
1E0000038000
E1C0001C7800
E1C0001C7800
E1C0001C7800
1E0000038000
1E0000038000
1E0000038000
1E0000038000
E1C78E1C7800
E1C78E1C7800
E1C78E1C7800
1E3871E38000
1E3871E38000
1E3871E38000
E1C78E1C7800
E1C78E1C7800
E1C78E1C7800
E1C78E1C7800
1E0000038000
1E0000038000
1E0000038000
E1C0001C7800
E1C0001C7800
E1C0001C7800
1E0000038000
1E0000038000
1E0000038000
1E0000038000
E1C0001C7800
E1C0001C7800
E1C0001C7800
000000038000
000000038000
000000038000
0000001C78E0
0000001C78E0
0000001C78E0
0000001C78E0
000000038700
000000038700
000000038700
0000000078E0
0000000078E0
0000000078E0
ENDCHAR
STARTCHAR 0105
ENCODING 261
SWIDTH 690 0
DWIDTH 46 0
BBX 43 63 5 -13
BITMAP
01C78E1C0000
01C78E1C0000
01C78E1C0000
1E3871E38000
1E3871E38000
1E3871E38000
1E3871E38000
E1C78E1C7800
E1C78E1C7800
E1C78E1C7800
1E0000038000
1E0000038000
1E0000038000
E1C0001C7800
E1C0001C7800
E1C0001C7800
E1C0001C7800
1E0000038000
1E0000038000
1E0000038000
E1C0001C7800
E1C0001C7800
E1C0001C7800
1E0000038000
1E0000038000
1E0000038000
1E0000038000
E1C78E1C7800
E1C78E1C7800
E1C78E1C7800
1E3871E38000
1E3871E38000
1E3871E38000
E1C78E1C7800
E1C78E1C7800
E1C78E1C7800
E1C78E1C7800
1E0000038000
1E0000038000
1E0000038000
E1C0001C7800
E1C0001C7800
E1C0001C7800
1E0000038000
1E0000038000
1E0000038000
1E0000038000
E1C0001C7800
E1C0001C7800
E1C0001C7800
000000038000
000000038000
000000038000
0000001C78E0
0000001C78E0
0000001C78E0
0000001C78E0
000000038700
000000038700
000000038700
0000000078E0
0000000078E0
0000000078E0
ENDCHAR
STARTCHAR 0106
ENCODING 262
SWIDTH 795 0
DWIDTH 53 0
BBX 43 70 5 0
BITMAP
0000001C7800
0000001C7800
0000001C7800
000001E38000
000001E38000
000001E38000
000001E38000
00000E1C0000
00000E1C0000
00000E1C0000
000071E00000
000071E00000
000071E00000
00078E000000
00078E000000
00078E000000
00078E000000
000000000000
000000000000
000000000000
00078E1C0000
00078E1C0000
00078E1C0000
003871E38000
003871E38000
003871E38000
003871E38000
01C78E1C7800
01C78E1C7800
01C78E1C7800
1E3800038700
1E3800038700
1E3800038700
E1C0000078E0
E1C0000078E0
E1C0000078E0
E1C0000078E0
1E0000000700
1E0000000700
1E0000000700
E1C0000078E0
E1C0000078E0
E1C0000078E0
1E0000000000
1E0000000000
1E0000000000
1E0000000000
E1C000000000
E1C000000000
E1C000000000
1E0000000000
1E0000000000
1E0000000000
E1C0000078E0
E1C0000078E0
E1C0000078E0
E1C0000078E0
1E3800038700
1E3800038700
1E3800038700
01C78E1C7800
01C78E1C7800
01C78E1C7800
003871E38000
003871E38000
003871E38000
003871E38000
00078E1C0000
00078E1C0000
00078E1C0000
ENDCHAR
STARTCHAR 0107
ENCODING 263
SWIDTH 690 0
DWIDTH 46 0
BBX 37 70 5 0
BITMAP
000001E380
000001E380
000001E380
00000E1C00
00000E1C00
00000E1C00
00000E1C00
000071E000
000071E000
000071E000
00078E0000
00078E0000
00078E0000
0038700000
0038700000
0038700000
0038700000
0000000000
0000000000
0000000000
01C78E1C00
01C78E1C00
01C78E1C00
1E3871E380
1E3871E380
1E3871E380
1E3871E380
E1C78E1C78
E1C78E1C78
E1C78E1C78
1E00000380
1E00000380
1E00000380
E1C0001C78
E1C0001C78
E1C0001C78
E1C0001C78
1E00000380
1E00000380
1E00000380
E1C0001C78
E1C0001C78
E1C0001C78
1E00000000
1E00000000
1E00000000
1E00000000
E1C0000000
E1C0000000
E1C0000000
1E00000000
1E00000000
1E00000000
E1C0001C78
E1C0001C78
E1C0001C78
E1C0001C78
1E00000380
1E00000380
1E00000380
E1C78E1C78
E1C78E1C78
E1C78E1C78
1E3871E380
1E3871E380
1E3871E380
1E3871E380
01C78E1C00
01C78E1C00
01C78E1C00
ENDCHAR
STARTCHAR 010A
ENCODING 266
SWIDTH 795 0
DWIDTH 53 0
BBX 43 63 5 0
BITMAP
000071E00000
000071E00000
000071E00000
00000E000000
00000E000000
00000E000000
000071E00000
000071E00000
000071E00000
000071E00000
000000000000
000000000000
000000000000
00078E1C0000
00078E1C0000
00078E1C0000
003871E38000
003871E38000
003871E38000
003871E38000
01C78E1C7800
01C78E1C7800
01C78E1C7800
1E3800038700
1E3800038700
1E3800038700
E1C0000078E0
E1C0000078E0
E1C0000078E0
E1C0000078E0
1E0000000700
1E0000000700
1E0000000700
E1C0000078E0
E1C0000078E0
E1C0000078E0
1E0000000000
1E0000000000
1E0000000000
1E0000000000
E1C000000000
E1C000000000
E1C000000000
1E0000000000
1E0000000000
1E0000000000
E1C0000078E0
E1C0000078E0
E1C0000078E0
E1C0000078E0
1E3800038700
1E3800038700
1E3800038700
01C78E1C7800
01C78E1C7800
01C78E1C7800
003871E38000
003871E38000
003871E38000
003871E38000
00078E1C0000
00078E1C0000
00078E1C0000
ENDCHAR
STARTCHAR 010B
ENCODING 267
SWIDTH 690 0
DWIDTH 46 0
BBX 37 63 5 0
BITMAP
00078E0000
00078E0000
00078E0000
0000700000
0000700000
0000700000
00078E0000
00078E0000
00078E0000
00078E0000
0000000000
0000000000
0000000000
01C78E1C00
01C78E1C00
01C78E1C00
1E3871E380
1E3871E380
1E3871E380
1E3871E380
E1C78E1C78
E1C78E1C78
E1C78E1C78
1E00000380
1E00000380
1E00000380
E1C0001C78
E1C0001C78
E1C0001C78
E1C0001C78
1E00000380
1E00000380
1E00000380
E1C0001C78
E1C0001C78
E1C0001C78
1E00000000
1E00000000
1E00000000
1E00000000
E1C0000000
E1C0000000
E1C0000000
1E00000000
1E00000000
1E00000000
E1C0001C78
E1C0001C78
E1C0001C78
E1C0001C78
1E00000380
1E00000380
1E00000380
E1C78E1C78
E1C78E1C78
E1C78E1C78
1E3871E380
1E3871E380
1E3871E380
1E3871E380
01C78E1C00
01C78E1C00
01C78E1C00
ENDCHAR
STARTCHAR 010C
ENCODING 268
SWIDTH 795 0
DWIDTH 53 0
BBX 43 70 5 0
BITMAP
003871E38000
003871E38000
003871E38000
0007801C0000
0007801C0000
0007801C0000
0007801C0000
003871E38000
003871E38000
003871E38000
00078E1C0000
00078E1C0000
00078E1C0000
000071E00000
000071E00000
000071E00000
000071E00000
000000000000
000000000000
000000000000
00078E1C0000
00078E1C0000
00078E1C0000
003871E38000
003871E38000
003871E38000
003871E38000
01C78E1C7800
01C78E1C7800
01C78E1C7800
1E3800038700
1E3800038700
1E3800038700
E1C0000078E0
E1C0000078E0
E1C0000078E0
E1C0000078E0
1E0000000700
1E0000000700
1E0000000700
E1C0000078E0
E1C0000078E0
E1C0000078E0
1E0000000000
1E0000000000
1E0000000000
1E0000000000
E1C000000000
E1C000000000
E1C000000000
1E0000000000
1E0000000000
1E0000000000
E1C0000078E0
E1C0000078E0
E1C0000078E0
E1C0000078E0
1E3800038700
1E3800038700
1E3800038700
01C78E1C7800
01C78E1C7800
01C78E1C7800
003871E38000
003871E38000
003871E38000
003871E38000
00078E1C0000
00078E1C0000
00078E1C0000
ENDCHAR
STARTCHAR 010D
ENCODING 269
SWIDTH 690 0
DWIDTH 46 0
BBX 37 70 5 0
BITMAP
01C78E1C00
01C78E1C00
01C78E1C00
003801E000
003801E000
003801E000
003801E000
01C78E1C00
01C78E1C00
01C78E1C00
003871E000
003871E000
003871E000
00078E0000
00078E0000
00078E0000
00078E0000
0000000000
0000000000
0000000000
01C78E1C00
01C78E1C00
01C78E1C00
1E3871E380
1E3871E380
1E3871E380
1E3871E380
E1C78E1C78
E1C78E1C78
E1C78E1C78
1E00000380
1E00000380
1E00000380
E1C0001C78
E1C0001C78
E1C0001C78
E1C0001C78
1E00000380
1E00000380
1E00000380
E1C0001C78
E1C0001C78
E1C0001C78
1E00000000
1E00000000
1E00000000
1E00000000
E1C0000000
E1C0000000
E1C0000000
1E00000000
1E00000000
1E00000000
E1C0001C78
E1C0001C78
E1C0001C78
E1C0001C78
1E00000380
1E00000380
1E00000380
E1C78E1C78
E1C78E1C78
E1C78E1C78
1E3871E380
1E3871E380
1E3871E380
1E3871E380
01C78E1C00
01C78E1C00
01C78E1C00
ENDCHAR
STARTCHAR 010E
ENCODING 270
SWIDTH 795 0
DWIDTH 53 0
BBX 43 70 5 0
BITMAP
003871E38000
003871E38000
003871E38000
0007801C0000
0007801C0000
0007801C0000
0007801C0000
003871E38000
003871E38000
003871E38000
00078E1C0000
00078E1C0000
00078E1C0000
000071E00000
000071E00000
000071E00000
000071E00000
000000000000
000000000000
000000000000
E1C78E1C0000
E1C78E1C0000
E1C78E1C0000
1E3871E38000
1E3871E38000
1E3871E38000
1E3871E38000
E1C78E1C7800
E1C78E1C7800
E1C78E1C7800
1E0000038700
1E0000038700
1E0000038700
E1C0000078E0
E1C0000078E0
E1C0000078E0
E1C0000078E0
1E0000000700
1E0000000700
1E0000000700
E1C0000078E0
E1C0000078E0
E1C0000078E0
1E0000000700
1E0000000700
1E0000000700
1E0000000700
E1C0000078E0
E1C0000078E0
E1C0000078E0
1E0000000700
1E0000000700
1E0000000700
E1C0000078E0
E1C0000078E0
E1C0000078E0
E1C0000078E0
1E0000038700
1E0000038700
1E0000038700
E1C78E1C7800
E1C78E1C7800
E1C78E1C7800
1E3871E38000
1E3871E38000
1E3871E38000
1E3871E38000
E1C78E1C0000
E1C78E1C0000
E1C78E1C0000
ENDCHAR
STARTCHAR 010F
ENCODING 271
SWIDTH 690 0
DWIDTH 46 0
BBX 37 70 5 0
BITMAP
01C78E1C00
01C78E1C00
01C78E1C00
003801E000
003801E000
003801E000
003801E000
01C78E1C00
01C78E1C00
01C78E1C00
003871E000
003871E000
003871E000
00078E0000
00078E0000
00078E0000
00078E0000
0000000000
0000000000
0000000000
E1C78E1C00
E1C78E1C00
E1C78E1C00
1E3871E380
1E3871E380
1E3871E380
1E3871E380
E1C78E1C78
E1C78E1C78
E1C78E1C78
1E00000380
1E00000380
1E00000380
E1C0001C78
E1C0001C78
E1C0001C78
E1C0001C78
1E00000380
1E00000380
1E00000380
E1C0001C78
E1C0001C78
E1C0001C78
1E00000380
1E00000380
1E00000380
1E00000380
E1C0001C78
E1C0001C78
E1C0001C78
1E00000380
1E00000380
1E00000380
E1C0001C78
E1C0001C78
E1C0001C78
E1C0001C78
1E00000380
1E00000380
1E00000380
E1C78E1C78
E1C78E1C78
E1C78E1C78
1E3871E380
1E3871E380
1E3871E380
1E3871E380
E1C78E1C00
E1C78E1C00
E1C78E1C00
ENDCHAR
STARTCHAR 0110
ENCODING 272
SWIDTH 840 0
DWIDTH 56 0
BBX 50 50 2 0
BITMAP
03C70E3C700000
03C70E3C700000
03C70E3C700000
0038F1C38F0000
0038F1C38F0000
0038F1C38F0000
0038F1C38F0000
03C70E3C70E000
03C70E3C70E000
03C70E3C70E000
003800000F1C00
003800000F1C00
003800000F1C00
03C7000000E3C0
03C7000000E3C0
03C7000000E3C0
03C7000000E3C0
00380000001C00
00380000001C00
00380000001C00
E3C70E0000E3C0
E3C70E0000E3C0
E3C70E0000E3C0
1C38F000001C00
1C38F000001C00
1C38F000001C00
1C38F000001C00
E3C70E0000E3C0
E3C70E0000E3C0
E3C70E0000E3C0
00380000001C00
00380000001C00
00380000001C00
03C7000000E3C0
03C7000000E3C0
03C7000000E3C0
03C7000000E3C0
003800000F1C00
003800000F1C00
003800000F1C00
03C70E3C70E000
03C70E3C70E000
03C70E3C70E000
0038F1C38F0000
0038F1C38F0000
0038F1C38F0000
0038F1C38F0000
03C70E3C700000
03C70E3C700000
03C70E3C700000
ENDCHAR
STARTCHAR 0111
ENCODING 273
SWIDTH 750 0
DWIDTH 50 0
BBX 43 50 2 0
BITMAP
03C70E3C7000
03C70E3C7000
03C70E3C7000
0038F1C38F00
0038F1C38F00
0038F1C38F00
0038F1C38F00
03C70E3C70E0
03C70E3C70E0
03C70E3C70E0
003800000F00
003800000F00
003800000F00
03C7000070E0
03C7000070E0
03C7000070E0
03C7000070E0
003800000F00
003800000F00
003800000F00
E3C70E0070E0
E3C70E0070E0
E3C70E0070E0
1C38F0000F00
1C38F0000F00
1C38F0000F00
1C38F0000F00
E3C70E0070E0
E3C70E0070E0
E3C70E0070E0
003800000F00
003800000F00
003800000F00
03C7000070E0
03C7000070E0
03C7000070E0
03C7000070E0
003800000F00
003800000F00
003800000F00
03C70E3C70E0
03C70E3C70E0
03C70E3C70E0
0038F1C38F00
0038F1C38F00
0038F1C38F00
0038F1C38F00
03C70E3C7000
03C70E3C7000
03C70E3C7000
ENDCHAR
STARTCHAR 0112
ENCODING 274
SWIDTH 690 0
DWIDTH 46 0
BBX 37 63 5 0
BITMAP
01C78E1C00
01C78E1C00
01C78E1C00
003871E000
003871E000
003871E000
01C78E1C00
01C78E1C00
01C78E1C00
01C78E1C00
0000000000
0000000000
0000000000
00078E1C78
00078E1C78
00078E1C78
003871E380
003871E380
003871E380
003871E380
01C78E1C78
01C78E1C78
01C78E1C78
1E38000000
1E38000000
1E38000000
E1C0000000
E1C0000000
E1C0000000
E1C0000000
1E00000000
1E00000000
1E00000000
E1C78E1C00
E1C78E1C00
E1C78E1C00
1E3871E000
1E3871E000
1E3871E000
1E3871E000
E1C78E1C00
E1C78E1C00
E1C78E1C00
1E00000000
1E00000000
1E00000000
E1C0000000
E1C0000000
E1C0000000
E1C0000000
1E38000000
1E38000000
1E38000000
01C78E1C78
01C78E1C78
01C78E1C78
003871E380
003871E380
003871E380
003871E380
00078E1C78
00078E1C78
00078E1C78
ENDCHAR
STARTCHAR 0113
ENCODING 275
SWIDTH 690 0
DWIDTH 46 0
BBX 37 63 5 0
BITMAP
01C78E1C00
01C78E1C00
01C78E1C00
003871E000
003871E000
003871E000
01C78E1C00
01C78E1C00
01C78E1C00
01C78E1C00
0000000000
0000000000
0000000000
01C78E1C78
01C78E1C78
01C78E1C78
1E3871E380
1E3871E380
1E3871E380
1E3871E380
E1C78E1C78
E1C78E1C78
E1C78E1C78
1E00000000
1E00000000
1E00000000
E1C0000000
E1C0000000
E1C0000000
E1C0000000
1E00000000
1E00000000
1E00000000
E1C78E1C00
E1C78E1C00
E1C78E1C00
1E3871E000
1E3871E000
1E3871E000
1E3871E000
E1C78E1C00
E1C78E1C00
E1C78E1C00
1E00000000
1E00000000
1E00000000
E1C0000000
E1C0000000
E1C0000000
E1C0000000
1E00000000
1E00000000
1E00000000
E1C78E1C78
E1C78E1C78
E1C78E1C78
1E3871E380
1E3871E380
1E3871E380
1E3871E380
01C78E1C78
01C78E1C78
01C78E1C78
ENDCHAR
STARTCHAR 0116
ENCODING 278
SWIDTH 690 0
DWIDTH 46 0
BBX 37 63 5 0
BITMAP
00078E0000
00078E0000
00078E0000
0000700000
0000700000
0000700000
00078E0000
00078E0000
00078E0000
00078E0000
0000000000
0000000000
0000000000
00078E1C78
00078E1C78
00078E1C78
003871E380
003871E380
003871E380
003871E380
01C78E1C78
01C78E1C78
01C78E1C78
1E38000000
1E38000000
1E38000000
E1C0000000
E1C0000000
E1C0000000
E1C0000000
1E00000000
1E00000000
1E00000000
E1C78E1C00
E1C78E1C00
E1C78E1C00
1E3871E000
1E3871E000
1E3871E000
1E3871E000
E1C78E1C00
E1C78E1C00
E1C78E1C00
1E00000000
1E00000000
1E00000000
E1C0000000
E1C0000000
E1C0000000
E1C0000000
1E38000000
1E38000000
1E38000000
01C78E1C78
01C78E1C78
01C78E1C78
003871E380
003871E380
003871E380
003871E380
00078E1C78
00078E1C78
00078E1C78
ENDCHAR
STARTCHAR 0117
ENCODING 279
SWIDTH 690 0
DWIDTH 46 0
BBX 37 63 5 0
BITMAP
00078E0000
00078E0000
00078E0000
0000700000
0000700000
0000700000
00078E0000
00078E0000
00078E0000
00078E0000
0000000000
0000000000
0000000000
01C78E1C78
01C78E1C78
01C78E1C78
1E3871E380
1E3871E380
1E3871E380
1E3871E380
E1C78E1C78
E1C78E1C78
E1C78E1C78
1E00000000
1E00000000
1E00000000
E1C0000000
E1C0000000
E1C0000000
E1C0000000
1E00000000
1E00000000
1E00000000
E1C78E1C00
E1C78E1C00
E1C78E1C00
1E3871E000
1E3871E000
1E3871E000
1E3871E000
E1C78E1C00
E1C78E1C00
E1C78E1C00
1E00000000
1E00000000
1E00000000
E1C0000000
E1C0000000
E1C0000000
E1C0000000
1E00000000
1E00000000
1E00000000
E1C78E1C78
E1C78E1C78
E1C78E1C78
1E3871E380
1E3871E380
1E3871E380
1E3871E380
01C78E1C78
01C78E1C78
01C78E1C78
ENDCHAR
STARTCHAR 0118
ENCODING 280
SWIDTH 690 0
DWIDTH 46 0
BBX 43 63 5 -13
BITMAP
00078E1C7800
00078E1C7800
00078E1C7800
003871E38000
003871E38000
003871E38000
003871E38000
01C78E1C7800
01C78E1C7800
01C78E1C7800
1E3800000000
1E3800000000
1E3800000000
E1C000000000
E1C000000000
E1C000000000
E1C000000000
1E0000000000
1E0000000000
1E0000000000
E1C78E1C0000
E1C78E1C0000
E1C78E1C0000
1E3871E00000
1E3871E00000
1E3871E00000
1E3871E00000
E1C78E1C0000
E1C78E1C0000
E1C78E1C0000
1E0000000000
1E0000000000
1E0000000000
E1C000000000
E1C000000000
E1C000000000
E1C000000000
1E3800000000
1E3800000000
1E3800000000
01C78E1C7800
01C78E1C7800
01C78E1C7800
003871E38000
003871E38000
003871E38000
003871E38000
00078E1C7800
00078E1C7800
00078E1C7800
000000038000
000000038000
000000038000
0000001C78E0
0000001C78E0
0000001C78E0
0000001C78E0
000000038700
000000038700
000000038700
0000000078E0
0000000078E0
0000000078E0
ENDCHAR
STARTCHAR 0119
ENCODING 281
SWIDTH 690 0
DWIDTH 46 0
BBX 43 63 5 -13
BITMAP
01C78E1C7800
01C78E1C7800
01C78E1C7800
1E3871E38000
1E3871E38000
1E3871E38000
1E3871E38000
E1C78E1C7800
E1C78E1C7800
E1C78E1C7800
1E0000000000
1E0000000000
1E0000000000
E1C000000000
E1C000000000
E1C000000000
E1C000000000
1E0000000000
1E0000000000
1E0000000000
E1C78E1C0000
E1C78E1C0000
E1C78E1C0000
1E3871E00000
1E3871E00000
1E3871E00000
1E3871E00000
E1C78E1C0000
E1C78E1C0000
E1C78E1C0000
1E0000000000
1E0000000000
1E0000000000
E1C000000000
E1C000000000
E1C000000000
E1C000000000
1E0000000000
1E0000000000
1E0000000000
E1C78E1C7800
E1C78E1C7800
E1C78E1C7800
1E3871E38000
1E3871E38000
1E3871E38000
1E3871E38000
01C78E1C7800
01C78E1C7800
01C78E1C7800
000000038000
000000038000
000000038000
0000001C78E0
0000001C78E0
0000001C78E0
0000001C78E0
000000038700
000000038700
000000038700
0000000078E0
0000000078E0
0000000078E0
ENDCHAR
STARTCHAR 011A
ENCODING 282
SWIDTH 690 0
DWIDTH 46 0
BBX 37 70 5 0
BITMAP
01C78E1C00
01C78E1C00
01C78E1C00
003801E000
003801E000
003801E000
003801E000
01C78E1C00
01C78E1C00
01C78E1C00
003871E000
003871E000
003871E000
00078E0000
00078E0000
00078E0000
00078E0000
0000000000
0000000000
0000000000
00078E1C78
00078E1C78
00078E1C78
003871E380
003871E380
003871E380
003871E380
01C78E1C78
01C78E1C78
01C78E1C78
1E38000000
1E38000000
1E38000000
E1C0000000
E1C0000000
E1C0000000
E1C0000000
1E00000000
1E00000000
1E00000000
E1C78E1C00
E1C78E1C00
E1C78E1C00
1E3871E000
1E3871E000
1E3871E000
1E3871E000
E1C78E1C00
E1C78E1C00
E1C78E1C00
1E00000000
1E00000000
1E00000000
E1C0000000
E1C0000000
E1C0000000
E1C0000000
1E38000000
1E38000000
1E38000000
01C78E1C78
01C78E1C78
01C78E1C78
003871E380
003871E380
003871E380
003871E380
00078E1C78
00078E1C78
00078E1C78
ENDCHAR
STARTCHAR 011B
ENCODING 283
SWIDTH 690 0
DWIDTH 46 0
BBX 37 70 5 0
BITMAP
01C78E1C00
01C78E1C00
01C78E1C00
003801E000
003801E000
003801E000
003801E000
01C78E1C00
01C78E1C00
01C78E1C00
003871E000
003871E000
003871E000
00078E0000
00078E0000
00078E0000
00078E0000
0000000000
0000000000
0000000000
01C78E1C78
01C78E1C78
01C78E1C78
1E3871E380
1E3871E380
1E3871E380
1E3871E380
E1C78E1C78
E1C78E1C78
E1C78E1C78
1E00000000
1E00000000
1E00000000
E1C0000000
E1C0000000
E1C0000000
E1C0000000
1E00000000
1E00000000
1E00000000
E1C78E1C00
E1C78E1C00
E1C78E1C00
1E3871E000
1E3871E000
1E3871E000
1E3871E000
E1C78E1C00
E1C78E1C00
E1C78E1C00
1E00000000
1E00000000
1E00000000
E1C0000000
E1C0000000
E1C0000000
E1C0000000
1E00000000
1E00000000
1E00000000
E1C78E1C78
E1C78E1C78
E1C78E1C78
1E3871E380
1E3871E380
1E3871E380
1E3871E380
01C78E1C78
01C78E1C78
01C78E1C78
ENDCHAR
STARTCHAR 011E
ENCODING 286
SWIDTH 795 0
DWIDTH 53 0
BBX 43 70 5 0
BITMAP
01C7801C7800
01C7801C7800
01C7801C7800
003800038000
003800038000
003800038000
003800038000
01C78E1C7800
01C78E1C7800
01C78E1C7800
003871E38000
003871E38000
003871E38000
00078E1C0000
00078E1C0000
00078E1C0000
00078E1C0000
000000000000
000000000000
000000000000
00078E1C78E0
00078E1C78E0
00078E1C78E0
003871E38700
003871E38700
003871E38700
003871E38700
01C78E1C78E0
01C78E1C78E0
01C78E1C78E0
1E3800000000
1E3800000000
1E3800000000
E1C000000000
E1C000000000
E1C000000000
E1C000000000
1E0000000000
1E0000000000
1E0000000000
E1C00E1C78E0
E1C00E1C78E0
E1C00E1C78E0
1E0001E38700
1E0001E38700
1E0001E38700
1E0001E38700
E1C00E1C78E0
E1C00E1C78E0
E1C00E1C78E0
1E0000000700
1E0000000700
1E0000000700
E1C0000078E0
E1C0000078E0
E1C0000078E0
E1C0000078E0
1E3800000700
1E3800000700
1E3800000700
01C78E1C78E0
01C78E1C78E0
01C78E1C78E0
003871E38700
003871E38700
003871E38700
003871E38700
00078E1C78E0
00078E1C78E0
00078E1C78E0
ENDCHAR
STARTCHAR 011F
ENCODING 287
SWIDTH 690 0
DWIDTH 46 0
BBX 37 70 5 0
BITMAP
1E3801E380
1E3801E380
1E3801E380
01C0001C00
01C0001C00
01C0001C00
01C0001C00
1E3871E380
1E3871E380
1E3871E380
01C78E1C00
01C78E1C00
01C78E1C00
003871E000
003871E000
003871E000
003871E000
0000000000
0000000000
0000000000
01C78E1C78
01C78E1C78
01C78E1C78
1E3871E380
1E3871E380
1E3871E380
1E3871E380
E1C78E1C78
E1C78E1C78
E1C78E1C78
1E00000000
1E00000000
1E00000000
E1C0000000
E1C0000000
E1C0000000
E1C0000000
1E00000000
1E00000000
1E00000000
E1C00E1C78
E1C00E1C78
E1C00E1C78
1E0001E380
1E0001E380
1E0001E380
1E0001E380
E1C00E1C78
E1C00E1C78
E1C00E1C78
1E00000380
1E00000380
1E00000380
E1C0001C78
E1C0001C78
E1C0001C78
E1C0001C78
1E00000380
1E00000380
1E00000380
E1C78E1C78
E1C78E1C78
E1C78E1C78
1E3871E380
1E3871E380
1E3871E380
1E3871E380
01C78E1C00
01C78E1C00
01C78E1C00
ENDCHAR
STARTCHAR 0120
ENCODING 288
SWIDTH 795 0
DWIDTH 53 0
BBX 43 63 5 0
BITMAP
000071E00000
000071E00000
000071E00000
00000E000000
00000E000000
00000E000000
000071E00000
000071E00000
000071E00000
000071E00000
000000000000
000000000000
000000000000
00078E1C78E0
00078E1C78E0
00078E1C78E0
003871E38700
003871E38700
003871E38700
003871E38700
01C78E1C78E0
01C78E1C78E0
01C78E1C78E0
1E3800000000
1E3800000000
1E3800000000
E1C000000000
E1C000000000
E1C000000000
E1C000000000
1E0000000000
1E0000000000
1E0000000000
E1C00E1C78E0
E1C00E1C78E0
E1C00E1C78E0
1E0001E38700
1E0001E38700
1E0001E38700
1E0001E38700
E1C00E1C78E0
E1C00E1C78E0
E1C00E1C78E0
1E0000000700
1E0000000700
1E0000000700
E1C0000078E0
E1C0000078E0
E1C0000078E0
E1C0000078E0
1E3800000700
1E3800000700
1E3800000700
01C78E1C78E0
01C78E1C78E0
01C78E1C78E0
003871E38700
003871E38700
003871E38700
003871E38700
00078E1C78E0
00078E1C78E0
00078E1C78E0
ENDCHAR
STARTCHAR 0121
ENCODING 289
SWIDTH 690 0
DWIDTH 46 0
BBX 37 63 5 0
BITMAP
00078E0000
00078E0000
00078E0000
0000700000
0000700000
0000700000
00078E0000
00078E0000
00078E0000
00078E0000
0000000000
0000000000
0000000000
01C78E1C78
01C78E1C78
01C78E1C78
1E3871E380
1E3871E380
1E3871E380
1E3871E380
E1C78E1C78
E1C78E1C78
E1C78E1C78
1E00000000
1E00000000
1E00000000
E1C0000000
E1C0000000
E1C0000000
E1C0000000
1E00000000
1E00000000
1E00000000
E1C00E1C78
E1C00E1C78
E1C00E1C78
1E0001E380
1E0001E380
1E0001E380
1E0001E380
E1C00E1C78
E1C00E1C78
E1C00E1C78
1E00000380
1E00000380
1E00000380
E1C0001C78
E1C0001C78
E1C0001C78
E1C0001C78
1E00000380
1E00000380
1E00000380
E1C78E1C78
E1C78E1C78
E1C78E1C78
1E3871E380
1E3871E380
1E3871E380
1E3871E380
01C78E1C00
01C78E1C00
01C78E1C00
ENDCHAR
STARTCHAR 0122
ENCODING 290
SWIDTH 795 0
DWIDTH 53 0
BBX 43 70 5 -20
BITMAP
00078E1C78E0
00078E1C78E0
00078E1C78E0
003871E38700
003871E38700
003871E38700
003871E38700
01C78E1C78E0
01C78E1C78E0
01C78E1C78E0
1E3800000000
1E3800000000
1E3800000000
E1C000000000
E1C000000000
E1C000000000
E1C000000000
1E0000000000
1E0000000000
1E0000000000
E1C00E1C78E0
E1C00E1C78E0
E1C00E1C78E0
1E0001E38700
1E0001E38700
1E0001E38700
1E0001E38700
E1C00E1C78E0
E1C00E1C78E0
E1C00E1C78E0
1E0000000700
1E0000000700
1E0000000700
E1C0000078E0
E1C0000078E0
E1C0000078E0
E1C0000078E0
1E3800000700
1E3800000700
1E3800000700
01C78E1C78E0
01C78E1C78E0
01C78E1C78E0
003871E38700
003871E38700
003871E38700
003871E38700
00078E1C78E0
00078E1C78E0
00078E1C78E0
000000000000
000000000000
000000000000
000071E00000
000071E00000
000071E00000
000071E00000
00000E000000
00000E000000
00000E000000
000071E00000
000071E00000
000071E00000
00000E000000
00000E000000
00000E000000
00000E000000
000070000000
000070000000
000070000000
ENDCHAR
STARTCHAR 0123
ENCODING 291
SWIDTH 690 0
DWIDTH 46 0
BBX 37 70 5 -20
BITMAP
01C78E1C78
01C78E1C78
01C78E1C78
1E3871E380
1E3871E380
1E3871E380
1E3871E380
E1C78E1C78
E1C78E1C78
E1C78E1C78
1E00000000
1E00000000
1E00000000
E1C0000000
E1C0000000
E1C0000000
E1C0000000
1E00000000
1E00000000
1E00000000
E1C00E1C78
E1C00E1C78
E1C00E1C78
1E0001E380
1E0001E380
1E0001E380
1E0001E380
E1C00E1C78
E1C00E1C78
E1C00E1C78
1E00000380
1E00000380
1E00000380
E1C0001C78
E1C0001C78
E1C0001C78
E1C0001C78
1E00000380
1E00000380
1E00000380
E1C78E1C78
E1C78E1C78
E1C78E1C78
1E3871E380
1E3871E380
1E3871E380
1E3871E380
01C78E1C00
01C78E1C00
01C78E1C00
0000000000
0000000000
0000000000
00078E0000
00078E0000
00078E0000
00078E0000
0000700000
0000700000
0000700000
00078E0000
00078E0000
00078E0000
0000700000
0000700000
0000700000
0000700000
0007800000
0007800000
0007800000
ENDCHAR
STARTCHAR 0126
ENCODING 294
SWIDTH 900 0
DWIDTH 60 0
BBX 56 50 2 0
BITMAP
03C7000000E3C0
03C7000000E3C0
03C7000000E3C0
00380000001C00
00380000001C00
00380000001C00
00380000001C00
E3C70E3C70E3C7
E3C70E3C70E3C7
E3C70E3C70E3C7
1C38F1C38F1C38
1C38F1C38F1C38
1C38F1C38F1C38
E3C70E3C70E3C7
E3C70E3C70E3C7
E3C70E3C70E3C7
E3C70E3C70E3C7
00380000001C00
00380000001C00
00380000001C00
03C70E3C70E3C0
03C70E3C70E3C0
03C70E3C70E3C0
0038F1C38F1C00
0038F1C38F1C00
0038F1C38F1C00
0038F1C38F1C00
03C70E3C70E3C0
03C70E3C70E3C0
03C70E3C70E3C0
00380000001C00
00380000001C00
00380000001C00
03C7000000E3C0
03C7000000E3C0
03C7000000E3C0
03C7000000E3C0
00380000001C00
00380000001C00
00380000001C00
03C7000000E3C0
03C7000000E3C0
03C7000000E3C0
00380000001C00
00380000001C00
00380000001C00
00380000001C00
03C7000000E3C0
03C7000000E3C0
03C7000000E3C0
ENDCHAR
STARTCHAR 0127
ENCODING 295
SWIDTH 795 0
DWIDTH 53 0
BBX 50 50 2 0
BITMAP
03C7000070E000
03C7000070E000
03C7000070E000
003800000F0000
003800000F0000
003800000F0000
003800000F0000
E3C70E3C70E3C0
E3C70E3C70E3C0
E3C70E3C70E3C0
1C38F1C38F1C00
1C38F1C38F1C00
1C38F1C38F1C00
E3C70E3C70E3C0
E3C70E3C70E3C0
E3C70E3C70E3C0
E3C70E3C70E3C0
003800000F0000
003800000F0000
003800000F0000
03C70E3C70E000
03C70E3C70E000
03C70E3C70E000
0038F1C38F0000
0038F1C38F0000
0038F1C38F0000
0038F1C38F0000
03C70E3C70E000
03C70E3C70E000
03C70E3C70E000
003800000F0000
003800000F0000
003800000F0000
03C7000070E000
03C7000070E000
03C7000070E000
03C7000070E000
003800000F0000
003800000F0000
003800000F0000
03C7000070E000
03C7000070E000
03C7000070E000
003800000F0000
003800000F0000
003800000F0000
003800000F0000
03C7000070E000
03C7000070E000
03C7000070E000
ENDCHAR
STARTCHAR 0128
ENCODING 296
SWIDTH 495 0
DWIDTH 33 0
BBX 37 70 -2 0
BITMAP
01C3801C38
01C3801C38
01C3801C38
0E3C7003C0
0E3C7003C0
0E3C7003C0
0E3C7003C0
F1C38F1C38
F1C38F1C38
F1C38F1C38
0E0070E3C0
0E0070E3C0
0E0070E3C0
F1C00F1C00
F1C00F1C00
F1C00F1C00
F1C00F1C00
0000000000
0000000000
0000000000
01C38F1C00
01C38F1C00
01C38F1C00
003C70E000
003C70E000
003C70E000
003C70E000
01C38F1C00
01C38F1C00
01C38F1C00
0000700000
0000700000
0000700000
00038F0000
00038F0000
00038F0000
00038F0000
0000700000
0000700000
0000700000
00038F0000
00038F0000
00038F0000
0000700000
0000700000
0000700000
0000700000
00038F0000
00038F0000
00038F0000
0000700000
0000700000
0000700000
00038F0000
00038F0000
00038F0000
00038F0000
0000700000
0000700000
0000700000
01C38F1C00
01C38F1C00
01C38F1C00
003C70E000
003C70E000
003C70E000
003C70E000
01C38F1C00
01C38F1C00
01C38F1C00
ENDCHAR
STARTCHAR 0129
ENCODING 297
SWIDTH 300 0
DWIDTH 20 0
BBX 36 70 -8 0
BITMAP
03C7003C70
03C7003C70
03C7003C70
1C38F00380
1C38F00380
1C38F00380
1C38F00380
E3C70E3C70
E3C70E3C70
E3C70E3C70
1C00F1C380
1C00F1C380
1C00F1C380
E3C00E3C00
E3C00E3C00
E3C00E3C00
E3C00E3C00
0000000000
0000000000
0000000000
00070E0000
00070E0000
00070E0000
0000F00000
0000F00000
0000F00000
0000F00000
00070E0000
00070E0000
00070E0000
0000F00000
0000F00000
0000F00000
00070E0000
00070E0000
00070E0000
00070E0000
0000F00000
0000F00000
0000F00000
00070E0000
00070E0000
00070E0000
0000F00000
0000F00000
0000F00000
0000F00000
00070E0000
00070E0000
00070E0000
0000F00000
0000F00000
0000F00000
00070E0000
00070E0000
00070E0000
00070E0000
0000F00000
0000F00000
0000F00000
00070E0000
00070E0000
00070E0000
0000F00000
0000F00000
0000F00000
0000F00000
00070E0000
00070E0000
00070E0000
ENDCHAR
STARTCHAR 012A
ENCODING 298
SWIDTH 495 0
DWIDTH 33 0
BBX 23 63 5 0
BITMAP
E1C78E
E1C78E
E1C78E
1E3870
1E3870
1E3870
E1C78E
E1C78E
E1C78E
E1C78E
000000
000000
000000
E1C78E
E1C78E
E1C78E
1E3870
1E3870
1E3870
1E3870
E1C78E
E1C78E
E1C78E
003800
003800
003800
01C780
01C780
01C780
01C780
003800
003800
003800
01C780
01C780
01C780
003800
003800
003800
003800
01C780
01C780
01C780
003800
003800
003800
01C780
01C780
01C780
01C780
003800
003800
003800
E1C78E
E1C78E
E1C78E
1E3870
1E3870
1E3870
1E3870
E1C78E
E1C78E
E1C78E
ENDCHAR
STARTCHAR 012B
ENCODING 299
SWIDTH 300 0
DWIDTH 20 0
BBX 24 63 -2 0
BITMAP
F1C38F
F1C38F
F1C38F
0E3C70
0E3C70
0E3C70
F1C38F
F1C38F
F1C38F
F1C38F
000000
000000
000000
01C380
01C380
01C380
003C00
003C00
003C00
003C00
01C380
01C380
01C380
003C00
003C00
003C00
01C380
01C380
01C380
01C380
003C00
003C00
003C00
01C380
01C380
01C380
003C00
003C00
003C00
003C00
01C380
01C380
01C380
003C00
003C00
003C00
01C380
01C380
01C380
01C380
003C00
003C00
003C00
01C380
01C380
01C380
003C00
003C00
003C00
003C00
01C380
01C380
01C380
ENDCHAR
STARTCHAR 012E
ENCODING 302
SWIDTH 495 0
DWIDTH 33 0
BBX 30 63 5 -13
BITMAP
E1C78E00
E1C78E00
E1C78E00
1E387000
1E387000
1E387000
1E387000
E1C78E00
E1C78E00
E1C78E00
00380000
00380000
00380000
01C78000
01C78000
01C78000
01C78000
00380000
00380000
00380000
01C78000
01C78000
01C78000
00380000
00380000
00380000
00380000
01C78000
01C78000
01C78000
00380000
00380000
00380000
01C78000
01C78000
01C78000
01C78000
00380000
00380000
00380000
E1C78E00
E1C78E00
E1C78E00
1E387000
1E387000
1E387000
1E387000
E1C78E00
E1C78E00
E1C78E00
00007000
00007000
00007000
00078E1C
00078E1C
00078E1C
00078E1C
000071E0
000071E0
000071E0
00000E1C
00000E1C
00000E1C
ENDCHAR
STARTCHAR 012F
ENCODING 303
SWIDTH 300 0
DWIDTH 20 0
BBX 17 63 5 -13
BITMAP
E1C000
E1C000
E1C000
1E0000
1E0000
1E0000
1E0000
E1C000
E1C000
E1C000
1E0000
1E0000
1E0000
E1C000
E1C000
E1C000
E1C000
1E0000
1E0000
1E0000
E1C000
E1C000
E1C000
1E0000
1E0000
1E0000
1E0000
E1C000
E1C000
E1C000
1E0000
1E0000
1E0000
E1C000
E1C000
E1C000
E1C000
1E0000
1E0000
1E0000
E1C000
E1C000
E1C000
1E0000
1E0000
1E0000
1E0000
E1C000
E1C000
E1C000
1E0000
1E0000
1E0000
E1C780
E1C780
E1C780
E1C780
1E3800
1E3800
1E3800
01C780
01C780
01C780
ENDCHAR
STARTCHAR 0130
ENCODING 304
SWIDTH 495 0
DWIDTH 33 0
BBX 23 63 5 0
BITMAP
01C780
01C780
01C780
003800
003800
003800
01C780
01C780
01C780
01C780
000000
000000
000000
E1C78E
E1C78E
E1C78E
1E3870
1E3870
1E3870
1E3870
E1C78E
E1C78E
E1C78E
003800
003800
003800
01C780
01C780
01C780
01C780
003800
003800
003800
01C780
01C780
01C780
003800
003800
003800
003800
01C780
01C780
01C780
003800
003800
003800
01C780
01C780
01C780
01C780
003800
003800
003800
E1C78E
E1C78E
E1C78E
1E3870
1E3870
1E3870
1E3870
E1C78E
E1C78E
E1C78E
ENDCHAR
STARTCHAR 0131
ENCODING 305
SWIDTH 300 0
DWIDTH 20 0
BBX 10 50 5 0
BITMAP
E1C0
E1C0
E1C0
1E00
1E00
1E00
1E00
E1C0
E1C0
E1C0
1E00
1E00
1E00
E1C0
E1C0
E1C0
E1C0
1E00
1E00
1E00
E1C0
E1C0
E1C0
1E00
1E00
1E00
1E00
E1C0
E1C0
E1C0
1E00
1E00
1E00
E1C0
E1C0
E1C0
E1C0
1E00
1E00
1E00
E1C0
E1C0
E1C0
1E00
1E00
1E00
1E00
E1C0
E1C0
E1C0
ENDCHAR
STARTCHAR 0136
ENCODING 310
SWIDTH 690 0
DWIDTH 46 0
BBX 37 70 5 -20
BITMAP
E1C0001C78
E1C0001C78
E1C0001C78
1E00000380
1E00000380
1E00000380
1E00000380
E1C0001C78
E1C0001C78
E1C0001C78
1E0001E380
1E0001E380
1E0001E380
E1C00E1C00
E1C00E1C00
E1C00E1C00
E1C00E1C00
1E0071E000
1E0071E000
1E0071E000
E1C78E0000
E1C78E0000
E1C78E0000
1E38700000
1E38700000
1E38700000
1E38700000
E1C78E0000
E1C78E0000
E1C78E0000
1E0071E000
1E0071E000
1E0071E000
E1C00E1C00
E1C00E1C00
E1C00E1C00
E1C00E1C00
1E0001E380
1E0001E380
1E0001E380
E1C0001C78
E1C0001C78
E1C0001C78
1E00000380
1E00000380
1E00000380
1E00000380
E1C0001C78
E1C0001C78
E1C0001C78
0000000000
0000000000
0000000000
00078E0000
00078E0000
00078E0000
00078E0000
0000700000
0000700000
0000700000
00078E0000
00078E0000
00078E0000
0000700000
0000700000
0000700000
0000700000
0007800000
0007800000
0007800000
ENDCHAR
STARTCHAR 0137
ENCODING 311
SWIDTH 690 0
DWIDTH 46 0
BBX 37 70 5 -20
BITMAP
E1C0001C78
E1C0001C78
E1C0001C78
1E00000380
1E00000380
1E00000380
1E00000380
E1C0001C78
E1C0001C78
E1C0001C78
1E00000380
1E00000380
1E00000380
E1C0001C78
E1C0001C78
E1C0001C78
E1C0001C78
1E0001E380
1E0001E380
1E0001E380
E1C78E1C00
E1C78E1C00
E1C78E1C00
1E3871E000
1E3871E000
1E3871E000
1E3871E000
E1C78E1C00
E1C78E1C00
E1C78E1C00
1E0001E380
1E0001E380
1E0001E380
E1C0001C78
E1C0001C78
E1C0001C78
E1C0001C78
1E00000380
1E00000380
1E00000380
E1C0001C78
E1C0001C78
E1C0001C78
1E00000380
1E00000380
1E00000380
1E00000380
E1C0001C78
E1C0001C78
E1C0001C78
0000000000
0000000000
0000000000
00078E0000
00078E0000
00078E0000
00078E0000
0000700000
0000700000
0000700000
00078E0000
00078E0000
00078E0000
0000700000
0000700000
0000700000
0000700000
0007800000
0007800000
0007800000
ENDCHAR
STARTCHAR 0139
ENCODING 313
SWIDTH 690 0
DWIDTH 46 0
BBX 40 70 2 0
BITMAP
00070E0000
00070E0000
00070E0000
0038F00000
0038F00000
0038F00000
0038F00000
03C7000000
03C7000000
03C7000000
1C38000000
1C38000000
1C38000000
E3C0000000
E3C0000000
E3C0000000
E3C0000000
0000000000
0000000000
0000000000
1C38000000
1C38000000
1C38000000
03C0000000
03C0000000
03C0000000
03C0000000
1C38000000
1C38000000
1C38000000
03C0000000
03C0000000
03C0000000
1C38000000
1C38000000
1C38000000
1C38000000
03C0000000
03C0000000
03C0000000
1C38000000
1C38000000
1C38000000
03C0000000
03C0000000
03C0000000
03C0000000
1C38000000
1C38000000
1C38000000
03C0000000
03C0000000
03C0000000
1C38000000
1C38000000
1C38000000
1C38000000
03C0000000
03C0000000
03C0000000
1C38F1C38F
1C38F1C38F
1C38F1C38F
03C70E3C70
03C70E3C70
03C70E3C70
03C70E3C70
0038F1C38F
0038F1C38F
0038F1C38F
ENDCHAR
STARTCHAR 013A
ENCODING 314
SWIDTH 600 0
DWIDTH 40 0
BBX 33 70 2 0
BITMAP
00070E0000
00070E0000
00070E0000
0038F00000
0038F00000
0038F00000
0038F00000
03C7000000
03C7000000
03C7000000
1C38000000
1C38000000
1C38000000
E3C0000000
E3C0000000
E3C0000000
E3C0000000
0000000000
0000000000
0000000000
1C38000000
1C38000000
1C38000000
03C0000000
03C0000000
03C0000000
03C0000000
1C38000000
1C38000000
1C38000000
03C0000000
03C0000000
03C0000000
1C38000000
1C38000000
1C38000000
1C38000000
03C0000000
03C0000000
03C0000000
1C38000000
1C38000000
1C38000000
03C0000000
03C0000000
03C0000000
03C0000000
1C38000000
1C38000000
1C38000000
03C0000000
03C0000000
03C0000000
1C38000000
1C38000000
1C38000000
1C38000000
03C0000000
03C0000000
03C0000000
1C38F1C380
1C38F1C380
1C38F1C380
03C70E3C00
03C70E3C00
03C70E3C00
03C70E3C00
0038F1C380
0038F1C380
0038F1C380
ENDCHAR
STARTCHAR 013B
ENCODING 315
SWIDTH 690 0
DWIDTH 46 0
BBX 37 70 5 -20
BITMAP
E1C0000000
E1C0000000
E1C0000000
1E00000000
1E00000000
1E00000000
1E00000000
E1C0000000
E1C0000000
E1C0000000
1E00000000
1E00000000
1E00000000
E1C0000000
E1C0000000
E1C0000000
E1C0000000
1E00000000
1E00000000
1E00000000
E1C0000000
E1C0000000
E1C0000000
1E00000000
1E00000000
1E00000000
1E00000000
E1C0000000
E1C0000000
E1C0000000
1E00000000
1E00000000
1E00000000
E1C0000000
E1C0000000
E1C0000000
E1C0000000
1E00000000
1E00000000
1E00000000
E1C78E1C78
E1C78E1C78
E1C78E1C78
1E3871E380
1E3871E380
1E3871E380
1E3871E380
01C78E1C78
01C78E1C78
01C78E1C78
0000000000
0000000000
0000000000
00078E0000
00078E0000
00078E0000
00078E0000
0000700000
0000700000
0000700000
00078E0000
00078E0000
00078E0000
0000700000
0000700000
0000700000
0000700000
0007800000
0007800000
0007800000
ENDCHAR
STARTCHAR 013C
ENCODING 316
SWIDTH 600 0
DWIDTH 40 0
BBX 30 70 5 -20
BITMAP
E1C00000
E1C00000
E1C00000
1E000000
1E000000
1E000000
1E000000
E1C00000
E1C00000
E1C00000
1E000000
1E000000
1E000000
E1C00000
E1C00000
E1C00000
E1C00000
1E000000
1E000000
1E000000
E1C00000
E1C00000
E1C00000
1E000000
1E000000
1E000000
1E000000
E1C00000
E1C00000
E1C00000
1E000000
1E000000
1E000000
E1C00000
E1C00000
E1C00000
E1C00000
1E000000
1E000000
1E000000
E1C78E1C
E1C78E1C
E1C78E1C
1E3871E0
1E3871E0
1E3871E0
1E3871E0
01C78E1C
01C78E1C
01C78E1C
00000000
00000000
00000000
00387000
00387000
00387000
00387000
00078000
00078000
00078000
00387000
00387000
00387000
00078000
00078000
00078000
00078000
00380000
00380000
00380000
ENDCHAR
STARTCHAR 013D
ENCODING 317
SWIDTH 690 0
DWIDTH 46 0
BBX 37 50 5 0
BITMAP
E1C0001C78
E1C0001C78
E1C0001C78
1E00000380
1E00000380
1E00000380
1E00000380
E1C0001C78
E1C0001C78
E1C0001C78
1E00000380
1E00000380
1E00000380
E1C0001C00
E1C0001C00
E1C0001C00
E1C0001C00
1E00000000
1E00000000
1E00000000
E1C0000000
E1C0000000
E1C0000000
1E00000000
1E00000000
1E00000000
1E00000000
E1C0000000
E1C0000000
E1C0000000
1E00000000
1E00000000
1E00000000
E1C0000000
E1C0000000
E1C0000000
E1C0000000
1E00000000
1E00000000
1E00000000
E1C78E1C78
E1C78E1C78
E1C78E1C78
1E3871E380
1E3871E380
1E3871E380
1E3871E380
01C78E1C78
01C78E1C78
01C78E1C78
ENDCHAR
STARTCHAR 013E
ENCODING 318
SWIDTH 600 0
DWIDTH 40 0
BBX 30 50 5 0
BITMAP
E1C00E1C
E1C00E1C
E1C00E1C
1E0001E0
1E0001E0
1E0001E0
1E0001E0
E1C00E1C
E1C00E1C
E1C00E1C
1E0001E0
1E0001E0
1E0001E0
E1C00E00
E1C00E00
E1C00E00
E1C00E00
1E000000
1E000000
1E000000
E1C00000
E1C00000
E1C00000
1E000000
1E000000
1E000000
1E000000
E1C00000
E1C00000
E1C00000
1E000000
1E000000
1E000000
E1C00000
E1C00000
E1C00000
E1C00000
1E000000
1E000000
1E000000
E1C78E1C
E1C78E1C
E1C78E1C
1E3871E0
1E3871E0
1E3871E0
1E3871E0
01C78E1C
01C78E1C
01C78E1C
ENDCHAR
STARTCHAR 0141
ENCODING 321
SWIDTH 750 0
DWIDTH 50 0
BBX 43 50 2 0
BITMAP
03C700000000
03C700000000
03C700000000
003800000000
003800000000
003800000000
003800000000
03C700000000
03C700000000
03C700000000
003800000000
003800000000
003800000000
03C70E000000
03C70E000000
03C70E000000
03C70E000000
0038F0000000
0038F0000000
0038F0000000
E3C70E000000
E3C70E000000
E3C70E000000
1C3800000000
1C3800000000
1C3800000000
1C3800000000
E3C700000000
E3C700000000
E3C700000000
003800000000
003800000000
003800000000
03C700000000
03C700000000
03C700000000
03C700000000
003800000000
003800000000
003800000000
03C70E3C70E0
03C70E3C70E0
03C70E3C70E0
0038F1C38F00
0038F1C38F00
0038F1C38F00
0038F1C38F00
00070E3C70E0
00070E3C70E0
00070E3C70E0
ENDCHAR
STARTCHAR 0142
ENCODING 322
SWIDTH 645 0
DWIDTH 43 0
BBX 36 50 2 0
BITMAP
03C7000000
03C7000000
03C7000000
0038000000
0038000000
0038000000
0038000000
03C7000000
03C7000000
03C7000000
0038000000
0038000000
0038000000
03C70E0000
03C70E0000
03C70E0000
03C70E0000
0038F00000
0038F00000
0038F00000
E3C70E0000
E3C70E0000
E3C70E0000
1C38000000
1C38000000
1C38000000
1C38000000
E3C7000000
E3C7000000
E3C7000000
0038000000
0038000000
0038000000
03C7000000
03C7000000
03C7000000
03C7000000
0038000000
0038000000
0038000000
03C70E3C70
03C70E3C70
03C70E3C70
0038F1C380
0038F1C380
0038F1C380
0038F1C380
00070E3C70
00070E3C70
00070E3C70
ENDCHAR
STARTCHAR 0143
ENCODING 323
SWIDTH 795 0
DWIDTH 53 0
BBX 43 70 5 0
BITMAP
0000001C7800
0000001C7800
0000001C7800
000001E38000
000001E38000
000001E38000
000001E38000
00000E1C0000
00000E1C0000
00000E1C0000
000071E00000
000071E00000
000071E00000
00078E000000
00078E000000
00078E000000
00078E000000
000000000000
000000000000
000000000000
E1C0000078E0
E1C0000078E0
E1C0000078E0
1E3800000700
1E3800000700
1E3800000700
1E3800000700
E1C7800078E0
E1C7800078E0
E1C7800078E0
1E3870000700
1E3870000700
1E3870000700
E1C78E0078E0
E1C78E0078E0
E1C78E0078E0
E1C78E0078E0
1E0071E00700
1E0071E00700
1E0071E00700
E1C00E1C78E0
E1C00E1C78E0
E1C00E1C78E0
1E0001E38700
1E0001E38700
1E0001E38700
1E0001E38700
E1C0001C78E0
E1C0001C78E0
E1C0001C78E0
1E0000038700
1E0000038700
1E0000038700
E1C0000078E0
E1C0000078E0
E1C0000078E0
E1C0000078E0
1E0000000700
1E0000000700
1E0000000700
E1C0000078E0
E1C0000078E0
E1C0000078E0
1E0000000700
1E0000000700
1E0000000700
1E0000000700
E1C0000078E0
E1C0000078E0
E1C0000078E0
ENDCHAR
STARTCHAR 0144
ENCODING 324
SWIDTH 690 0
DWIDTH 46 0
BBX 37 70 5 0
BITMAP
000001E380
000001E380
000001E380
00000E1C00
00000E1C00
00000E1C00
00000E1C00
000071E000
000071E000
000071E000
00078E0000
00078E0000
00078E0000
0038700000
0038700000
0038700000
0038700000
0000000000
0000000000
0000000000
E1C0001C78
E1C0001C78
E1C0001C78
1E38000380
1E38000380
1E38000380
1E38000380
E1C7801C78
E1C7801C78
E1C7801C78
1E38700380
1E38700380
1E38700380
E1C78E1C78
E1C78E1C78
E1C78E1C78
E1C78E1C78
1E0071E380
1E0071E380
1E0071E380
E1C00E1C78
E1C00E1C78
E1C00E1C78
1E0001E380
1E0001E380
1E0001E380
1E0001E380
E1C0001C78
E1C0001C78
E1C0001C78
1E00000380
1E00000380
1E00000380
E1C0001C78
E1C0001C78
E1C0001C78
E1C0001C78
1E00000380
1E00000380
1E00000380
E1C0001C78
E1C0001C78
E1C0001C78
1E00000380
1E00000380
1E00000380
1E00000380
E1C0001C78
E1C0001C78
E1C0001C78
ENDCHAR
STARTCHAR 0145
ENCODING 325
SWIDTH 795 0
DWIDTH 53 0
BBX 43 70 5 -20
BITMAP
E1C0000078E0
E1C0000078E0
E1C0000078E0
1E3800000700
1E3800000700
1E3800000700
1E3800000700
E1C7800078E0
E1C7800078E0
E1C7800078E0
1E3870000700
1E3870000700
1E3870000700
E1C78E0078E0
E1C78E0078E0
E1C78E0078E0
E1C78E0078E0
1E0071E00700
1E0071E00700
1E0071E00700
E1C00E1C78E0
E1C00E1C78E0
E1C00E1C78E0
1E0001E38700
1E0001E38700
1E0001E38700
1E0001E38700
E1C0001C78E0
E1C0001C78E0
E1C0001C78E0
1E0000038700
1E0000038700
1E0000038700
E1C0000078E0
E1C0000078E0
E1C0000078E0
E1C0000078E0
1E0000000700
1E0000000700
1E0000000700
E1C0000078E0
E1C0000078E0
E1C0000078E0
1E0000000700
1E0000000700
1E0000000700
1E0000000700
E1C0000078E0
E1C0000078E0
E1C0000078E0
000000000000
000000000000
000000000000
000071E00000
000071E00000
000071E00000
000071E00000
00000E000000
00000E000000
00000E000000
000071E00000
000071E00000
000071E00000
00000E000000
00000E000000
00000E000000
00000E000000
000070000000
000070000000
000070000000
ENDCHAR
STARTCHAR 0146
ENCODING 326
SWIDTH 690 0
DWIDTH 46 0
BBX 37 70 5 -20
BITMAP
E1C0001C78
E1C0001C78
E1C0001C78
1E38000380
1E38000380
1E38000380
1E38000380
E1C7801C78
E1C7801C78
E1C7801C78
1E38700380
1E38700380
1E38700380
E1C78E1C78
E1C78E1C78
E1C78E1C78
E1C78E1C78
1E0071E380
1E0071E380
1E0071E380
E1C00E1C78
E1C00E1C78
E1C00E1C78
1E0001E380
1E0001E380
1E0001E380
1E0001E380
E1C0001C78
E1C0001C78
E1C0001C78
1E00000380
1E00000380
1E00000380
E1C0001C78
E1C0001C78
E1C0001C78
E1C0001C78
1E00000380
1E00000380
1E00000380
E1C0001C78
E1C0001C78
E1C0001C78
1E00000380
1E00000380
1E00000380
1E00000380
E1C0001C78
E1C0001C78
E1C0001C78
0000000000
0000000000
0000000000
00078E0000
00078E0000
00078E0000
00078E0000
0000700000
0000700000
0000700000
00078E0000
00078E0000
00078E0000
0000700000
0000700000
0000700000
0000700000
0007800000
0007800000
0007800000
ENDCHAR
STARTCHAR 0147
ENCODING 327
SWIDTH 795 0
DWIDTH 53 0
BBX 43 70 5 0
BITMAP
003871E38000
003871E38000
003871E38000
0007801C0000
0007801C0000
0007801C0000
0007801C0000
003871E38000
003871E38000
003871E38000
00078E1C0000
00078E1C0000
00078E1C0000
000071E00000
000071E00000
000071E00000
000071E00000
000000000000
000000000000
000000000000
E1C0000078E0
E1C0000078E0
E1C0000078E0
1E3800000700
1E3800000700
1E3800000700
1E3800000700
E1C7800078E0
E1C7800078E0
E1C7800078E0
1E3870000700
1E3870000700
1E3870000700
E1C78E0078E0
E1C78E0078E0
E1C78E0078E0
E1C78E0078E0
1E0071E00700
1E0071E00700
1E0071E00700
E1C00E1C78E0
E1C00E1C78E0
E1C00E1C78E0
1E0001E38700
1E0001E38700
1E0001E38700
1E0001E38700
E1C0001C78E0
E1C0001C78E0
E1C0001C78E0
1E0000038700
1E0000038700
1E0000038700
E1C0000078E0
E1C0000078E0
E1C0000078E0
E1C0000078E0
1E0000000700
1E0000000700
1E0000000700
E1C0000078E0
E1C0000078E0
E1C0000078E0
1E0000000700
1E0000000700
1E0000000700
1E0000000700
E1C0000078E0
E1C0000078E0
E1C0000078E0
ENDCHAR
STARTCHAR 0148
ENCODING 328
SWIDTH 690 0
DWIDTH 46 0
BBX 37 70 5 0
BITMAP
01C78E1C00
01C78E1C00
01C78E1C00
003801E000
003801E000
003801E000
003801E000
01C78E1C00
01C78E1C00
01C78E1C00
003871E000
003871E000
003871E000
00078E0000
00078E0000
00078E0000
00078E0000
0000000000
0000000000
0000000000
E1C0001C78
E1C0001C78
E1C0001C78
1E38000380
1E38000380
1E38000380
1E38000380
E1C7801C78
E1C7801C78
E1C7801C78
1E38700380
1E38700380
1E38700380
E1C78E1C78
E1C78E1C78
E1C78E1C78
E1C78E1C78
1E0071E380
1E0071E380
1E0071E380
E1C00E1C78
E1C00E1C78
E1C00E1C78
1E0001E380
1E0001E380
1E0001E380
1E0001E380
E1C0001C78
E1C0001C78
E1C0001C78
1E00000380
1E00000380
1E00000380
E1C0001C78
E1C0001C78
E1C0001C78
E1C0001C78
1E00000380
1E00000380
1E00000380
E1C0001C78
E1C0001C78
E1C0001C78
1E00000380
1E00000380
1E00000380
1E00000380
E1C0001C78
E1C0001C78
E1C0001C78
ENDCHAR
STARTCHAR 014A
ENCODING 330
SWIDTH 795 0
DWIDTH 53 0
BBX 43 63 5 -13
BITMAP
E1C0000078E0
E1C0000078E0
E1C0000078E0
1E3800000700
1E3800000700
1E3800000700
1E3800000700
E1C7800078E0
E1C7800078E0
E1C7800078E0
1E3870000700
1E3870000700
1E3870000700
E1C78E0078E0
E1C78E0078E0
E1C78E0078E0
E1C78E0078E0
1E0071E00700
1E0071E00700
1E0071E00700
E1C00E1C78E0
E1C00E1C78E0
E1C00E1C78E0
1E0001E38700
1E0001E38700
1E0001E38700
1E0001E38700
E1C0001C78E0
E1C0001C78E0
E1C0001C78E0
1E0000038700
1E0000038700
1E0000038700
E1C0000078E0
E1C0000078E0
E1C0000078E0
E1C0000078E0
1E0000000700
1E0000000700
1E0000000700
E1C0000078E0
E1C0000078E0
E1C0000078E0
1E0000000700
1E0000000700
1E0000000700
1E0000000700
E1C0000078E0
E1C0000078E0
E1C0000078E0
000000000700
000000000700
000000000700
0000001C78E0
0000001C78E0
0000001C78E0
0000001C78E0
000000038700
000000038700
000000038700
0000001C7800
0000001C7800
0000001C7800
ENDCHAR
STARTCHAR 014B
ENCODING 331
SWIDTH 690 0
DWIDTH 46 0
BBX 37 63 5 -13
BITMAP
E1C0001C78
E1C0001C78
E1C0001C78
1E38000380
1E38000380
1E38000380
1E38000380
E1C7801C78
E1C7801C78
E1C7801C78
1E38700380
1E38700380
1E38700380
E1C78E1C78
E1C78E1C78
E1C78E1C78
E1C78E1C78
1E0071E380
1E0071E380
1E0071E380
E1C00E1C78
E1C00E1C78
E1C00E1C78
1E0001E380
1E0001E380
1E0001E380
1E0001E380
E1C0001C78
E1C0001C78
E1C0001C78
1E00000380
1E00000380
1E00000380
E1C0001C78
E1C0001C78
E1C0001C78
E1C0001C78
1E00000380
1E00000380
1E00000380
E1C0001C78
E1C0001C78
E1C0001C78
1E00000380
1E00000380
1E00000380
1E00000380
E1C0001C78
E1C0001C78
E1C0001C78
0000000380
0000000380
0000000380
00000E1C78
00000E1C78
00000E1C78
00000E1C78
000001E380
000001E380
000001E380
00000E1C00
00000E1C00
00000E1C00
ENDCHAR
STARTCHAR 014C
ENCODING 332
SWIDTH 795 0
DWIDTH 53 0
BBX 43 63 5 0
BITMAP
003871E38000
003871E38000
003871E38000
00078E1C0000
00078E1C0000
00078E1C0000
003871E38000
003871E38000
003871E38000
003871E38000
000000000000
000000000000
000000000000
00078E1C0000
00078E1C0000
00078E1C0000
003871E38000
003871E38000
003871E38000
003871E38000
01C78E1C7800
01C78E1C7800
01C78E1C7800
1E3800038700
1E3800038700
1E3800038700
E1C0000078E0
E1C0000078E0
E1C0000078E0
E1C0000078E0
1E0000000700
1E0000000700
1E0000000700
E1C0000078E0
E1C0000078E0
E1C0000078E0
1E0000000700
1E0000000700
1E0000000700
1E0000000700
E1C0000078E0
E1C0000078E0
E1C0000078E0
1E0000000700
1E0000000700
1E0000000700
E1C0000078E0
E1C0000078E0
E1C0000078E0
E1C0000078E0
1E3800038700
1E3800038700
1E3800038700
01C78E1C7800
01C78E1C7800
01C78E1C7800
003871E38000
003871E38000
003871E38000
003871E38000
00078E1C0000
00078E1C0000
00078E1C0000
ENDCHAR
STARTCHAR 014D
ENCODING 333
SWIDTH 690 0
DWIDTH 46 0
BBX 37 63 5 0
BITMAP
01C78E1C00
01C78E1C00
01C78E1C00
003871E000
003871E000
003871E000
01C78E1C00
01C78E1C00
01C78E1C00
01C78E1C00
0000000000
0000000000
0000000000
01C78E1C00
01C78E1C00
01C78E1C00
1E3871E380
1E3871E380
1E3871E380
1E3871E380
E1C78E1C78
E1C78E1C78
E1C78E1C78
1E00000380
1E00000380
1E00000380
E1C0001C78
E1C0001C78
E1C0001C78
E1C0001C78
1E00000380
1E00000380
1E00000380
E1C0001C78
E1C0001C78
E1C0001C78
1E00000380
1E00000380
1E00000380
1E00000380
E1C0001C78
E1C0001C78
E1C0001C78
1E00000380
1E00000380
1E00000380
E1C0001C78
E1C0001C78
E1C0001C78
E1C0001C78
1E00000380
1E00000380
1E00000380
E1C78E1C78
E1C78E1C78
E1C78E1C78
1E3871E380
1E3871E380
1E3871E380
1E3871E380
01C78E1C00
01C78E1C00
01C78E1C00
ENDCHAR
STARTCHAR 0150
ENCODING 336
SWIDTH 795 0
DWIDTH 53 0
BBX 47 70 5 0
BITMAP
000071E0071E
000071E0071E
000071E0071E
00078E0078E0
00078E0078E0
00078E0078E0
00078E0078E0
003870038700
003870038700
003870038700
01C7801C7800
01C7801C7800
01C7801C7800
1E3801E38000
1E3801E38000
1E3801E38000
1E3801E38000
000000000000
000000000000
000000000000
00078E1C0000
00078E1C0000
00078E1C0000
003871E38000
003871E38000
003871E38000
003871E38000
01C78E1C7800
01C78E1C7800
01C78E1C7800
1E3800038700
1E3800038700
1E3800038700
E1C0000078E0
E1C0000078E0
E1C0000078E0
E1C0000078E0
1E0000000700
1E0000000700
1E0000000700
E1C0000078E0
E1C0000078E0
E1C0000078E0
1E0000000700
1E0000000700
1E0000000700
1E0000000700
E1C0000078E0
E1C0000078E0
E1C0000078E0
1E0000000700
1E0000000700
1E0000000700
E1C0000078E0
E1C0000078E0
E1C0000078E0
E1C0000078E0
1E3800038700
1E3800038700
1E3800038700
01C78E1C7800
01C78E1C7800
01C78E1C7800
003871E38000
003871E38000
003871E38000
003871E38000
00078E1C0000
00078E1C0000
00078E1C0000
ENDCHAR
STARTCHAR 0151
ENCODING 337
SWIDTH 690 0
DWIDTH 46 0
BBX 43 70 5 0
BITMAP
00078E0078E0
00078E0078E0
00078E0078E0
003870038700
003870038700
003870038700
003870038700
01C7801C7800
01C7801C7800
01C7801C7800
1E3801E38000
1E3801E38000
1E3801E38000
E1C00E1C0000
E1C00E1C0000
E1C00E1C0000
E1C00E1C0000
000000000000
000000000000
000000000000
01C78E1C0000
01C78E1C0000
01C78E1C0000
1E3871E38000
1E3871E38000
1E3871E38000
1E3871E38000
E1C78E1C7800
E1C78E1C7800
E1C78E1C7800
1E0000038000
1E0000038000
1E0000038000
E1C0001C7800
E1C0001C7800
E1C0001C7800
E1C0001C7800
1E0000038000
1E0000038000
1E0000038000
E1C0001C7800
E1C0001C7800
E1C0001C7800
1E0000038000
1E0000038000
1E0000038000
1E0000038000
E1C0001C7800
E1C0001C7800
E1C0001C7800
1E0000038000
1E0000038000
1E0000038000
E1C0001C7800
E1C0001C7800
E1C0001C7800
E1C0001C7800
1E0000038000
1E0000038000
1E0000038000
E1C78E1C7800
E1C78E1C7800
E1C78E1C7800
1E3871E38000
1E3871E38000
1E3871E38000
1E3871E38000
01C78E1C0000
01C78E1C0000
01C78E1C0000
ENDCHAR
STARTCHAR 0152
ENCODING 338
SWIDTH 1200 0
DWIDTH 80 0
BBX 70 50 5 0
BITMAP
00078E1C0001C78E1C
00078E1C0001C78E1C
00078E1C0001C78E1C
003871E3801E3871E0
003871E3801E3871E0
003871E3801E3871E0
003871E3801E3871E0
01C78E1C78E1C78E1C
01C78E1C78E1C78E1C
01C78E1C78E1C78E1C
1E380003871E000000
1E380003871E000000
1E380003871E000000
E1C0000078E0000000
E1C0000078E0000000
E1C0000078E0000000
E1C0000078E0000000
1E0000000700000000
1E0000000700000000
1E0000000700000000
E1C0000078E1C78E00
E1C0000078E1C78E00
E1C0000078E1C78E00
1E000000071E387000
1E000000071E387000
1E000000071E387000
1E000000071E387000
E1C0000078E1C78E00
E1C0000078E1C78E00
E1C0000078E1C78E00
1E0000000700000000
1E0000000700000000
1E0000000700000000
E1C0000078E0000000
E1C0000078E0000000
E1C0000078E0000000
E1C0000078E0000000
1E380003871E000000
1E380003871E000000
1E380003871E000000
01C78E1C78E1C78E1C
01C78E1C78E1C78E1C
01C78E1C78E1C78E1C
003871E3801E3871E0
003871E3801E3871E0
003871E3801E3871E0
003871E3801E3871E0
00078E1C0001C78E1C
00078E1C0001C78E1C
00078E1C0001C78E1C
ENDCHAR
STARTCHAR 0153
ENCODING 339
SWIDTH 1095 0
DWIDTH 73 0
BBX 63 50 5 0
BITMAP
01C78E1C78E1C78E
01C78E1C78E1C78E
01C78E1C78E1C78E
1E3871E3871E3870
1E3871E3871E3870
1E3871E3871E3870
1E3871E3871E3870
E1C78E1C78E1C78E
E1C78E1C78E1C78E
E1C78E1C78E1C78E
1E00000380000000
1E00000380000000
1E00000380000000
E1C0001C78000000
E1C0001C78000000
E1C0001C78000000
E1C0001C78000000
1E00000380000000
1E00000380000000
1E00000380000000
E1C0001C78E1C780
E1C0001C78E1C780
E1C0001C78E1C780
1E000003871E3800
1E000003871E3800
1E000003871E3800
1E000003871E3800
E1C0001C78E1C780
E1C0001C78E1C780
E1C0001C78E1C780
1E00000380000000
1E00000380000000
1E00000380000000
E1C0001C78000000
E1C0001C78000000
E1C0001C78000000
E1C0001C78000000
1E00000380000000
1E00000380000000
1E00000380000000
E1C78E1C78E1C78E
E1C78E1C78E1C78E
E1C78E1C78E1C78E
1E3871E3871E3870
1E3871E3871E3870
1E3871E3871E3870
1E3871E3871E3870
01C78E1C78E1C78E
01C78E1C78E1C78E
01C78E1C78E1C78E
ENDCHAR
STARTCHAR 0154
ENCODING 340
SWIDTH 690 0
DWIDTH 46 0
BBX 37 70 5 0
BITMAP
000001E380
000001E380
000001E380
00000E1C00
00000E1C00
00000E1C00
00000E1C00
000071E000
000071E000
000071E000
00078E0000
00078E0000
00078E0000
0038700000
0038700000
0038700000
0038700000
0000000000
0000000000
0000000000
E1C78E0000
E1C78E0000
E1C78E0000
1E3871E000
1E3871E000
1E3871E000
1E3871E000
E1C78E1C00
E1C78E1C00
E1C78E1C00
1E0001E380
1E0001E380
1E0001E380
E1C0001C78
E1C0001C78
E1C0001C78
E1C0001C78
1E00000380
1E00000380
1E00000380
E1C0001C78
E1C0001C78
E1C0001C78
1E00000380
1E00000380
1E00000380
1E00000380
E1C0001C78
E1C0001C78
E1C0001C78
1E0001E380
1E0001E380
1E0001E380
E1C78E1C00
E1C78E1C00
E1C78E1C00
E1C78E1C00
1E3871E000
1E3871E000
1E3871E000
E1C78E1C00
E1C78E1C00
E1C78E1C00
1E0001E380
1E0001E380
1E0001E380
1E0001E380
E1C0001C78
E1C0001C78
E1C0001C78
ENDCHAR
STARTCHAR 0155
ENCODING 341
SWIDTH 690 0
DWIDTH 46 0
BBX 37 70 5 0
BITMAP
000001E380
000001E380
000001E380
00000E1C00
00000E1C00
00000E1C00
00000E1C00
000071E000
000071E000
000071E000
00078E0000
00078E0000
00078E0000
0038700000
0038700000
0038700000
0038700000
0000000000
0000000000
0000000000
E1C78E1C00
E1C78E1C00
E1C78E1C00
1E3871E380
1E3871E380
1E3871E380
1E3871E380
E1C78E1C78
E1C78E1C78
E1C78E1C78
1E00000380
1E00000380
1E00000380
E1C0001C78
E1C0001C78
E1C0001C78
E1C0001C78
1E00000380
1E00000380
1E00000380
E1C0001C78
E1C0001C78
E1C0001C78
1E00000380
1E00000380
1E00000380
1E00000380
E1C78E1C78
E1C78E1C78
E1C78E1C78
1E3871E380
1E3871E380
1E3871E380
E1C78E1C00
E1C78E1C00
E1C78E1C00
E1C78E1C00
1E0001E380
1E0001E380
1E0001E380
E1C0001C78
E1C0001C78
E1C0001C78
1E00000380
1E00000380
1E00000380
1E00000380
E1C0001C78
E1C0001C78
E1C0001C78
ENDCHAR
STARTCHAR 0156
ENCODING 342
SWIDTH 690 0
DWIDTH 46 0
BBX 37 70 5 -20
BITMAP
E1C78E0000
E1C78E0000
E1C78E0000
1E3871E000
1E3871E000
1E3871E000
1E3871E000
E1C78E1C00
E1C78E1C00
E1C78E1C00
1E0001E380
1E0001E380
1E0001E380
E1C0001C78
E1C0001C78
E1C0001C78
E1C0001C78
1E00000380
1E00000380
1E00000380
E1C0001C78
E1C0001C78
E1C0001C78
1E00000380
1E00000380
1E00000380
1E00000380
E1C0001C78
E1C0001C78
E1C0001C78
1E0001E380
1E0001E380
1E0001E380
E1C78E1C00
E1C78E1C00
E1C78E1C00
E1C78E1C00
1E3871E000
1E3871E000
1E3871E000
E1C78E1C00
E1C78E1C00
E1C78E1C00
1E0001E380
1E0001E380
1E0001E380
1E0001E380
E1C0001C78
E1C0001C78
E1C0001C78
0000000000
0000000000
0000000000
00078E0000
00078E0000
00078E0000
00078E0000
0000700000
0000700000
0000700000
00078E0000
00078E0000
00078E0000
0000700000
0000700000
0000700000
0000700000
0007800000
0007800000
0007800000
ENDCHAR
STARTCHAR 0157
ENCODING 343
SWIDTH 690 0
DWIDTH 46 0
BBX 37 70 5 -20
BITMAP
E1C78E1C00
E1C78E1C00
E1C78E1C00
1E3871E380
1E3871E380
1E3871E380
1E3871E380
E1C78E1C78
E1C78E1C78
E1C78E1C78
1E00000380
1E00000380
1E00000380
E1C0001C78
E1C0001C78
E1C0001C78
E1C0001C78
1E00000380
1E00000380
1E00000380
E1C0001C78
E1C0001C78
E1C0001C78
1E00000380
1E00000380
1E00000380
1E00000380
E1C78E1C78
E1C78E1C78
E1C78E1C78
1E3871E380
1E3871E380
1E3871E380
E1C78E1C00
E1C78E1C00
E1C78E1C00
E1C78E1C00
1E0001E380
1E0001E380
1E0001E380
E1C0001C78
E1C0001C78
E1C0001C78
1E00000380
1E00000380
1E00000380
1E00000380
E1C0001C78
E1C0001C78
E1C0001C78
0000000000
0000000000
0000000000
00078E0000
00078E0000
00078E0000
00078E0000
0000700000
0000700000
0000700000
00078E0000
00078E0000
00078E0000
0000700000
0000700000
0000700000
0000700000
0007800000
0007800000
0007800000
ENDCHAR
STARTCHAR 0158
ENCODING 344
SWIDTH 690 0
DWIDTH 46 0
BBX 37 70 5 0
BITMAP
01C78E1C00
01C78E1C00
01C78E1C00
003801E000
003801E000
003801E000
003801E000
01C78E1C00
01C78E1C00
01C78E1C00
003871E000
003871E000
003871E000
00078E0000
00078E0000
00078E0000
00078E0000
0000000000
0000000000
0000000000
E1C78E0000
E1C78E0000
E1C78E0000
1E3871E000
1E3871E000
1E3871E000
1E3871E000
E1C78E1C00
E1C78E1C00
E1C78E1C00
1E0001E380
1E0001E380
1E0001E380
E1C0001C78
E1C0001C78
E1C0001C78
E1C0001C78
1E00000380
1E00000380
1E00000380
E1C0001C78
E1C0001C78
E1C0001C78
1E00000380
1E00000380
1E00000380
1E00000380
E1C0001C78
E1C0001C78
E1C0001C78
1E0001E380
1E0001E380
1E0001E380
E1C78E1C00
E1C78E1C00
E1C78E1C00
E1C78E1C00
1E3871E000
1E3871E000
1E3871E000
E1C78E1C00
E1C78E1C00
E1C78E1C00
1E0001E380
1E0001E380
1E0001E380
1E0001E380
E1C0001C78
E1C0001C78
E1C0001C78
ENDCHAR
STARTCHAR 0159
ENCODING 345
SWIDTH 690 0
DWIDTH 46 0
BBX 37 70 5 0
BITMAP
01C78E1C00
01C78E1C00
01C78E1C00
003801E000
003801E000
003801E000
003801E000
01C78E1C00
01C78E1C00
01C78E1C00
003871E000
003871E000
003871E000
00078E0000
00078E0000
00078E0000
00078E0000
0000000000
0000000000
0000000000
E1C78E1C00
E1C78E1C00
E1C78E1C00
1E3871E380
1E3871E380
1E3871E380
1E3871E380
E1C78E1C78
E1C78E1C78
E1C78E1C78
1E00000380
1E00000380
1E00000380
E1C0001C78
E1C0001C78
E1C0001C78
E1C0001C78
1E00000380
1E00000380
1E00000380
E1C0001C78
E1C0001C78
E1C0001C78
1E00000380
1E00000380
1E00000380
1E00000380
E1C78E1C78
E1C78E1C78
E1C78E1C78
1E3871E380
1E3871E380
1E3871E380
E1C78E1C00
E1C78E1C00
E1C78E1C00
E1C78E1C00
1E0001E380
1E0001E380
1E0001E380
E1C0001C78
E1C0001C78
E1C0001C78
1E00000380
1E00000380
1E00000380
1E00000380
E1C0001C78
E1C0001C78
E1C0001C78
ENDCHAR
STARTCHAR 015A
ENCODING 346
SWIDTH 690 0
DWIDTH 46 0
BBX 37 70 5 0
BITMAP
000001E380
000001E380
000001E380
00000E1C00
00000E1C00
00000E1C00
00000E1C00
000071E000
000071E000
000071E000
00078E0000
00078E0000
00078E0000
0038700000
0038700000
0038700000
0038700000
0000000000
0000000000
0000000000
01C78E1C00
01C78E1C00
01C78E1C00
1E3871E380
1E3871E380
1E3871E380
1E3871E380
E1C78E1C78
E1C78E1C78
E1C78E1C78
1E00000380
1E00000380
1E00000380
E1C0001C78
E1C0001C78
E1C0001C78
E1C0001C78
1E00000000
1E00000000
1E00000000
E1C78E1C00
E1C78E1C00
E1C78E1C00
1E3871E380
1E3871E380
1E3871E380
1E3871E380
01C78E1C78
01C78E1C78
01C78E1C78
0000000380
0000000380
0000000380
E1C0001C78
E1C0001C78
E1C0001C78
E1C0001C78
1E00000380
1E00000380
1E00000380
E1C78E1C78
E1C78E1C78
E1C78E1C78
1E3871E380
1E3871E380
1E3871E380
1E3871E380
01C78E1C00
01C78E1C00
01C78E1C00
ENDCHAR
STARTCHAR 015B
ENCODING 347
SWIDTH 690 0
DWIDTH 46 0
BBX 37 70 5 0
BITMAP
000001E380
000001E380
000001E380
00000E1C00
00000E1C00
00000E1C00
00000E1C00
000071E000
000071E000
000071E000
00078E0000
00078E0000
00078E0000
0038700000
0038700000
0038700000
0038700000
0000000000
0000000000
0000000000
01C78E1C00
01C78E1C00
01C78E1C00
1E3871E380
1E3871E380
1E3871E380
1E3871E380
E1C78E1C78
E1C78E1C78
E1C78E1C78
1E00000380
1E00000380
1E00000380
E1C0001C78
E1C0001C78
E1C0001C78
E1C0001C78
1E00000000
1E00000000
1E00000000
E1C78E1C00
E1C78E1C00
E1C78E1C00
1E3871E380
1E3871E380
1E3871E380
1E3871E380
01C78E1C78
01C78E1C78
01C78E1C78
0000000380
0000000380
0000000380
E1C0001C78
E1C0001C78
E1C0001C78
E1C0001C78
1E00000380
1E00000380
1E00000380
E1C78E1C78
E1C78E1C78
E1C78E1C78
1E3871E380
1E3871E380
1E3871E380
1E3871E380
01C78E1C00
01C78E1C00
01C78E1C00
ENDCHAR
STARTCHAR 015E
ENCODING 350
SWIDTH 690 0
DWIDTH 46 0
BBX 37 63 5 -13
BITMAP
01C78E1C00
01C78E1C00
01C78E1C00
1E3871E380
1E3871E380
1E3871E380
1E3871E380
E1C78E1C78
E1C78E1C78
E1C78E1C78
1E00000380
1E00000380
1E00000380
E1C0001C78
E1C0001C78
E1C0001C78
E1C0001C78
1E00000000
1E00000000
1E00000000
E1C78E1C00
E1C78E1C00
E1C78E1C00
1E3871E380
1E3871E380
1E3871E380
1E3871E380
01C78E1C78
01C78E1C78
01C78E1C78
0000000380
0000000380
0000000380
E1C0001C78
E1C0001C78
E1C0001C78
E1C0001C78
1E00000380
1E00000380
1E00000380
E1C78E1C78
E1C78E1C78
E1C78E1C78
1E3871E380
1E3871E380
1E3871E380
1E3871E380
01C78E1C00
01C78E1C00
01C78E1C00
0000700000
0000700000
0000700000
01C78E0000
01C78E0000
01C78E0000
01C78E0000
0038700000
0038700000
0038700000
01C7800000
01C7800000
01C7800000
ENDCHAR
STARTCHAR 015F
ENCODING 351
SWIDTH 690 0
DWIDTH 46 0
BBX 37 63 5 -13
BITMAP
01C78E1C00
01C78E1C00
01C78E1C00
1E3871E380
1E3871E380
1E3871E380
1E3871E380
E1C78E1C78
E1C78E1C78
E1C78E1C78
1E00000380
1E00000380
1E00000380
E1C0001C78
E1C0001C78
E1C0001C78
E1C0001C78
1E00000000
1E00000000
1E00000000
E1C78E1C00
E1C78E1C00
E1C78E1C00
1E3871E380
1E3871E380
1E3871E380
1E3871E380
01C78E1C78
01C78E1C78
01C78E1C78
0000000380
0000000380
0000000380
E1C0001C78
E1C0001C78
E1C0001C78
E1C0001C78
1E00000380
1E00000380
1E00000380
E1C78E1C78
E1C78E1C78
E1C78E1C78
1E3871E380
1E3871E380
1E3871E380
1E3871E380
01C78E1C00
01C78E1C00
01C78E1C00
0000700000
0000700000
0000700000
01C78E0000
01C78E0000
01C78E0000
01C78E0000
0038700000
0038700000
0038700000
01C7800000
01C7800000
01C7800000
ENDCHAR
STARTCHAR 0160
ENCODING 352
SWIDTH 690 0
DWIDTH 46 0
BBX 37 70 5 0
BITMAP
01C78E1C00
01C78E1C00
01C78E1C00
003801E000
003801E000
003801E000
003801E000
01C78E1C00
01C78E1C00
01C78E1C00
003871E000
003871E000
003871E000
00078E0000
00078E0000
00078E0000
00078E0000
0000000000
0000000000
0000000000
01C78E1C00
01C78E1C00
01C78E1C00
1E3871E380
1E3871E380
1E3871E380
1E3871E380
E1C78E1C78
E1C78E1C78
E1C78E1C78
1E00000380
1E00000380
1E00000380
E1C0001C78
E1C0001C78
E1C0001C78
E1C0001C78
1E00000000
1E00000000
1E00000000
E1C78E1C00
E1C78E1C00
E1C78E1C00
1E3871E380
1E3871E380
1E3871E380
1E3871E380
01C78E1C78
01C78E1C78
01C78E1C78
0000000380
0000000380
0000000380
E1C0001C78
E1C0001C78
E1C0001C78
E1C0001C78
1E00000380
1E00000380
1E00000380
E1C78E1C78
E1C78E1C78
E1C78E1C78
1E3871E380
1E3871E380
1E3871E380
1E3871E380
01C78E1C00
01C78E1C00
01C78E1C00
ENDCHAR
STARTCHAR 0161
ENCODING 353
SWIDTH 690 0
DWIDTH 46 0
BBX 37 70 5 0
BITMAP
01C78E1C00
01C78E1C00
01C78E1C00
003801E000
003801E000
003801E000
003801E000
01C78E1C00
01C78E1C00
01C78E1C00
003871E000
003871E000
003871E000
00078E0000
00078E0000
00078E0000
00078E0000
0000000000
0000000000
0000000000
01C78E1C00
01C78E1C00
01C78E1C00
1E3871E380
1E3871E380
1E3871E380
1E3871E380
E1C78E1C78
E1C78E1C78
E1C78E1C78
1E00000380
1E00000380
1E00000380
E1C0001C78
E1C0001C78
E1C0001C78
E1C0001C78
1E00000000
1E00000000
1E00000000
E1C78E1C00
E1C78E1C00
E1C78E1C00
1E3871E380
1E3871E380
1E3871E380
1E3871E380
01C78E1C78
01C78E1C78
01C78E1C78
0000000380
0000000380
0000000380
E1C0001C78
E1C0001C78
E1C0001C78
E1C0001C78
1E00000380
1E00000380
1E00000380
E1C78E1C78
E1C78E1C78
E1C78E1C78
1E3871E380
1E3871E380
1E3871E380
1E3871E380
01C78E1C00
01C78E1C00
01C78E1C00
ENDCHAR
STARTCHAR 0162
ENCODING 354
SWIDTH 690 0
DWIDTH 46 0
BBX 37 63 5 -13
BITMAP
E1C78E1C78
E1C78E1C78
E1C78E1C78
1E3871E380
1E3871E380
1E3871E380
1E3871E380
E1C78E1C78
E1C78E1C78
E1C78E1C78
0000700000
0000700000
0000700000
00078E0000
00078E0000
00078E0000
00078E0000
0000700000
0000700000
0000700000
00078E0000
00078E0000
00078E0000
0000700000
0000700000
0000700000
0000700000
00078E0000
00078E0000
00078E0000
0000700000
0000700000
0000700000
00078E0000
00078E0000
00078E0000
00078E0000
0000700000
0000700000
0000700000
00078E0000
00078E0000
00078E0000
0000700000
0000700000
0000700000
0000700000
00078E0000
00078E0000
00078E0000
0000700000
0000700000
0000700000
01C78E0000
01C78E0000
01C78E0000
01C78E0000
0038700000
0038700000
0038700000
01C7800000
01C7800000
01C7800000
ENDCHAR
STARTCHAR 0163
ENCODING 355
SWIDTH 690 0
DWIDTH 46 0
BBX 37 63 5 -13
BITMAP
E1C78E1C78
E1C78E1C78
E1C78E1C78
1E3871E380
1E3871E380
1E3871E380
1E3871E380
E1C78E1C78
E1C78E1C78
E1C78E1C78
0000700000
0000700000
0000700000
00078E0000
00078E0000
00078E0000
00078E0000
0000700000
0000700000
0000700000
00078E0000
00078E0000
00078E0000
0000700000
0000700000
0000700000
0000700000
00078E0000
00078E0000
00078E0000
0000700000
0000700000
0000700000
00078E0000
00078E0000
00078E0000
00078E0000
0000700000
0000700000
0000700000
00078E0000
00078E0000
00078E0000
0000700000
0000700000
0000700000
0000700000
00078E0000
00078E0000
00078E0000
0000700000
0000700000
0000700000
01C78E0000
01C78E0000
01C78E0000
01C78E0000
0038700000
0038700000
0038700000
01C7800000
01C7800000
01C7800000
ENDCHAR
STARTCHAR 0164
ENCODING 356
SWIDTH 690 0
DWIDTH 46 0
BBX 37 70 5 0
BITMAP
01C78E1C00
01C78E1C00
01C78E1C00
003801E000
003801E000
003801E000
003801E000
01C78E1C00
01C78E1C00
01C78E1C00
003871E000
003871E000
003871E000
00078E0000
00078E0000
00078E0000
00078E0000
0000000000
0000000000
0000000000
E1C78E1C78
E1C78E1C78
E1C78E1C78
1E3871E380
1E3871E380
1E3871E380
1E3871E380
E1C78E1C78
E1C78E1C78
E1C78E1C78
0000700000
0000700000
0000700000
00078E0000
00078E0000
00078E0000
00078E0000
0000700000
0000700000
0000700000
00078E0000
00078E0000
00078E0000
0000700000
0000700000
0000700000
0000700000
00078E0000
00078E0000
00078E0000
0000700000
0000700000
0000700000
00078E0000
00078E0000
00078E0000
00078E0000
0000700000
0000700000
0000700000
00078E0000
00078E0000
00078E0000
0000700000
0000700000
0000700000
0000700000
00078E0000
00078E0000
00078E0000
ENDCHAR
STARTCHAR 0165
ENCODING 357
SWIDTH 690 0
DWIDTH 46 0
BBX 37 70 5 0
BITMAP
01C78E1C00
01C78E1C00
01C78E1C00
003801E000
003801E000
003801E000
003801E000
01C78E1C00
01C78E1C00
01C78E1C00
003871E000
003871E000
003871E000
00078E0000
00078E0000
00078E0000
00078E0000
0000000000
0000000000
0000000000
E1C78E1C78
E1C78E1C78
E1C78E1C78
1E3871E380
1E3871E380
1E3871E380
1E3871E380
E1C78E1C78
E1C78E1C78
E1C78E1C78
0000700000
0000700000
0000700000
00078E0000
00078E0000
00078E0000
00078E0000
0000700000
0000700000
0000700000
00078E0000
00078E0000
00078E0000
0000700000
0000700000
0000700000
0000700000
00078E0000
00078E0000
00078E0000
0000700000
0000700000
0000700000
00078E0000
00078E0000
00078E0000
00078E0000
0000700000
0000700000
0000700000
00078E0000
00078E0000
00078E0000
0000700000
0000700000
0000700000
0000700000
00078E0000
00078E0000
00078E0000
ENDCHAR
STARTCHAR 0166
ENCODING 358
SWIDTH 690 0
DWIDTH 46 0
BBX 37 50 5 0
BITMAP
E1C78E1C78
E1C78E1C78
E1C78E1C78
1E3871E380
1E3871E380
1E3871E380
1E3871E380
E1C78E1C78
E1C78E1C78
E1C78E1C78
0000700000
0000700000
0000700000
00078E0000
00078E0000
00078E0000
00078E0000
0000700000
0000700000
0000700000
01C78E1C00
01C78E1C00
01C78E1C00
003871E000
003871E000
003871E000
003871E000
01C78E1C00
01C78E1C00
01C78E1C00
0000700000
0000700000
0000700000
00078E0000
00078E0000
00078E0000
00078E0000
0000700000
0000700000
0000700000
00078E0000
00078E0000
00078E0000
0000700000
0000700000
0000700000
0000700000
00078E0000
00078E0000
00078E0000
ENDCHAR
STARTCHAR 0167
ENCODING 359
SWIDTH 690 0
DWIDTH 46 0
BBX 37 50 5 0
BITMAP
E1C78E1C78
E1C78E1C78
E1C78E1C78
1E3871E380
1E3871E380
1E3871E380
1E3871E380
E1C78E1C78
E1C78E1C78
E1C78E1C78
0000700000
0000700000
0000700000
00078E0000
00078E0000
00078E0000
00078E0000
0000700000
0000700000
0000700000
01C78E1C00
01C78E1C00
01C78E1C00
003871E000
003871E000
003871E000
003871E000
01C78E1C00
01C78E1C00
01C78E1C00
0000700000
0000700000
0000700000
00078E0000
00078E0000
00078E0000
00078E0000
0000700000
0000700000
0000700000
00078E0000
00078E0000
00078E0000
0000700000
0000700000
0000700000
0000700000
00078E0000
00078E0000
00078E0000
ENDCHAR
STARTCHAR 0168
ENCODING 360
SWIDTH 795 0
DWIDTH 53 0
BBX 43 70 5 0
BITMAP
003870038700
003870038700
003870038700
01C78E007800
01C78E007800
01C78E007800
01C78E007800
1E3871E38700
1E3871E38700
1E3871E38700
01C00E1C7800
01C00E1C7800
01C00E1C7800
1E3801E38000
1E3801E38000
1E3801E38000
1E3801E38000
000000000000
000000000000
000000000000
E1C0000078E0
E1C0000078E0
E1C0000078E0
1E0000000700
1E0000000700
1E0000000700
1E0000000700
E1C0000078E0
E1C0000078E0
E1C0000078E0
1E0000000700
1E0000000700
1E0000000700
E1C0000078E0
E1C0000078E0
E1C0000078E0
E1C0000078E0
1E0000000700
1E0000000700
1E0000000700
E1C0000078E0
E1C0000078E0
E1C0000078E0
1E0000000700
1E0000000700
1E0000000700
1E0000000700
E1C0000078E0
E1C0000078E0
E1C0000078E0
1E0000000700
1E0000000700
1E0000000700
E1C0000078E0
E1C0000078E0
E1C0000078E0
E1C0000078E0
1E3800038700
1E3800038700
1E3800038700
01C78E1C7800
01C78E1C7800
01C78E1C7800
003871E38000
003871E38000
003871E38000
003871E38000
00078E1C0000
00078E1C0000
00078E1C0000
ENDCHAR
STARTCHAR 0169
ENCODING 361
SWIDTH 690 0
DWIDTH 46 0
BBX 37 70 5 0
BITMAP
01C7801C78
01C7801C78
01C7801C78
1E38700380
1E38700380
1E38700380
1E38700380
E1C78E1C78
E1C78E1C78
E1C78E1C78
1E0071E380
1E0071E380
1E0071E380
E1C00E1C00
E1C00E1C00
E1C00E1C00
E1C00E1C00
0000000000
0000000000
0000000000
E1C0001C78
E1C0001C78
E1C0001C78
1E00000380
1E00000380
1E00000380
1E00000380
E1C0001C78
E1C0001C78
E1C0001C78
1E00000380
1E00000380
1E00000380
E1C0001C78
E1C0001C78
E1C0001C78
E1C0001C78
1E00000380
1E00000380
1E00000380
E1C0001C78
E1C0001C78
E1C0001C78
1E00000380
1E00000380
1E00000380
1E00000380
E1C0001C78
E1C0001C78
E1C0001C78
1E00000380
1E00000380
1E00000380
E1C0001C78
E1C0001C78
E1C0001C78
E1C0001C78
1E00000380
1E00000380
1E00000380
E1C78E1C78
E1C78E1C78
E1C78E1C78
1E3871E380
1E3871E380
1E3871E380
1E3871E380
01C78E1C00
01C78E1C00
01C78E1C00
ENDCHAR
STARTCHAR 016A
ENCODING 362
SWIDTH 795 0
DWIDTH 53 0
BBX 43 63 5 0
BITMAP
003871E38000
003871E38000
003871E38000
00078E1C0000
00078E1C0000
00078E1C0000
003871E38000
003871E38000
003871E38000
003871E38000
000000000000
000000000000
000000000000
E1C0000078E0
E1C0000078E0
E1C0000078E0
1E0000000700
1E0000000700
1E0000000700
1E0000000700
E1C0000078E0
E1C0000078E0
E1C0000078E0
1E0000000700
1E0000000700
1E0000000700
E1C0000078E0
E1C0000078E0
E1C0000078E0
E1C0000078E0
1E0000000700
1E0000000700
1E0000000700
E1C0000078E0
E1C0000078E0
E1C0000078E0
1E0000000700
1E0000000700
1E0000000700
1E0000000700
E1C0000078E0
E1C0000078E0
E1C0000078E0
1E0000000700
1E0000000700
1E0000000700
E1C0000078E0
E1C0000078E0
E1C0000078E0
E1C0000078E0
1E3800038700
1E3800038700
1E3800038700
01C78E1C7800
01C78E1C7800
01C78E1C7800
003871E38000
003871E38000
003871E38000
003871E38000
00078E1C0000
00078E1C0000
00078E1C0000
ENDCHAR
STARTCHAR 016B
ENCODING 363
SWIDTH 690 0
DWIDTH 46 0
BBX 37 63 5 0
BITMAP
01C78E1C00
01C78E1C00
01C78E1C00
003871E000
003871E000
003871E000
01C78E1C00
01C78E1C00
01C78E1C00
01C78E1C00
0000000000
0000000000
0000000000
E1C0001C78
E1C0001C78
E1C0001C78
1E00000380
1E00000380
1E00000380
1E00000380
E1C0001C78
E1C0001C78
E1C0001C78
1E00000380
1E00000380
1E00000380
E1C0001C78
E1C0001C78
E1C0001C78
E1C0001C78
1E00000380
1E00000380
1E00000380
E1C0001C78
E1C0001C78
E1C0001C78
1E00000380
1E00000380
1E00000380
1E00000380
E1C0001C78
E1C0001C78
E1C0001C78
1E00000380
1E00000380
1E00000380
E1C0001C78
E1C0001C78
E1C0001C78
E1C0001C78
1E00000380
1E00000380
1E00000380
E1C78E1C78
E1C78E1C78
E1C78E1C78
1E3871E380
1E3871E380
1E3871E380
1E3871E380
01C78E1C00
01C78E1C00
01C78E1C00
ENDCHAR
STARTCHAR 016E
ENCODING 366
SWIDTH 795 0
DWIDTH 53 0
BBX 43 83 5 0
BITMAP
00078E1C0000
00078E1C0000
00078E1C0000
003871E38000
003871E38000
003871E38000
01C78E1C7800
01C78E1C7800
01C78E1C7800
01C78E1C7800
003800038000
003800038000
003800038000
01C7801C7800
01C7801C7800
01C7801C7800
003800038000
003800038000
003800038000
003800038000
01C78E1C7800
01C78E1C7800
01C78E1C7800
003871E38000
003871E38000
003871E38000
00078E1C0000
00078E1C0000
00078E1C0000
00078E1C0000
000000000000
000000000000
000000000000
E1C0000078E0
E1C0000078E0
E1C0000078E0
1E0000000700
1E0000000700
1E0000000700
1E0000000700
E1C0000078E0
E1C0000078E0
E1C0000078E0
1E0000000700
1E0000000700
1E0000000700
E1C0000078E0
E1C0000078E0
E1C0000078E0
E1C0000078E0
1E0000000700
1E0000000700
1E0000000700
E1C0000078E0
E1C0000078E0
E1C0000078E0
1E0000000700
1E0000000700
1E0000000700
1E0000000700
E1C0000078E0
E1C0000078E0
E1C0000078E0
1E0000000700
1E0000000700
1E0000000700
E1C0000078E0
E1C0000078E0
E1C0000078E0
E1C0000078E0
1E3800038700
1E3800038700
1E3800038700
01C78E1C7800
01C78E1C7800
01C78E1C7800
003871E38000
003871E38000
003871E38000
003871E38000
00078E1C0000
00078E1C0000
00078E1C0000
ENDCHAR
STARTCHAR 016F
ENCODING 367
SWIDTH 690 0
DWIDTH 46 0
BBX 37 83 5 0
BITMAP
003871E000
003871E000
003871E000
01C78E1C00
01C78E1C00
01C78E1C00
1E3871E380
1E3871E380
1E3871E380
1E3871E380
01C0001C00
01C0001C00
01C0001C00
1E3801E380
1E3801E380
1E3801E380
01C0001C00
01C0001C00
01C0001C00
01C0001C00
1E3871E380
1E3871E380
1E3871E380
01C78E1C00
01C78E1C00
01C78E1C00
003871E000
003871E000
003871E000
003871E000
0000000000
0000000000
0000000000
E1C0001C78
E1C0001C78
E1C0001C78
1E00000380
1E00000380
1E00000380
1E00000380
E1C0001C78
E1C0001C78
E1C0001C78
1E00000380
1E00000380
1E00000380
E1C0001C78
E1C0001C78
E1C0001C78
E1C0001C78
1E00000380
1E00000380
1E00000380
E1C0001C78
E1C0001C78
E1C0001C78
1E00000380
1E00000380
1E00000380
1E00000380
E1C0001C78
E1C0001C78
E1C0001C78
1E00000380
1E00000380
1E00000380
E1C0001C78
E1C0001C78
E1C0001C78
E1C0001C78
1E00000380
1E00000380
1E00000380
E1C78E1C78
E1C78E1C78
E1C78E1C78
1E3871E380
1E3871E380
1E3871E380
1E3871E380
01C78E1C00
01C78E1C00
01C78E1C00
ENDCHAR
STARTCHAR 0170
ENCODING 368
SWIDTH 795 0
DWIDTH 53 0
BBX 47 70 5 0
BITMAP
000071E0071E
000071E0071E
000071E0071E
00078E0078E0
00078E0078E0
00078E0078E0
00078E0078E0
003870038700
003870038700
003870038700
01C7801C7800
01C7801C7800
01C7801C7800
1E3801E38000
1E3801E38000
1E3801E38000
1E3801E38000
000000000000
000000000000
000000000000
E1C0000078E0
E1C0000078E0
E1C0000078E0
1E0000000700
1E0000000700
1E0000000700
1E0000000700
E1C0000078E0
E1C0000078E0
E1C0000078E0
1E0000000700
1E0000000700
1E0000000700
E1C0000078E0
E1C0000078E0
E1C0000078E0
E1C0000078E0
1E0000000700
1E0000000700
1E0000000700
E1C0000078E0
E1C0000078E0
E1C0000078E0
1E0000000700
1E0000000700
1E0000000700
1E0000000700
E1C0000078E0
E1C0000078E0
E1C0000078E0
1E0000000700
1E0000000700
1E0000000700
E1C0000078E0
E1C0000078E0
E1C0000078E0
E1C0000078E0
1E3800038700
1E3800038700
1E3800038700
01C78E1C7800
01C78E1C7800
01C78E1C7800
003871E38000
003871E38000
003871E38000
003871E38000
00078E1C0000
00078E1C0000
00078E1C0000
ENDCHAR
STARTCHAR 0171
ENCODING 369
SWIDTH 690 0
DWIDTH 46 0
BBX 43 70 5 0
BITMAP
00078E0078E0
00078E0078E0
00078E0078E0
003870038700
003870038700
003870038700
003870038700
01C7801C7800
01C7801C7800
01C7801C7800
1E3801E38000
1E3801E38000
1E3801E38000
E1C00E1C0000
E1C00E1C0000
E1C00E1C0000
E1C00E1C0000
000000000000
000000000000
000000000000
E1C0001C7800
E1C0001C7800
E1C0001C7800
1E0000038000
1E0000038000
1E0000038000
1E0000038000
E1C0001C7800
E1C0001C7800
E1C0001C7800
1E0000038000
1E0000038000
1E0000038000
E1C0001C7800
E1C0001C7800
E1C0001C7800
E1C0001C7800
1E0000038000
1E0000038000
1E0000038000
E1C0001C7800
E1C0001C7800
E1C0001C7800
1E0000038000
1E0000038000
1E0000038000
1E0000038000
E1C0001C7800
E1C0001C7800
E1C0001C7800
1E0000038000
1E0000038000
1E0000038000
E1C0001C7800
E1C0001C7800
E1C0001C7800
E1C0001C7800
1E0000038000
1E0000038000
1E0000038000
E1C78E1C7800
E1C78E1C7800
E1C78E1C7800
1E3871E38000
1E3871E38000
1E3871E38000
1E3871E38000
01C78E1C0000
01C78E1C0000
01C78E1C0000
ENDCHAR
STARTCHAR 0172
ENCODING 370
SWIDTH 795 0
DWIDTH 53 0
BBX 43 63 5 -13
BITMAP
E1C0000078E0
E1C0000078E0
E1C0000078E0
1E0000000700
1E0000000700
1E0000000700
1E0000000700
E1C0000078E0
E1C0000078E0
E1C0000078E0
1E0000000700
1E0000000700
1E0000000700
E1C0000078E0
E1C0000078E0
E1C0000078E0
E1C0000078E0
1E0000000700
1E0000000700
1E0000000700
E1C0000078E0
E1C0000078E0
E1C0000078E0
1E0000000700
1E0000000700
1E0000000700
1E0000000700
E1C0000078E0
E1C0000078E0
E1C0000078E0
1E0000000700
1E0000000700
1E0000000700
E1C0000078E0
E1C0000078E0
E1C0000078E0
E1C0000078E0
1E3800038700
1E3800038700
1E3800038700
01C78E1C7800
01C78E1C7800
01C78E1C7800
003871E38000
003871E38000
003871E38000
003871E38000
00078E1C0000
00078E1C0000
00078E1C0000
000001E00000
000001E00000
000001E00000
00000E1C7800
00000E1C7800
00000E1C7800
00000E1C7800
000001E38000
000001E38000
000001E38000
0000001C7800
0000001C7800
0000001C7800
ENDCHAR
STARTCHAR 0173
ENCODING 371
SWIDTH 690 0
DWIDTH 46 0
BBX 37 63 5 -13
BITMAP
E1C0001C78
E1C0001C78
E1C0001C78
1E00000380
1E00000380
1E00000380
1E00000380
E1C0001C78
E1C0001C78
E1C0001C78
1E00000380
1E00000380
1E00000380
E1C0001C78
E1C0001C78
E1C0001C78
E1C0001C78
1E00000380
1E00000380
1E00000380
E1C0001C78
E1C0001C78
E1C0001C78
1E00000380
1E00000380
1E00000380
1E00000380
E1C0001C78
E1C0001C78
E1C0001C78
1E00000380
1E00000380
1E00000380
E1C0001C78
E1C0001C78
E1C0001C78
E1C0001C78
1E00000380
1E00000380
1E00000380
E1C78E1C78
E1C78E1C78
E1C78E1C78
1E3871E380
1E3871E380
1E3871E380
1E3871E380
01C78E1C00
01C78E1C00
01C78E1C00
000001E000
000001E000
000001E000
00000E1C78
00000E1C78
00000E1C78
00000E1C78
000001E380
000001E380
000001E380
0000001C78
0000001C78
0000001C78
ENDCHAR
STARTCHAR 0174
ENCODING 372
SWIDTH 1095 0
DWIDTH 73 0
BBX 63 70 5 0
BITMAP
0000001C78000000
0000001C78000000
0000001C78000000
000001E387000000
000001E387000000
000001E387000000
000001E387000000
00000E1C78E00000
00000E1C78E00000
00000E1C78E00000
000001E007000000
000001E007000000
000001E007000000
00000E1C78E00000
00000E1C78E00000
00000E1C78E00000
00000E1C78E00000
0000000000000000
0000000000000000
0000000000000000
E1C0001C7800078E
E1C0001C7800078E
E1C0001C7800078E
1E00000380000070
1E00000380000070
1E00000380000070
1E00000380000070
E1C0001C7800078E
E1C0001C7800078E
E1C0001C7800078E
1E00000380000070
1E00000380000070
1E00000380000070
E1C0001C7800078E
E1C0001C7800078E
E1C0001C7800078E
E1C0001C7800078E
1E00000380000070
1E00000380000070
1E00000380000070
E1C0001C7800078E
E1C0001C7800078E
E1C0001C7800078E
1E00000380000070
1E00000380000070
1E00000380000070
1E00000380000070
E1C0001C7800078E
E1C0001C7800078E
E1C0001C7800078E
1E00000380000070
1E00000380000070
1E00000380000070
E1C0001C7800078E
E1C0001C7800078E
E1C0001C7800078E
E1C0001C7800078E
1E3801E387003870
1E3801E387003870
1E3801E387003870
01C78E1C78E1C780
01C78E1C78E1C780
01C78E1C78E1C780
003871E0071E3800
003871E0071E3800
003871E0071E3800
003871E0071E3800
00078E0000E1C000
00078E0000E1C000
00078E0000E1C000
ENDCHAR
STARTCHAR 0175
ENCODING 373
SWIDTH 1095 0
DWIDTH 73 0
BBX 63 70 5 0
BITMAP
0000001C78000000
0000001C78000000
0000001C78000000
000001E387000000
000001E387000000
000001E387000000
000001E387000000
00000E1C78E00000
00000E1C78E00000
00000E1C78E00000
000001E007000000
000001E007000000
000001E007000000
00000E1C78E00000
00000E1C78E00000
00000E1C78E00000
00000E1C78E00000
0000000000000000
0000000000000000
0000000000000000
E1C0001C7800078E
E1C0001C7800078E
E1C0001C7800078E
1E00000380000070
1E00000380000070
1E00000380000070
1E00000380000070
E1C0001C7800078E
E1C0001C7800078E
E1C0001C7800078E
1E00000380000070
1E00000380000070
1E00000380000070
E1C0001C7800078E
E1C0001C7800078E
E1C0001C7800078E
E1C0001C7800078E
1E00000380000070
1E00000380000070
1E00000380000070
E1C0001C7800078E
E1C0001C7800078E
E1C0001C7800078E
1E00000380000070
1E00000380000070
1E00000380000070
1E00000380000070
E1C0001C7800078E
E1C0001C7800078E
E1C0001C7800078E
1E00000380000070
1E00000380000070
1E00000380000070
E1C0001C7800078E
E1C0001C7800078E
E1C0001C7800078E
E1C0001C7800078E
1E0001E387000070
1E0001E387000070
1E0001E387000070
E1C78E1C78E1C78E
E1C78E1C78E1C78E
E1C78E1C78E1C78E
1E3871E0071E3870
1E3871E0071E3870
1E3871E0071E3870
1E3871E0071E3870
01C78E0000E1C780
01C78E0000E1C780
01C78E0000E1C780
ENDCHAR
STARTCHAR 0176
ENCODING 374
SWIDTH 690 0
DWIDTH 46 0
BBX 37 70 5 0
BITMAP
00078E0000
00078E0000
00078E0000
003871E000
003871E000
003871E000
003871E000
01C78E1C00
01C78E1C00
01C78E1C00
003801E000
003801E000
003801E000
01C78E1C00
01C78E1C00
01C78E1C00
01C78E1C00
0000000000
0000000000
0000000000
E1C0001C78
E1C0001C78
E1C0001C78
1E00000380
1E00000380
1E00000380
1E00000380
E1C0001C78
E1C0001C78
E1C0001C78
1E00000380
1E00000380
1E00000380
E1C0001C78
E1C0001C78
E1C0001C78
E1C0001C78
1E00000380
1E00000380
1E00000380
E1C0001C78
E1C0001C78
E1C0001C78
1E3801E380
1E3801E380
1E3801E380
1E3801E380
01C78E1C00
01C78E1C00
01C78E1C00
003871E000
003871E000
003871E000
00078E0000
00078E0000
00078E0000
00078E0000
0000700000
0000700000
0000700000
00078E0000
00078E0000
00078E0000
0000700000
0000700000
0000700000
0000700000
00078E0000
00078E0000
00078E0000
ENDCHAR
STARTCHAR 0177
ENCODING 375
SWIDTH 690 0
DWIDTH 46 0
BBX 37 70 5 0
BITMAP
00078E0000
00078E0000
00078E0000
003871E000
003871E000
003871E000
003871E000
01C78E1C00
01C78E1C00
01C78E1C00
003801E000
003801E000
003801E000
01C78E1C00
01C78E1C00
01C78E1C00
01C78E1C00
0000000000
0000000000
0000000000
E1C0001C78
E1C0001C78
E1C0001C78
1E00000380
1E00000380
1E00000380
1E00000380
E1C0001C78
E1C0001C78
E1C0001C78
1E00000380
1E00000380
1E00000380
E1C0001C78
E1C0001C78
E1C0001C78
E1C0001C78
1E00000380
1E00000380
1E00000380
E1C0001C78
E1C0001C78
E1C0001C78
1E00000380
1E00000380
1E00000380
1E00000380
E1C78E1C78
E1C78E1C78
E1C78E1C78
1E3871E380
1E3871E380
1E3871E380
01C78E1C00
01C78E1C00
01C78E1C00
01C78E1C00
0000700000
0000700000
0000700000
00078E0000
00078E0000
00078E0000
0000700000
0000700000
0000700000
0000700000
00078E0000
00078E0000
00078E0000
ENDCHAR
STARTCHAR 0178
ENCODING 376
SWIDTH 690 0
DWIDTH 46 0
BBX 37 63 5 0
BITMAP
01C78E1C00
01C78E1C00
01C78E1C00
003801E000
003801E000
003801E000
01C78E1C00
01C78E1C00
01C78E1C00
01C78E1C00
0000000000
0000000000
0000000000
E1C0001C78
E1C0001C78
E1C0001C78
1E00000380
1E00000380
1E00000380
1E00000380
E1C0001C78
E1C0001C78
E1C0001C78
1E00000380
1E00000380
1E00000380
E1C0001C78
E1C0001C78
E1C0001C78
E1C0001C78
1E00000380
1E00000380
1E00000380
E1C0001C78
E1C0001C78
E1C0001C78
1E3801E380
1E3801E380
1E3801E380
1E3801E380
01C78E1C00
01C78E1C00
01C78E1C00
003871E000
003871E000
003871E000
00078E0000
00078E0000
00078E0000
00078E0000
0000700000
0000700000
0000700000
00078E0000
00078E0000
00078E0000
0000700000
0000700000
0000700000
0000700000
00078E0000
00078E0000
00078E0000
ENDCHAR
STARTCHAR 0179
ENCODING 377
SWIDTH 690 0
DWIDTH 46 0
BBX 37 70 5 0
BITMAP
000001E380
000001E380
000001E380
00000E1C00
00000E1C00
00000E1C00
00000E1C00
000071E000
000071E000
000071E000
00078E0000
00078E0000
00078E0000
0038700000
0038700000
0038700000
0038700000
0000000000
0000000000
0000000000
E1C78E1C78
E1C78E1C78
E1C78E1C78
1E3871E380
1E3871E380
1E3871E380
1E3871E380
E1C78E1C78
E1C78E1C78
E1C78E1C78
000001E380
000001E380
000001E380
00000E1C00
00000E1C00
00000E1C00
00000E1C00
000071E000
000071E000
000071E000
00078E0000
00078E0000
00078E0000
0038700000
0038700000
0038700000
0038700000
01C7800000
01C7800000
01C7800000
1E38000000
1E38000000
1E38000000
E1C0000000
E1C0000000
E1C0000000
E1C0000000
1E00000000
1E00000000
1E00000000
E1C78E1C78
E1C78E1C78
E1C78E1C78
1E3871E380
1E3871E380
1E3871E380
1E3871E380
E1C78E1C78
E1C78E1C78
E1C78E1C78
ENDCHAR
ENDFONT
